{
.appVersion = "3112";
classes = (
{
code = "alef-hb bet-hb gimel-hb dalet-hb he-hb vav-hb zayin-hb het-hb tet-hb yod-hb finalkaf-hb kaf-hb lamed-hb finalmem-hb mem-hb finalnun-hb nun-hb samekh-hb ayin-hb finalpe-hb pe-hb finaltsadi-hb tsadi-hb qof-hb resh-hb shin-hb tav-hb";
name = HebrewLetters;
},
{
automatic = 1;

glyphs = (
{
color = 6;
glyphname = A;
layers = (
{
anchors = (
{
name = bottom;
position = "{378, 0}";
},
{
name = ogonek;
position = "{700, 122}";
},
{
name = top;
position = "{378, 700}";
}
);
background = {
anchors = (
{
name = bottom;
position = "{378, 0}";
},
{
name = ogonek;
position = "{700, 122}";
},
{
name = top;
position = "{378, 700}";
}
);
paths = (
{
closed = 1;
nodes = (
"207 0 LINE SMOOTH",
"233 0 OFFCURVE",
"242 14 OFFCURVE",
"246 25 CURVE SMOOTH",
"270 91 LINE",
"485 91 LINE",
"509 25 LINE SMOOTH",
"513 14 OFFCURVE",
"522 0 OFFCURVE",
"548 0 CURVE SMOOTH",
"733 0 LINE SMOOTH",
"745 0 OFFCURVE",
"755 10 OFFCURVE",
"755 22 CURVE SMOOTH",
"755 24 OFFCURVE",
"755 26 OFFCURVE",
"754 29 CURVE SMOOTH",
"531 667 LINE",
"527 682 OFFCURVE",
"513 700 OFFCURVE",
"486 700 CURVE SMOOTH",
"269 700 LINE SMOOTH",
"242 700 OFFCURVE",
"228 682 OFFCURVE",
"224 667 CURVE",
"1 29 LINE SMOOTH",
"0 26 OFFCURVE",
"0 24 OFFCURVE",
"0 22 CURVE SMOOTH",
"0 10 OFFCURVE",
"10 0 OFFCURVE",
"22 0 CURVE SMOOTH"
);
},
{
closed = 1;
nodes = (
"377 472 LINE",
"434 286 LINE",
"321 286 LINE"
);
}
);
};
layerId = "EC64484B-0978-4CB1-9EE9-C40A2D8C4059";
paths = (
{
closed = 1;
nodes = (
"22 -34 OFFCURVE",
"77.106 -34 OFFCURVE",
"77.106 30 CURVE",
"77.106 -41 OFFCURVE",
"128.277 -41 OFFCURVE",
"128.277 30 CURVE",
"152.958 -19.375 OFFCURVE",
"260.203 34.234 OFFCURVE",
"235.522 83.609 CURVE",
"265.018 16.833 OFFCURVE",
"349.666 54.225 OFFCURVE",
"320.169 121 CURVE",
"320.169 50 OFFCURVE",
"442.738 50 OFFCURVE",
"442.738 121 CURVE",
"427.199 49.673 OFFCURVE",
"495.852 34.717 OFFCURVE",
"511.391 106.043 CURVE",
"471.462 70.286 OFFCURVE",
"539.56 -5.757 OFFCURVE",
"579.489 30 CURVE",
"579.489 -42 OFFCURVE",
"658.213 -42 OFFCURVE",
"658.213 30 CURVE",
"674.858 -17.572 OFFCURVE",
"732.119 2.463 OFFCURVE",
"715.474 50.035 CURVE",
"779.647 72.526 OFFCURVE",
"733.594 203.929 OFFCURVE",
"669.421 181.439 CURVE",
"727.932 201.945 OFFCURVE",
"677.932 344.611 OFFCURVE",
"619.421 324.105 CURVE",
"678.875 344.942 OFFCURVE",
"661.77 393.749 OFFCURVE",
"602.316 372.912 CURVE",
"658.939 392.757 OFFCURVE",
"644.465 434.055 OFFCURVE",
"587.842 414.211 CURVE",
"652.015 436.701 OFFCURVE",
"630.962 496.771 OFFCURVE",
"566.789 474.281 CURVE",
"631.906 497.102 OFFCURVE",
"588.485 620.997 OFFCURVE",
"523.368 598.175 CURVE",
"580.053 633.895 OFFCURVE",
"534.794 705.719 OFFCURVE",
"478.109 670 CURVE",
"478.109 739 OFFCURVE",
"328.182 739 OFFCURVE",
"328.182 670 CURVE",
"328.182 741 OFFCURVE",
"280.836 741 OFFCURVE",
"280.836 670 CURVE",
"236.654 695.872 OFFCURVE",
"176.923 593.866 OFFCURVE",
"221.105 567.994 CURVE",
"162.585 588.472 OFFCURVE",
"119.164 464.384 OFFCURVE",
"177.684 443.906 CURVE",
"117.276 465.045 OFFCURVE",
"80.434 359.758 OFFCURVE",
"140.842 338.62 CURVE",
"71.939 362.731 OFFCURVE",
"29.834 242.403 OFFCURVE",
"98.737 218.292 CURVE",
"30.777 242.073 OFFCURVE",
"0.514 155.588 OFFCURVE",
"68.474 131.807 CURVE",
"-0.43 155.918 OFFCURVE",
"-13.588 118.315 OFFCURVE",
"55.316 94.205 CURVE"
);
},
{
closed = 1;
nodes = (
"316.423 245.452 OFFCURVE",
"345.948 344.604 OFFCURVE",
"310.525 355.153 CURVE",
"350.779 343.166 OFFCURVE",
"373.491 419.437 OFFCURVE",
"333.237 431.424 CURVE",
"353.189 403.696 OFFCURVE",
"422.086 453.272 OFFCURVE",
"402.133 481 CURVE",
"364.044 467.775 OFFCURVE",
"397.148 372.436 OFFCURVE",
"435.237 385.661 CURVE",
"393.477 372.854 OFFCURVE",
"414.528 304.21 OFFCURVE",
"456.288 317.017 CURVE",
"419.039 324.93 OFFCURVE",
"406.078 263.913 OFFCURVE",
"443.327 256 CURVE",
"443.327 299.4 OFFCURVE",
"344.347 299.4 OFFCURVE",
"344.347 256 CURVE"
);
}
);
width = 755;
},
{
anchors = (
{
name = bottom;
position = "{378, 0}";
},
{
name = ogonek;
position = "{700, 122}";
},
{
name = top;
position = "{378, 700}";
}
);
associatedMasterId = "EC64484B-0978-4CB1-9EE9-C40A2D8C4059";
background = {
anchors = (
{
name = bottom;
position = "{378, 0}";
},
{
name = ogonek;
position = "{700, 122}";
},
{
name = top;
position = "{378, 700}";
}
);
paths = (
{
closed = 1;
nodes = (
"207 0 LINE SMOOTH",
"233 0 OFFCURVE",
"242 14 OFFCURVE",
"246 25 CURVE SMOOTH",
"270 91 LINE",
"485 91 LINE",
"509 25 LINE SMOOTH",
"513 14 OFFCURVE",
"522 0 OFFCURVE",
"548 0 CURVE SMOOTH",
"733 0 LINE SMOOTH",
"745 0 OFFCURVE",
"755 10 OFFCURVE",
"755 22 CURVE SMOOTH",
"755 24 OFFCURVE",
"755 26 OFFCURVE",
"754 29 CURVE SMOOTH",
"531 667 LINE",
"527 682 OFFCURVE",
"513 700 OFFCURVE",
"486 700 CURVE SMOOTH",
"269 700 LINE SMOOTH",
"242 700 OFFCURVE",
"228 682 OFFCURVE",
"224 667 CURVE",
"1 29 LINE SMOOTH",
"0 26 OFFCURVE",
"0 24 OFFCURVE",
"0 22 CURVE SMOOTH",
"0 10 OFFCURVE",
"10 0 OFFCURVE",
"22 0 CURVE SMOOTH"
);
},
{
closed = 1;
nodes = (
"377 472 LINE",
"434 286 LINE",
"321 286 LINE"
);
}
);
};
color = 6;
layerId = "B4744709-28CD-4AA0-AF61-D9F28879ED7D";
name = "Jul 23 21, 16:38";
paths = (
{
closed = 1;
nodes = (
"207 0 LINE SMOOTH",
"233 0 OFFCURVE",
"242 14 OFFCURVE",
"246 25 CURVE SMOOTH",
"270 91 LINE",
"485 91 LINE",
"509 25 LINE SMOOTH",
"513 14 OFFCURVE",
"522 0 OFFCURVE",
"548 0 CURVE SMOOTH",
"733 0 LINE SMOOTH",
"745 0 OFFCURVE",
"755 10 OFFCURVE",
"755 22 CURVE SMOOTH",
"755 24 OFFCURVE",
"755 26 OFFCURVE",
"754 29 CURVE SMOOTH",
"531 667 LINE",
"527 682 OFFCURVE",
"513 700 OFFCURVE",
"486 700 CURVE SMOOTH",
"269 700 LINE SMOOTH",
"242 700 OFFCURVE",
"228 682 OFFCURVE",
"224 667 CURVE",
"1 29 LINE SMOOTH",
"0 26 OFFCURVE",
"0 24 OFFCURVE",
"0 22 CURVE SMOOTH",
"0 10 OFFCURVE",
"10 0 OFFCURVE",
"22 0 CURVE SMOOTH"
);
},
{
closed = 1;
nodes = (
"377 472 LINE",
"434 286 LINE",
"321 286 LINE"
);
}
);
width = 755;
}
);
leftKerningGroup = A;
rightKerningGroup = A;
unicode = 0041;
userData = {
com.typemytype.robofont.guides = (
{
angle = 0;
isGlobal = 0;
magnetic = 5;
x = 0;
y = 680;
},
{
angle = 90;
isGlobal = 0;
magnetic = 5;
x = 35;
y = 0;
},
{
angle = 90;
isGlobal = 0;
magnetic = 5;
x = 637;
y = 0;
},
{
angle = 90;
isGlobal = 0;
magnetic = 5;
x = 336;
y = 0;
}
);
};
},
{
color = 6;
glyphname = Aogonek;
layers = (
{
background = {
paths = (
{
closed = 1;
nodes = (
"718 -220 LINE SMOOTH",
"733 -220 OFFCURVE",
"745 -208 OFFCURVE",
"745 -193 CURVE SMOOTH",
"745 -125 LINE SMOOTH",
"745 -110 OFFCURVE",
"733 -98 OFFCURVE",
"718 -98 CURVE SMOOTH",
"708 -98 LINE SMOOTH",
"669 -98 OFFCURVE",
"658 -70 OFFCURVE",
"658 -49 CURVE SMOOTH",
"658 -29 OFFCURVE",
"668 -2 OFFCURVE",
"702 0 CURVE",
"733 0 LINE SMOOTH",
"745 0 OFFCURVE",
"755 10 OFFCURVE",
"755 22 CURVE SMOOTH",
"755 24 OFFCURVE",
"755 26 OFFCURVE",
"754 29 CURVE SMOOTH",
"531 667 LINE",
"527 682 OFFCURVE",
"513 700 OFFCURVE",
"486 700 CURVE SMOOTH",
"269 700 LINE SMOOTH",
"242 700 OFFCURVE",
"228 682 OFFCURVE",
"224 667 CURVE",
"1 29 LINE SMOOTH",
"0 26 OFFCURVE",
"0 24 OFFCURVE",
"0 22 CURVE SMOOTH",
"0 10 OFFCURVE",
"10 0 OFFCURVE",
"22 0 CURVE SMOOTH",
"207 0 LINE SMOOTH",
"233 0 OFFCURVE",
"242 14 OFFCURVE",
"246 25 CURVE SMOOTH",
"270 91 LINE",
"485 91 LINE",
"509 25 LINE SMOOTH",
"512 15 OFFCURVE",
"519 3 OFFCURVE",
"537 0 CURVE",
"534 -15 OFFCURVE",
"532 -31 OFFCURVE",
"532 -49 CURVE SMOOTH",
"532 -144 OFFCURVE",
"583 -220 OFFCURVE",
"704 -220 CURVE SMOOTH"
);
},
{
closed = 1;
nodes = (
"377 472 LINE",
"434 286 LINE",
"321 286 LINE"
);
}
);
};
hints = (
{
horizontal = 1;
place = "{0, 0}";
type = Tag;
}
);
layerId = "EC64484B-0978-4CB1-9EE9-C40A2D8C4059";
paths = (
{
closed = 1;
nodes = (
"770.818 -219.4 OFFCURVE",
"781.818 -194.4 OFFCURVE",
"715 -165 CURVE",
"763.631 -131.241 OFFCURVE",
"736.541 -92.218 OFFCURVE",
"687.911 -125.978 CURVE",
"752.296 -85.597 OFFCURVE",
"693.815 7.647 OFFCURVE",
"629.431 -32.733 CURVE",
"662.979 -94.17 OFFCURVE",
"759.548 -41.437 OFFCURVE",
"726 20 CURVE",
"783.567 40.175 OFFCURVE",
"732.251 186.596 OFFCURVE",
"674.684 166.421 CURVE",
"746.407 191.558 OFFCURVE",
"697.723 330.47 OFFCURVE",
"626 305.333 CURVE",
"699.61 331.131 OFFCURVE",
"670.663 413.728 OFFCURVE",
"597.053 387.93 CURVE",
"669.719 413.397 OFFCURVE",
"640.772 495.994 OFFCURVE",
"568.105 470.526 CURVE",
"640.772 495.994 OFFCURVE",
"594.719 627.397 OFFCURVE",
"522.053 601.93 CURVE",
"560.241 631.01 OFFCURVE",
"508.407 699.08 OFFCURVE",
"470.218 670 CURVE",
"470.218 740 OFFCURVE",
"355.8 740 OFFCURVE",
"355.8 670 CURVE",
"355.448 743 OFFCURVE",
"264.251 742.56 OFFCURVE",
"264.602 669.561 CURVE",
"204.917 695.302 OFFCURVE",
"162.735 597.495 OFFCURVE",
"222.421 571.754 CURVE",
"164.844 591.902 OFFCURVE",
"133.265 501.656 OFFCURVE",
"190.842 481.509 CURVE",
"131.378 502.317 OFFCURVE",
"99.799 412.071 OFFCURVE",
"159.263 391.263 CURVE",
"94.135 414.053 OFFCURVE",
"53.346 297.486 OFFCURVE",
"118.474 274.696 CURVE",
"55.234 296.825 OFFCURVE",
"13.128 176.498 OFFCURVE",
"76.368 154.368 CURVE",
"17.848 174.846 OFFCURVE",
"-18.994 69.56 OFFCURVE",
"39.526 49.082 CURVE",
"12.288 6.676 OFFCURVE",
"41.996 -12.406 OFFCURVE",
"69.234 30 CURVE",
"69.234 -46 OFFCURVE",
"175.511 -46 OFFCURVE",
"175.511 30 CURVE",
"222.987 -9.25 OFFCURVE",
"295.128 78.011 OFFCURVE",
"247.652 117.261 CURVE",
"250.729 41.323 OFFCURVE",
"343.015 45.062 OFFCURVE",
"339.938 121 CURVE",
"339.938 55 OFFCURVE",
"470.415 55 OFFCURVE",
"470.415 121 CURVE",
"417.055 77.255 OFFCURVE",
"494.015 -16.62 OFFCURVE",
"547.375 27.125 CURVE",
"471.308 15.178 OFFCURVE",
"487.694 -89.151 OFFCURVE",
"563.761 -77.204 CURVE",
"515.056 -107.954 OFFCURVE",
"575.144 -203.127 OFFCURVE",
"623.849 -172.377 CURVE",
"602.61 -243.264 OFFCURVE",
"656.464 -259.4 OFFCURVE",
"677.703 -188.513 CURVE"
);
},
{
closed = 1;
nodes = (
"314.813 245.931 OFFCURVE",
"336.389 318.389 OFFCURVE",
"302.576 328.458 CURVE",
"339.073 317.59 OFFCURVE",
"366.327 409.115 OFFCURVE",
"329.831 419.983 CURVE",
"369.591 400.584 OFFCURVE",
"399.36 461.601 OFFCURVE",
"359.6 481 CURVE",
"338.377 431.454 OFFCURVE",
"391.794 408.573 OFFCURVE",
"413.017 458.119 CURVE",
"373.933 446.133 OFFCURVE",
"386.798 404.184 OFFCURVE",
"425.881 416.169 CURVE",
"385.192 403.691 OFFCURVE",
"403.904 342.674 OFFCURVE",
"444.593 355.153 CURVE",
"411.399 344.973 OFFCURVE",
"439.467 253.448 OFFCURVE",
"472.661 263.627 CURVE",
"466.974 297.31 OFFCURVE",
"421.802 289.683 OFFCURVE",
"427.49 256 CURVE",
"427.49 311.3 OFFCURVE",
"395.816 311.3 OFFCURVE",
"395.816 256 CURVE",
"395.816 307.1 OFFCURVE",
"364.143 307.1 OFFCURVE",
"364.143 256 CURVE"
);
}
);
width = 755;
},
{
associatedMasterId = "EC64484B-0978-4CB1-9EE9-C40A2D8C4059";
background = {
paths = (
{
closed = 1;
nodes = (
"718 -220 LINE SMOOTH",
"733 -220 OFFCURVE",
"745 -208 OFFCURVE",
"745 -193 CURVE SMOOTH",
"745 -125 LINE SMOOTH",
"745 -110 OFFCURVE",
"733 -98 OFFCURVE",
"718 -98 CURVE SMOOTH",
"708 -98 LINE SMOOTH",
"669 -98 OFFCURVE",
"658 -70 OFFCURVE",
"658 -49 CURVE SMOOTH",
"658 -29 OFFCURVE",
"668 -2 OFFCURVE",
"702 0 CURVE",
"733 0 LINE SMOOTH",
"745 0 OFFCURVE",
"755 10 OFFCURVE",
"755 22 CURVE SMOOTH",
"755 24 OFFCURVE",
"755 26 OFFCURVE",
"754 29 CURVE SMOOTH",
"531 667 LINE",
"527 682 OFFCURVE",
"513 700 OFFCURVE",
"486 700 CURVE SMOOTH",
"269 700 LINE SMOOTH",
"242 700 OFFCURVE",
"228 682 OFFCURVE",
"224 667 CURVE",
"1 29 LINE SMOOTH",
"0 26 OFFCURVE",
"0 24 OFFCURVE",
"0 22 CURVE SMOOTH",
"0 10 OFFCURVE",
"10 0 OFFCURVE",
"22 0 CURVE SMOOTH",
"207 0 LINE SMOOTH",
"233 0 OFFCURVE",
"242 14 OFFCURVE",
"246 25 CURVE SMOOTH",
"270 91 LINE",
"485 91 LINE",
"509 25 LINE SMOOTH",
"512 15 OFFCURVE",
"519 3 OFFCURVE",
"537 0 CURVE",
"534 -15 OFFCURVE",
"532 -31 OFFCURVE",
"532 -49 CURVE SMOOTH",
"532 -144 OFFCURVE",
"583 -220 OFFCURVE",
"704 -220 CURVE SMOOTH"
);
},
{
closed = 1;
nodes = (
"377 472 LINE",
"434 286 LINE",
"321 286 LINE"
);
}
);
};
color = 6;
hints = (
{
horizontal = 1;
place = "{0, 0}";
type = Tag;
}
);
layerId = "425CB149-7B94-4701-9B95-683FB97AFC3F";
name = "Jul 23 21, 16:38";
paths = (
{
closed = 1;
nodes = (
"718 -220 LINE SMOOTH",
"733 -220 OFFCURVE",
"745 -208 OFFCURVE",
"745 -193 CURVE SMOOTH",
"745 -125 LINE SMOOTH",
"745 -110 OFFCURVE",
"733 -98 OFFCURVE",
"718 -98 CURVE SMOOTH",
"708 -98 LINE SMOOTH",
"669 -98 OFFCURVE",
"658 -70 OFFCURVE",
"658 -49 CURVE SMOOTH",
"658 -29 OFFCURVE",
"668 -2 OFFCURVE",
"702 0 CURVE",
"733 0 LINE SMOOTH",
"745 0 OFFCURVE",
"755 10 OFFCURVE",
"755 22 CURVE SMOOTH",
"755 24 OFFCURVE",
"755 26 OFFCURVE",
"754 29 CURVE SMOOTH",
"531 667 LINE",
"527 682 OFFCURVE",
"513 700 OFFCURVE",
"486 700 CURVE SMOOTH",
"269 700 LINE SMOOTH",
"242 700 OFFCURVE",
"228 682 OFFCURVE",
"224 667 CURVE",
"1 29 LINE SMOOTH",
"0 26 OFFCURVE",
"0 24 OFFCURVE",
"0 22 CURVE SMOOTH",
"0 10 OFFCURVE",
"10 0 OFFCURVE",
"22 0 CURVE SMOOTH",
"207 0 LINE SMOOTH",
"233 0 OFFCURVE",
"242 14 OFFCURVE",
"246 25 CURVE SMOOTH",
"270 91 LINE",
"485 91 LINE",
"509 25 LINE SMOOTH",
"512 15 OFFCURVE",
"519 3 OFFCURVE",
"537 0 CURVE",
"534 -15 OFFCURVE",
"532 -31 OFFCURVE",
"532 -49 CURVE SMOOTH",
"532 -144 OFFCURVE",
"583 -220 OFFCURVE",
"704 -220 CURVE SMOOTH"
);
},
{
closed = 1;
nodes = (
"377 472 LINE",
"434 286 LINE",
"321 286 LINE"
);
}
);
width = 755;
}
);
leftKerningGroup = A;
rightKerningGroup = A;
unicode = 0104;
},
{
color = 6;
glyphname = AE;
layers = (
{
anchors = (
{
name = bottom;
position = "{503, 0}";
},
{
name = top;
position = "{503, 700}";
}
);
background = {
anchors = (
{
name = bottom;
position = "{503, 0}";
},
{
name = top;
position = "{503, 700}";
}
);
paths = (
{
closed = 1;
nodes = (
"211 0 LINE SMOOTH",
"237 0 OFFCURVE",
"246 14 OFFCURVE",
"250 25 CURVE SMOOTH",
"258 47 OFFCURVE",
"266 69 OFFCURVE",
"274 91 CURVE",
"423 91 LINE",
"423 27 LINE SMOOTH",
"423 12 OFFCURVE",
"435 0 OFFCURVE",
"450 0 CURVE SMOOTH",
"941 0 LINE SMOOTH",
"956 0 OFFCURVE",
"968 12 OFFCURVE",
"968 27 CURVE SMOOTH",
"968 168 LINE SMOOTH",
"968 183 OFFCURVE",
"956 195 OFFCURVE",
"941 195 CURVE SMOOTH",
"663 195 LINE",
"663 258 LINE",
"911 258 LINE SMOOTH",
"926 258 OFFCURVE",
"938 270 OFFCURVE",
"938 285 CURVE SMOOTH",
"938 415 LINE SMOOTH",
"938 430 OFFCURVE",
"926 442 OFFCURVE",
"911 442 CURVE SMOOTH",
"663 442 LINE",
"663 505 LINE",
"933 505 LINE SMOOTH",
"948 505 OFFCURVE",
"960 517 OFFCURVE",
"960 532 CURVE SMOOTH",
"960 673 LINE SMOOTH",
"960 688 OFFCURVE",
"948 700 OFFCURVE",
"933 700 CURVE SMOOTH",
"273 700 LINE SMOOTH",
"246 700 OFFCURVE",
"232 682 OFFCURVE",
"228 667 CURVE",
"154 454 OFFCURVE",
"79 242 OFFCURVE",
"5 29 CURVE SMOOTH",
"4 26 OFFCURVE",
"4 24 OFFCURVE",
"4 22 CURVE SMOOTH",
"4 10 OFFCURVE",
"14 0 OFFCURVE",
"26 0 CURVE SMOOTH"
);
},
{
closed = 1;
nodes = (
"391 505 LINE",
"423 505 LINE",
"423 286 LINE",
"325 286 LINE"
);
}
);
};
layerId = "EC64484B-0978-4CB1-9EE9-C40A2D8C4059";
paths = (
{
closed = 1;
nodes = (
"26 -37 OFFCURVE",
"140.149 -37 OFFCURVE",
"140.149 30 CURVE",
"144.966 -48.853 OFFCURVE",
"226.817 -43.853 OFFCURVE",
"222 35 CURVE",
"274.287 -13.031 OFFCURVE",
"353.287 72.969 OFFCURVE",
"301 121 CURVE",
"301 47 OFFCURVE",
"389 47 OFFCURVE",
"389 121 CURVE",
"352.461 61.293 OFFCURVE",
"416.461 22.127 OFFCURVE",
"453 81.833 CURVE",
"392 81.833 OFFCURVE",
"392 30.917 OFFCURVE",
"453 30.917 CURVE",
"452.138 -45.078 OFFCURVE",
"532.967 -45.995 OFFCURVE",
"533.829 30 CURVE",
"533.829 -41 OFFCURVE",
"617.659 -41 OFFCURVE",
"617.659 30 CURVE",
"617.659 -45 OFFCURVE",
"749.39 -45 OFFCURVE",
"749.39 30 CURVE",
"749.39 -41 OFFCURVE",
"833.22 -41 OFFCURVE",
"833.22 30 CURVE",
"833.22 -35 OFFCURVE",
"893.098 -35 OFFCURVE",
"893.098 30 CURVE",
"940.428 3.183 OFFCURVE",
"985.331 82.433 OFFCURVE",
"938 109.25 CURVE",
"1007 109.25 OFFCURVE",
"1007 160.167 OFFCURVE",
"938 160.167 CURVE",
"940.867 217.695 OFFCURVE",
"843.867 222.529 OFFCURVE",
"841 165 CURVE",
"841 215.4 OFFCURVE",
"781 215.4 OFFCURVE",
"781 165 CURVE",
"781 213.8 OFFCURVE",
"645 213.8 OFFCURVE",
"645 165 CURVE",
"703.647 177.669 OFFCURVE",
"691.647 233.218 OFFCURVE",
"633 220.548 CURVE",
"682.003 185.926 OFFCURVE",
"729.66 253.378 OFFCURVE",
"680.657 288 CURVE",
"680.657 228 OFFCURVE",
"736.257 228 OFFCURVE",
"736.257 288 CURVE",
"736.257 236 OFFCURVE",
"835.543 236 OFFCURVE",
"835.543 288 CURVE",
"856.636 234.401 OFFCURVE",
"929.094 262.916 OFFCURVE",
"908 316.515 CURVE",
"980 316.515 OFFCURVE",
"980 391.364 OFFCURVE",
"908 391.364 CURVE",
"933.332 441.307 OFFCURVE",
"892.646 461.943 OFFCURVE",
"867.314 412 CURVE",
"867.314 467.2 OFFCURVE",
"764.057 467.2 OFFCURVE",
"764.057 412 CURVE",
"764.057 460.8 OFFCURVE",
"672.714 460.8 OFFCURVE",
"672.714 412 CURVE",
"678.679 471.703 OFFCURVE",
"638.965 475.671 OFFCURVE",
"633 415.968 CURVE",
"694.687 409.749 OFFCURVE",
"706.687 528.781 OFFCURVE",
"645 535 CURVE",
"645 485.4 OFFCURVE",
"741 485.4 OFFCURVE",
"741 535 CURVE",
"741 474.2 OFFCURVE",
"861 474.2 OFFCURVE",
"861 535 CURVE",
"861 486.2 OFFCURVE",
"933 486.2 OFFCURVE",
"933 535 CURVE",
"992.978 536.627 OFFCURVE",
"989.978 647.21 OFFCURVE",
"930 645.583 CURVE",
"944.851 707.014 OFFCURVE",
"843.851 731.43 OFFCURVE",
"829 670 CURVE",
"829 744 OFFCURVE",
"729 744 OFFCURVE",
"729 670 CURVE",
"729 747 OFFCURVE",
"681 747 OFFCURVE",
"681 670 CURVE",
"681 738 OFFCURVE",
"641 738 OFFCURVE",
"641 670 CURVE",
"641 735 OFFCURVE",
"573 735 OFFCURVE",
"573 670 CURVE",
"573 749 OFFCURVE",
"461 749 OFFCURVE",
"461 670 CURVE",
"461 732 OFFCURVE",
"361 732 OFFCURVE",
"361 670 CURVE",
"340.329 718.586 OFFCURVE",
"223.194 668.751 OFFCURVE",
"243.865 620.165 CURVE",
"179.703 642.688 OFFCURVE",
"130.622 502.866 OFFCURVE",
"194.783 480.344 CURVE",
"127.799 503.883 OFFCURVE",
"105.226 439.648 OFFCURVE",
"172.211 416.109 CURVE",
"105.183 439.526 OFFCURVE",
"89.332 394.155 OFFCURVE",
"156.36 370.738 CURVE",
"91.218 393.488 OFFCURVE",
"59.803 303.534 OFFCURVE",
"124.945 280.784 CURVE",
"61.759 303.066 OFFCURVE",
"33.531 223.017 OFFCURVE",
"96.717 200.736 CURVE",
"25.046 226.019 OFFCURVE",
"3.532 165.032 OFFCURVE",
"75.203 139.749 CURVE",
"4.43 164.572 OFFCURVE",
"-22.325 88.29 OFFCURVE",
"48.448 63.467 CURVE"
);
},
{
closed = 1;
nodes = (
"324.144 244.215 OFFCURVE",
"354.062 343.584 OFFCURVE",
"314.918 355.37 CURVE",
"353.526 343.746 OFFCURVE",
"370.786 401.075 OFFCURVE",
"332.178 412.699 CURVE",
"373.467 400.267 OFFCURVE",
"398.782 484.35 OFFCURVE",
"357.493 496.781 CURVE",
"373.263 463.974 OFFCURVE",
"452.77 502.194 OFFCURVE",
"437 535 CURVE",
"406.959 504.852 OFFCURVE",
"422.959 488.909 OFFCURVE",
"453 519.057 CURVE",
"416.04 519.057 OFFCURVE",
"416.04 435.357 OFFCURVE",
"453 435.357 CURVE",
"418.28 435.357 OFFCURVE",
"418.28 355.643 OFFCURVE",
"453 355.643 CURVE",
"412.68 355.643 OFFCURVE",
"412.68 259.986 OFFCURVE",
"453 259.986 CURVE",
"450.379 315.224 OFFCURVE",
"366.379 311.238 OFFCURVE",
"369 256 CURVE",
"369 311.3 OFFCURVE",
"341 311.3 OFFCURVE",
"341 256 CURVE"
);
}
);
width = 1005;
},
{
anchors = (
{
name = bottom;
position = "{503, 0}";
},
{
name = top;
position = "{503, 700}";
}
);
associatedMasterId = "EC64484B-0978-4CB1-9EE9-C40A2D8C4059";
background = {
anchors = (
{
name = bottom;
position = "{503, 0}";
},
{
name = top;
position = "{503, 700}";
}
);
paths = (
{
closed = 1;
nodes = (
"211 0 LINE SMOOTH",
"237 0 OFFCURVE",
"246 14 OFFCURVE",
"250 25 CURVE SMOOTH",
"258 47 OFFCURVE",
"266 69 OFFCURVE",
"274 91 CURVE",
"423 91 LINE",
"423 27 LINE SMOOTH",
"423 12 OFFCURVE",
"435 0 OFFCURVE",
"450 0 CURVE SMOOTH",
"941 0 LINE SMOOTH",
"956 0 OFFCURVE",
"968 12 OFFCURVE",
"968 27 CURVE SMOOTH",
"968 168 LINE SMOOTH",
"968 183 OFFCURVE",
"956 195 OFFCURVE",
"941 195 CURVE SMOOTH",
"663 195 LINE",
"663 258 LINE",
"911 258 LINE SMOOTH",
"926 258 OFFCURVE",
"938 270 OFFCURVE",
"938 285 CURVE SMOOTH",
"938 415 LINE SMOOTH",
"938 430 OFFCURVE",
"926 442 OFFCURVE",
"911 442 CURVE SMOOTH",
"663 442 LINE",
"663 505 LINE",
"933 505 LINE SMOOTH",
"948 505 OFFCURVE",
"960 517 OFFCURVE",
"960 532 CURVE SMOOTH",
"960 673 LINE SMOOTH",
"960 688 OFFCURVE",
"948 700 OFFCURVE",
"933 700 CURVE SMOOTH",
"273 700 LINE SMOOTH",
"246 700 OFFCURVE",
"232 682 OFFCURVE",
"228 667 CURVE",
"154 454 OFFCURVE",
"79 242 OFFCURVE",
"5 29 CURVE SMOOTH",
"4 26 OFFCURVE",
"4 24 OFFCURVE",
"4 22 CURVE SMOOTH",
"4 10 OFFCURVE",
"14 0 OFFCURVE",
"26 0 CURVE SMOOTH"
);
},
{
closed = 1;
nodes = (
"391 505 LINE",
"423 505 LINE",
"423 286 LINE",
"325 286 LINE"
);
}
);
};
color = 6;
layerId = "0650BB00-F5D1-40A5-89C4-C1A75A24D72B";
name = "Jul 23 21, 16:38";
paths = (
{
closed = 1;
nodes = (
"211 0 LINE SMOOTH",
"237 0 OFFCURVE",
"246 14 OFFCURVE",
"250 25 CURVE SMOOTH",
"258 47 OFFCURVE",
"266 69 OFFCURVE",
"274 91 CURVE",
"423 91 LINE",
"423 27 LINE SMOOTH",
"423 12 OFFCURVE",
"435 0 OFFCURVE",
"450 0 CURVE SMOOTH",
"941 0 LINE SMOOTH",
"956 0 OFFCURVE",
"968 12 OFFCURVE",
"968 27 CURVE SMOOTH",
"968 168 LINE SMOOTH",
"968 183 OFFCURVE",
"956 195 OFFCURVE",
"941 195 CURVE SMOOTH",
"663 195 LINE",
"663 258 LINE",
"911 258 LINE SMOOTH",
"926 258 OFFCURVE",
"938 270 OFFCURVE",
"938 285 CURVE SMOOTH",
"938 415 LINE SMOOTH",
"938 430 OFFCURVE",
"926 442 OFFCURVE",
"911 442 CURVE SMOOTH",
"663 442 LINE",
"663 505 LINE",
"933 505 LINE SMOOTH",
"948 505 OFFCURVE",
"960 517 OFFCURVE",
"960 532 CURVE SMOOTH",
"960 673 LINE SMOOTH",
"960 688 OFFCURVE",
"948 700 OFFCURVE",
"933 700 CURVE SMOOTH",
"273 700 LINE SMOOTH",
"246 700 OFFCURVE",
"232 682 OFFCURVE",
"228 667 CURVE",
"154 454 OFFCURVE",
"79 242 OFFCURVE",
"5 29 CURVE SMOOTH",
"4 26 OFFCURVE",
"4 24 OFFCURVE",
"4 22 CURVE SMOOTH",
"4 10 OFFCURVE",
"14 0 OFFCURVE",
"26 0 CURVE SMOOTH"
);
},
{
closed = 1;
nodes = (
"391 505 LINE",
"423 505 LINE",
"423 286 LINE",
"325 286 LINE"
);
}
);
width = 1005;
}
);
leftKerningGroup = AE;
rightKerningGroup = E;
unicode = 00C6;
userData = {
com.typemytype.robofont.guides = (
{
angle = 0;
isGlobal = 0;
magnetic = 5;
x = 0;
y = 505;
},
{
angle = 90;
isGlobal = 0;
magnetic = 5;
x = 431;
y = 0;
}
);
};
},
{
color = 6;
glyphname = B;
layers = (
{
anchors = (
{
name = bottom;
position = "{367, 0}";
},
{
name = top;
position = "{367, 700}";
}
);
background = {
anchors = (
{
name = bottom;
position = "{367, 0}";
},
{
name = top;
position = "{367, 700}";
}
);
paths = (
{
closed = 1;
nodes = (
"424 0 LINE SMOOTH",
"605 0 OFFCURVE",
"706 70 OFFCURVE",
"706 220 CURVE SMOOTH",
"706 286 OFFCURVE",
"662 344 OFFCURVE",
"611 365 CURVE",
"643 381 OFFCURVE",
"691 426 OFFCURVE",
"691 490 CURVE SMOOTH",
"691 630 OFFCURVE",
"605 700 OFFCURVE",
"414 700 CURVE SMOOTH",
"82 700 LINE SMOOTH",
"67 700 OFFCURVE",
"55 688 OFFCURVE",
"55 673 CURVE SMOOTH",
"55 27 LINE SMOOTH",
"55 12 OFFCURVE",
"67 0 OFFCURVE",
"82 0 CURVE SMOOTH"
);
},
{
closed = 1;
nodes = (
"305 270 LINE",
"398 270 LINE SMOOTH",
"428 270 OFFCURVE",
"444 245 OFFCURVE",
"444 221 CURVE SMOOTH",
"444 199 OFFCURVE",
"431 172 OFFCURVE",
"398 172 CURVE SMOOTH",
"305 172 LINE"
);
},
{
closed = 1;
nodes = (
"305 528 LINE",
"389 528 LINE SMOOTH",
"418 528 OFFCURVE",
"430 503 OFFCURVE",
"430 482 CURVE SMOOTH",
"430 461 OFFCURVE",
"418 437 OFFCURVE",
"389 437 CURVE SMOOTH",
"305 437 LINE"
);
}
);
};
hints = (
{
horizontal = 1;
place = "{0, 0}";
type = Tag;
}
);
layerId = "EC64484B-0978-4CB1-9EE9-C40A2D8C4059";
paths = (
{
closed = 1;
nodes = (
"82 -32 OFFCURVE",
"209.256 -32 OFFCURVE",
"209.256 30 CURVE",
"209.256 -31 OFFCURVE",
"292.767 -31 OFFCURVE",
"292.767 30 CURVE",
"292.767 -43 OFFCURVE",
"400.14 -43 OFFCURVE",
"400.14 30 CURVE",
"408.332 -43.545 OFFCURVE",
"563.333 -26.28 OFFCURVE",
"555.141 47.266 CURVE",
"581.629 -15.364 OFFCURVE",
"618.64 0.29 OFFCURVE",
"592.153 62.919 CURVE",
"645.246 11.372 OFFCURVE",
"711.369 79.478 OFFCURVE",
"658.275 131.025 CURVE",
"733.791 115.982 OFFCURVE",
"751.516 204.956 OFFCURVE",
"676 220 CURVE",
"739.489 238.033 OFFCURVE",
"720.832 303.716 OFFCURVE",
"657.344 285.682 CURVE",
"684.124 333.034 OFFCURVE",
"571.69 396.624 OFFCURVE",
"544.909 349.273 CURVE",
"579.95 307.661 OFFCURVE",
"627.836 347.985 OFFCURVE",
"592.795 389.597 CURVE",
"639.508 330.92 OFFCURVE",
"683.773 366.16 OFFCURVE",
"637.06 424.836 CURVE",
"698.073 402.421 OFFCURVE",
"722.013 467.585 OFFCURVE",
"661 490 CURVE",
"732.061 506.714 OFFCURVE",
"709.252 603.686 OFFCURVE",
"638.191 586.972 CURVE",
"676.174 634.703 OFFCURVE",
"598.778 696.292 OFFCURVE",
"560.795 648.561 CURVE",
"579.176 714.029 OFFCURVE",
"532.637 727.096 OFFCURVE",
"514.256 661.627 CURVE",
"521.865 729.2 OFFCURVE",
"453.789 736.866 OFFCURVE",
"446.18 669.293 CURVE",
"446.778 747.291 OFFCURVE",
"354.598 747.998 OFFCURVE",
"354 670 CURVE",
"354 735 OFFCURVE",
"202 735 OFFCURVE",
"202 670 CURVE",
"202 748 OFFCURVE",
"90 748 OFFCURVE",
"90 670 CURVE",
"30.095 673.376 OFFCURVE",
"25.095 584.66 OFFCURVE",
"85 581.284 CURVE",
"14 581.284 OFFCURVE",
"14 517.481 OFFCURVE",
"85 517.481 CURVE",
"22 517.481 OFFCURVE",
"22 373.926 OFFCURVE",
"85 373.926 CURVE",
"17 373.926 OFFCURVE",
"17 270.247 OFFCURVE",
"85 270.247 CURVE",
"12 270.247 OFFCURVE",
"12 158.593 OFFCURVE",
"85 158.593 CURVE"
);
},
{
closed = 1;
nodes = (
"310.84 407 OFFCURVE",
"310.84 474.553 OFFCURVE",
"275 474.553 CURVE",
"316.44 474.553 OFFCURVE",
"316.44 530.184 OFFCURVE",
"275 530.184 CURVE",
"294.451 491.7 OFFCURVE",
"349.485 519.516 OFFCURVE",
"330.034 558 CURVE",
"328.482 513.787 OFFCURVE",
"407.792 511.002 OFFCURVE",
"409.345 555.215 CURVE",
"389.709 518.722 OFFCURVE",
"414.909 505.162 OFFCURVE",
"434.545 541.655 CURVE",
"402.285 528.818 OFFCURVE",
"427.649 465.075 OFFCURVE",
"459.909 477.912 CURVE",
"424.767 495.282 OFFCURVE",
"396.694 438.487 OFFCURVE",
"431.836 421.117 CURVE",
"423.337 461.104 OFFCURVE",
"356.915 446.987 OFFCURVE",
"365.414 407 CURVE",
"365.414 443.4 OFFCURVE",
"310.379 443.4 OFFCURVE",
"310.379 407 CURVE"
);
},
{
closed = 1;
nodes = (
"321.9 142 OFFCURVE",
"321.9 232.85 OFFCURVE",
"275 232.85 CURVE",
"321.831 210.713 OFFCURVE",
"353.573 277.863 OFFCURVE",
"306.742 300 CURVE",
"306.742 256.88 OFFCURVE",
"394.032 256.88 OFFCURVE",
"394.032 300 CURVE",
"369.354 268.826 OFFCURVE",
"447.619 206.868 OFFCURVE",
"472.298 238.042 CURVE",
"424.137 262.243 OFFCURVE",
"378.543 171.509 OFFCURVE",
"426.704 147.308 CURVE",
"423.765 180.779 OFFCURVE",
"363.319 175.471 OFFCURVE",
"366.258 142 CURVE",
"366.258 176.72 OFFCURVE",
"298.806 176.72 OFFCURVE",
"298.806 142 CURVE"
);
}
);
width = 734;
},
{
anchors = (
{
name = bottom;
position = "{367, 0}";
},
{
name = top;
position = "{367, 700}";
}
);
associatedMasterId = "EC64484B-0978-4CB1-9EE9-C40A2D8C4059";
background = {
anchors = (
{
name = bottom;
position = "{367, 0}";
},
{
name = top;
position = "{367, 700}";
}
);
paths = (
{
closed = 1;
nodes = (
"424 0 LINE SMOOTH",
"605 0 OFFCURVE",
"706 70 OFFCURVE",
"706 220 CURVE SMOOTH",
"706 286 OFFCURVE",
"662 344 OFFCURVE",
"611 365 CURVE",
"643 381 OFFCURVE",
"691 426 OFFCURVE",
"691 490 CURVE SMOOTH",
"691 630 OFFCURVE",
"605 700 OFFCURVE",
"414 700 CURVE SMOOTH",
"82 700 LINE SMOOTH",
"67 700 OFFCURVE",
"55 688 OFFCURVE",
"55 673 CURVE SMOOTH",
"55 27 LINE SMOOTH",
"55 12 OFFCURVE",
"67 0 OFFCURVE",
"82 0 CURVE SMOOTH"
);
},
{
closed = 1;
nodes = (
"305 270 LINE",
"398 270 LINE SMOOTH",
"428 270 OFFCURVE",
"444 245 OFFCURVE",
"444 221 CURVE SMOOTH",
"444 199 OFFCURVE",
"431 172 OFFCURVE",
"398 172 CURVE SMOOTH",
"305 172 LINE"
);
},
{
closed = 1;
nodes = (
"305 528 LINE",
"389 528 LINE SMOOTH",
"418 528 OFFCURVE",
"430 503 OFFCURVE",
"430 482 CURVE SMOOTH",
"430 461 OFFCURVE",
"418 437 OFFCURVE",
"389 437 CURVE SMOOTH",
"305 437 LINE"
);
}
);
};
color = 6;
hints = (
{
horizontal = 1;
place = "{0, 0}";
type = Tag;
}
);
layerId = "FEB33C8C-2502-479E-B1E9-835223D6DF6A";
name = "Jul 23 21, 16:38";
paths = (
{
closed = 1;
nodes = (
"424 0 LINE SMOOTH",
"605 0 OFFCURVE",
"706 70 OFFCURVE",
"706 220 CURVE SMOOTH",
"706 286 OFFCURVE",
"662 344 OFFCURVE",
"611 365 CURVE",
"643 381 OFFCURVE",
"691 426 OFFCURVE",
"691 490 CURVE SMOOTH",
"691 630 OFFCURVE",
"605 700 OFFCURVE",
"414 700 CURVE SMOOTH",
"82 700 LINE SMOOTH",
"67 700 OFFCURVE",
"55 688 OFFCURVE",
"55 673 CURVE SMOOTH",
"55 27 LINE SMOOTH",
"55 12 OFFCURVE",
"67 0 OFFCURVE",
"82 0 CURVE SMOOTH"
);
},
{
closed = 1;
nodes = (
"305 270 LINE",
"398 270 LINE SMOOTH",
"428 270 OFFCURVE",
"444 245 OFFCURVE",
"444 221 CURVE SMOOTH",
"444 199 OFFCURVE",
"431 172 OFFCURVE",
"398 172 CURVE SMOOTH",
"305 172 LINE"
);
},
{
closed = 1;
nodes = (
"305 528 LINE",
"389 528 LINE SMOOTH",
"418 528 OFFCURVE",
"430 503 OFFCURVE",
"430 482 CURVE SMOOTH",
"430 461 OFFCURVE",
"418 437 OFFCURVE",
"389 437 CURVE SMOOTH",
"305 437 LINE"
);
}
);
width = 734;
}
);
leftKerningGroup = I;
unicode = 0042;
userData = {
com.typemytype.robofont.guides = (
{
angle = 0;
isGlobal = 0;
magnetic = 5;
x = 0;
y = 271;
},
{
angle = 0;
isGlobal = 0;
magnetic = 5;
x = 0;
y = 437;
},
{
angle = 0;
isGlobal = 0;
magnetic = 5;
x = 0;
y = 521;
},
{
angle = 0;
isGlobal = 0;
magnetic = 5;
x = 0;
y = 198;
},
{
angle = 0;
isGlobal = 0;
magnetic = 5;
x = 0;
y = 9;
},
{
angle = 90;
isGlobal = 0;
magnetic = 5;
x = 355;
y = 0;
},
{
angle = 90;
isGlobal = 0;
magnetic = 5;
x = 583;
y = 0;
},
{
angle = 90;
isGlobal = 0;
magnetic = 5;
x = 94;
y = 0;
}
);
};
},
{
color = 6;
glyphname = C;
layers = (
{
anchors = (
{
name = bottom;
position = "{367, 0}";
},
{
name = top;
position = "{367, 700}";
}
);
background = {
anchors = (
{
name = bottom;
position = "{367, 0}";
},
{
name = top;
position = "{367, 700}";
}
);
paths = (
{
closed = 1;
nodes = (
"542 -10 OFFCURVE",
"706 64 OFFCURVE",
"709 246 CURVE SMOOTH",
"709 258 OFFCURVE",
"699 268 OFFCURVE",
"687 268 CURVE",
"483 268 LINE",
"461 268 OFFCURVE",
"453 262 OFFCURVE",
"446 239 CURVE SMOOTH",
"433 199 OFFCURVE",
"405 185 OFFCURVE",
"371 185 CURVE SMOOTH",
"327 185 OFFCURVE",
"299 205 OFFCURVE",
"297 266 CURVE SMOOTH",
"295 323 OFFCURVE",
"295 379 OFFCURVE",
"297 434 CURVE",
"299 495 OFFCURVE",
"327 515 OFFCURVE",
"371 515 CURVE SMOOTH",
"405 515 OFFCURVE",
"431 504 OFFCURVE",
"446 461 CURVE SMOOTH",
"454 439 OFFCURVE",
"461 432 OFFCURVE",
"483 432 CURVE",
"687 432 LINE",
"699 432 OFFCURVE",
"709 442 OFFCURVE",
"709 454 CURVE SMOOTH",
"706 636 OFFCURVE",
"542 710 OFFCURVE",
"372 710 CURVE SMOOTH",
"185 710 OFFCURVE",
"45 625 OFFCURVE",
"37 439 CURVE",
"35 382 OFFCURVE",
"35 315 OFFCURVE",
"37 261 CURVE",
"45 70 OFFCURVE",
"180 -10 OFFCURVE",
"372 -10 CURVE SMOOTH"
);
}
);
};
layerId = "EC64484B-0978-4CB1-9EE9-C40A2D8C4059";
paths = (
{
closed = 1;
nodes = (
"377.358 -50.798 OFFCURVE",
"461.145 -44.456 OFFCURVE",
"455.787 26.341 CURVE",
"468.378 -32.323 OFFCURVE",
"511.435 -23.082 OFFCURVE",
"498.844 35.582 CURVE",
"526.787 -17.514 OFFCURVE",
"642.629 43.452 OFFCURVE",
"614.686 96.548 CURVE",
"665.959 63.501 OFFCURVE",
"719.618 146.755 OFFCURVE",
"668.345 179.802 CURVE",
"724.907 184.996 OFFCURVE",
"719.562 243.195 OFFCURVE",
"663 238 CURVE",
"663 316 OFFCURVE",
"563 316 OFFCURVE",
"563 238 CURVE",
"549.34 293.957 OFFCURVE",
"455.368 271.016 OFFCURVE",
"469.028 215.06 CURVE",
"434.499 281.638 OFFCURVE",
"320.279 222.401 OFFCURVE",
"354.808 155.823 CURVE",
"373.686 221.15 OFFCURVE",
"334.968 232.338 OFFCURVE",
"316.09 167.011 CURVE",
"379.685 193.783 OFFCURVE",
"329.981 311.853 OFFCURVE",
"266.386 285.082 CURVE",
"341.378 286.176 OFFCURVE",
"340.499 346.441 OFFCURVE",
"265.507 345.347 CURVE",
"333.506 344.939 OFFCURVE",
"333.747 385.12 OFFCURVE",
"265.748 385.528 CURVE",
"339.687 382.535 OFFCURVE",
"342.508 452.229 OFFCURVE",
"268.569 455.222 CURVE",
"313.659 401.679 OFFCURVE",
"420.207 491.405 OFFCURVE",
"375.117 544.949 CURVE",
"362.139 474.128 OFFCURVE",
"402.44 466.743 OFFCURVE",
"415.418 537.564 CURVE",
"370.66 485.049 OFFCURVE",
"416.774 445.747 OFFCURVE",
"461.532 498.261 CURVE",
"421.475 456.871 OFFCURVE",
"458.943 420.609 OFFCURVE",
"499 462 CURVE",
"499 402 OFFCURVE",
"643 402 OFFCURVE",
"643 462 CURVE",
"643.118 396 OFFCURVE",
"678.873 396.064 OFFCURVE",
"678.755 462.064 CURVE",
"737.235 479.416 OFFCURVE",
"707.728 578.862 OFFCURVE",
"649.248 561.51 CURVE",
"693.457 602.076 OFFCURVE",
"641.95 658.207 OFFCURVE",
"597.741 617.641 CURVE",
"626.414 691.254 OFFCURVE",
"481.337 747.763 OFFCURVE",
"452.665 674.15 CURVE",
"455.85 741.074 OFFCURVE",
"347.017 746.254 OFFCURVE",
"343.832 679.33 CURVE",
"328.847 747.707 OFFCURVE",
"188.132 716.869 OFFCURVE",
"203.117 648.492 CURVE",
"165.648 697.889 OFFCURVE",
"79.868 632.823 OFFCURVE",
"117.336 583.426 CURVE",
"63.661 602.005 OFFCURVE",
"13.324 456.579 OFFCURVE",
"67 438 CURVE",
"5.003 438.612 OFFCURVE",
"3.76 312.622 OFFCURVE",
"65.757 312.01 CURVE",
"-5.102 307.537 OFFCURVE",
"0.815 213.801 OFFCURVE",
"71.674 218.274 CURVE",
"6.691 201.959 OFFCURVE",
"16.422 163.197 OFFCURVE",
"81.406 179.511 CURVE",
"31.921 145.58 OFFCURVE",
"98.839 47.986 OFFCURVE",
"148.324 81.916 CURVE",
"112.141 23.164 OFFCURVE",
"159.713 -6.133 OFFCURVE",
"195.895 52.62 CURVE",
"178.002 -12.984 OFFCURVE",
"281.792 -41.292 OFFCURVE",
"299.685 24.311 CURVE"
);
}
);
width = 733;
},
{
anchors = (
{
name = bottom;
position = "{367, 0}";
},
{
name = top;
position = "{367, 700}";
}
);
associatedMasterId = "EC64484B-0978-4CB1-9EE9-C40A2D8C4059";
background = {
anchors = (
{
name = bottom;
position = "{367, 0}";
},
{
name = top;
position = "{367, 700}";
}
);
paths = (
{
closed = 1;
nodes = (
"542 -10 OFFCURVE",
"706 64 OFFCURVE",
"709 246 CURVE SMOOTH",
"709 258 OFFCURVE",
"699 268 OFFCURVE",
"687 268 CURVE",
"483 268 LINE",
"461 268 OFFCURVE",
"453 262 OFFCURVE",
"446 239 CURVE SMOOTH",
"433 199 OFFCURVE",
"405 185 OFFCURVE",
"371 185 CURVE SMOOTH",
"327 185 OFFCURVE",
"299 205 OFFCURVE",
"297 266 CURVE SMOOTH",
"295 323 OFFCURVE",
"295 379 OFFCURVE",
"297 434 CURVE",
"299 495 OFFCURVE",
"327 515 OFFCURVE",
"371 515 CURVE SMOOTH",
"405 515 OFFCURVE",
"431 504 OFFCURVE",
"446 461 CURVE SMOOTH",
"454 439 OFFCURVE",
"461 432 OFFCURVE",
"483 432 CURVE",
"687 432 LINE",
"699 432 OFFCURVE",
"709 442 OFFCURVE",
"709 454 CURVE SMOOTH",
"706 636 OFFCURVE",
"542 710 OFFCURVE",
"372 710 CURVE SMOOTH",
"185 710 OFFCURVE",
"45 625 OFFCURVE",
"37 439 CURVE",
"35 382 OFFCURVE",
"35 315 OFFCURVE",
"37 261 CURVE",
"45 70 OFFCURVE",
"180 -10 OFFCURVE",
"372 -10 CURVE SMOOTH"
);
}
);
};
color = 6;
layerId = "F915653E-7DBB-42AB-8E5E-2423796913F0";
name = "Jul 23 21, 16:38";
paths = (
{
closed = 1;
nodes = (
"542 -10 OFFCURVE",
"706 64 OFFCURVE",
"709 246 CURVE SMOOTH",
"709 258 OFFCURVE",
"699 268 OFFCURVE",
"687 268 CURVE",
"483 268 LINE",
"461 268 OFFCURVE",
"453 262 OFFCURVE",
"446 239 CURVE SMOOTH",
"433 199 OFFCURVE",
"405 185 OFFCURVE",
"371 185 CURVE SMOOTH",
"327 185 OFFCURVE",
"299 205 OFFCURVE",
"297 266 CURVE SMOOTH",
"295 323 OFFCURVE",
"295 379 OFFCURVE",
"297 434 CURVE",
"299 495 OFFCURVE",
"327 515 OFFCURVE",
"371 515 CURVE SMOOTH",
"405 515 OFFCURVE",
"431 504 OFFCURVE",
"446 461 CURVE SMOOTH",
"454 439 OFFCURVE",
"461 432 OFFCURVE",
"483 432 CURVE",
"687 432 LINE",
"699 432 OFFCURVE",
"709 442 OFFCURVE",
"709 454 CURVE SMOOTH",
"706 636 OFFCURVE",
"542 710 OFFCURVE",
"372 710 CURVE SMOOTH",
"185 710 OFFCURVE",
"45 625 OFFCURVE",
"37 439 CURVE",
"35 382 OFFCURVE",
"35 315 OFFCURVE",
"37 261 CURVE",
"45 70 OFFCURVE",
"180 -10 OFFCURVE",
"372 -10 CURVE SMOOTH"
);
}
);
width = 733;
}
);
leftKerningGroup = O;
rightKerningGroup = C;
unicode = 0043;
userData = {
com.typemytype.robofont.guides = (
{
angle = 0;
isGlobal = 0;
magnetic = 5;
x = 0;
y = 434;
},
{
angle = 0;
isGlobal = 0;
magnetic = 5;
x = 0;
y = 266;
},
{
angle = 0;
isGlobal = 0;
magnetic = 5;
x = 0;
y = 710;
},
{
angle = 0;
isGlobal = 0;
magnetic = 5;
x = 0;
y = "-10";
},
{
angle = 90;
isGlobal = 0;
magnetic = 5;
x = 599;
y = 0;
},
{
angle = 90;
isGlobal = 0;
magnetic = 5;
x = 209;
y = 0;
},
{
angle = 90;
isGlobal = 0;
magnetic = 5;
x = 149;
y = 0;
},
{
angle = 90;
isGlobal = 0;
magnetic = 5;
x = 332;
y = 0;
}
);
};
},
{
color = 6;
glyphname = Ccedilla;
layers = (
{
background = {
paths = (
{
closed = 1;
nodes = (
"426 -220 OFFCURVE",
"465 -183 OFFCURVE",
"465 -130 CURVE SMOOTH",
"465 -77 OFFCURVE",
"435 -40 OFFCURVE",
"384 -40 CURVE SMOOTH",
"380 -40 OFFCURVE",
"362 -42 OFFCURVE",
"354 -45 CURVE",
"372 -10 LINE",
"542 -10 OFFCURVE",
"706 64 OFFCURVE",
"709 246 CURVE SMOOTH",
"709 258 OFFCURVE",
"699 268 OFFCURVE",
"687 268 CURVE",
"483 268 LINE",
"461 268 OFFCURVE",
"453 262 OFFCURVE",
"446 239 CURVE SMOOTH",
"433 199 OFFCURVE",
"405 185 OFFCURVE",
"371 185 CURVE SMOOTH",
"327 185 OFFCURVE",
"299 205 OFFCURVE",
"297 266 CURVE SMOOTH",
"295 323 OFFCURVE",
"295 379 OFFCURVE",
"297 434 CURVE SMOOTH",
"299 495 OFFCURVE",
"327 515 OFFCURVE",
"371 515 CURVE SMOOTH",
"405 515 OFFCURVE",
"431 504 OFFCURVE",
"446 461 CURVE SMOOTH",
"454 439 OFFCURVE",
"461 432 OFFCURVE",
"483 432 CURVE",
"687 432 LINE",
"699 432 OFFCURVE",
"709 442 OFFCURVE",
"709 454 CURVE SMOOTH",
"706 636 OFFCURVE",
"542 710 OFFCURVE",
"372 710 CURVE SMOOTH",
"185 710 OFFCURVE",
"45 625 OFFCURVE",
"37 439 CURVE SMOOTH",
"35 382 OFFCURVE",
"35 315 OFFCURVE",
"37 261 CURVE SMOOTH",
"44 91 OFFCURVE",
"151 10 OFFCURVE",
"309 -6 CURVE",
"289 -52 LINE",
"280 -71 OFFCURVE",
"282 -76 OFFCURVE",
"291 -85 CURVE",
"312 -106 LINE",
"325 -119 OFFCURVE",
"348 -106 OFFCURVE",
"366 -106 CURVE SMOOTH",
"386 -106 OFFCURVE",
"394 -118 OFFCURVE",
"394 -130 CURVE SMOOTH",
"394 -142 OFFCURVE",
"385 -154 OFFCURVE",
"366 -154 CURVE SMOOTH",
"332 -154 OFFCURVE",
"327 -136 OFFCURVE",
"310 -151 CURVE",
"289 -169 LINE",
"266 -189 OFFCURVE",
"313 -220 OFFCURVE",
"366 -220 CURVE SMOOTH"
);
}
);
};
hints = (
{
horizontal = 1;
place = "{0, 0}";
type = Tag;
}
);
layerId = "EC64484B-0978-4CB1-9EE9-C40A2D8C4059";
paths = (
{
closed = 1;
nodes = (
"420.596 -218.528 OFFCURVE",
"475.575 -113.311 OFFCURVE",
"420.979 -84.783 CURVE",
"432.745 -38.247 OFFCURVE",
"381.472 -25.284 OFFCURVE",
"369.706 -71.819 CURVE",
"443.034 -81.774 OFFCURVE",
"455.486 9.954 OFFCURVE",
"382.159 19.908 CURVE",
"394.664 -55.056 OFFCURVE",
"536.889 -31.331 OFFCURVE",
"524.384 43.633 CURVE",
"556.625 -21.861 OFFCURVE",
"617.832 8.27 OFFCURVE",
"585.59 73.764 CURVE",
"637.323 16.731 OFFCURVE",
"687.762 62.483 OFFCURVE",
"636.029 119.516 CURVE",
"694.232 95.403 OFFCURVE",
"735.284 194.495 OFFCURVE",
"677.081 218.608 CURVE",
"701.188 270.92 OFFCURVE",
"659.107 290.313 OFFCURVE",
"635 238 CURVE",
"635 304 OFFCURVE",
"595 304 OFFCURVE",
"595 238 CURVE",
"595 303 OFFCURVE",
"499 303 OFFCURVE",
"499 238 CURVE",
"457.618 284.169 OFFCURVE",
"374.054 209.269 OFFCURVE",
"415.436 163.1 CURVE",
"404.789 227.222 OFFCURVE",
"356.298 219.171 OFFCURVE",
"366.944 155.049 CURVE",
"381.648 223.487 OFFCURVE",
"334.42 233.634 OFFCURVE",
"319.716 165.195 CURVE",
"391.05 194.187 OFFCURVE",
"337.428 326.124 OFFCURVE",
"266.094 297.133 CURVE",
"327.093 296.732 OFFCURVE",
"327.999 434.599 OFFCURVE",
"267 435 CURVE",
"317.708 402.926 OFFCURVE",
"384.127 507.934 OFFCURVE",
"333.419 540.008 CURVE",
"335.728 470.046 OFFCURVE",
"401.941 472.231 OFFCURVE",
"399.631 542.193 CURVE",
"347.638 488.141 OFFCURVE",
"431.006 407.947 OFFCURVE",
"483 462 CURVE",
"483 401 OFFCURVE",
"523 401 OFFCURVE",
"523 462 CURVE",
"523 390 OFFCURVE",
"615 390 OFFCURVE",
"615 462 CURVE",
"647.057 420.045 OFFCURVE",
"704.515 463.949 OFFCURVE",
"672.458 505.903 CURVE",
"735.059 529.782 OFFCURVE",
"717.853 574.888 OFFCURVE",
"655.253 551.009 CURVE",
"718.601 596.517 OFFCURVE",
"688.103 638.97 OFFCURVE",
"624.755 593.461 CURVE",
"656.17 648.07 OFFCURVE",
"535.272 717.618 OFFCURVE",
"503.858 663.009 CURVE",
"518.742 731.409 OFFCURVE",
"467.549 742.549 OFFCURVE",
"452.665 674.15 CURVE",
"453.223 750.148 OFFCURVE",
"300.315 751.27 OFFCURVE",
"299.756 675.272 CURVE",
"286.475 733.784 OFFCURVE",
"219.836 718.658 OFFCURVE",
"233.118 660.146 CURVE",
"198.904 728.009 OFFCURVE",
"123.741 690.115 OFFCURVE",
"157.955 622.252 CURVE",
"115.62 652.446 OFFCURVE",
"37.491 542.903 OFFCURVE",
"79.826 512.708 CURVE",
"17.09 518.466 OFFCURVE",
"2.774 362.479 OFFCURVE",
"65.51 356.721 CURVE",
"-5.487 356.049 OFFCURVE",
"-4.871 291.017 OFFCURVE",
"66.126 291.689 CURVE",
"1.591 283.928 OFFCURVE",
"14.214 178.967 OFFCURVE",
"78.749 186.729 CURVE",
"37.574 154.969 OFFCURVE",
"131.002 33.842 OFFCURVE",
"172.177 65.601 CURVE",
"146.373 -8.007 OFFCURVE",
"252.018 -45.042 OFFCURVE",
"277.822 28.566 CURVE",
"265.441 -33.205 OFFCURVE",
"338.536 -47.855 OFFCURVE",
"350.917 13.917 CURVE",
"298.134 15.26 OFFCURVE",
"295.786 -76.972 OFFCURVE",
"348.569 -78.315 CURVE",
"299.592 -126.918 OFFCURVE",
"371.121 -198.997 OFFCURVE",
"420.098 -150.394 CURVE",
"402.828 -96.283 OFFCURVE",
"302.23 -128.389 OFFCURVE",
"319.5 -182.5 CURVE"
);
}
);
width = 733;
},
{
associatedMasterId = "EC64484B-0978-4CB1-9EE9-C40A2D8C4059";
background = {
paths = (
{
closed = 1;
nodes = (
"426 -220 OFFCURVE",
"465 -183 OFFCURVE",
"465 -130 CURVE SMOOTH",
"465 -77 OFFCURVE",
"435 -40 OFFCURVE",
"384 -40 CURVE SMOOTH",
"380 -40 OFFCURVE",
"362 -42 OFFCURVE",
"354 -45 CURVE",
"372 -10 LINE",
"542 -10 OFFCURVE",
"706 64 OFFCURVE",
"709 246 CURVE SMOOTH",
"709 258 OFFCURVE",
"699 268 OFFCURVE",
"687 268 CURVE",
"483 268 LINE",
"461 268 OFFCURVE",
"453 262 OFFCURVE",
"446 239 CURVE SMOOTH",
"433 199 OFFCURVE",
"405 185 OFFCURVE",
"371 185 CURVE SMOOTH",
"327 185 OFFCURVE",
"299 205 OFFCURVE",
"297 266 CURVE SMOOTH",
"295 323 OFFCURVE",
"295 379 OFFCURVE",
"297 434 CURVE SMOOTH",
"299 495 OFFCURVE",
"327 515 OFFCURVE",
"371 515 CURVE SMOOTH",
"405 515 OFFCURVE",
"431 504 OFFCURVE",
"446 461 CURVE SMOOTH",
"454 439 OFFCURVE",
"461 432 OFFCURVE",
"483 432 CURVE",
"687 432 LINE",
"699 432 OFFCURVE",
"709 442 OFFCURVE",
"709 454 CURVE SMOOTH",
"706 636 OFFCURVE",
"542 710 OFFCURVE",
"372 710 CURVE SMOOTH",
"185 710 OFFCURVE",
"45 625 OFFCURVE",
"37 439 CURVE SMOOTH",
"35 382 OFFCURVE",
"35 315 OFFCURVE",
"37 261 CURVE SMOOTH",
"44 91 OFFCURVE",
"151 10 OFFCURVE",
"309 -6 CURVE",
"289 -52 LINE",
"280 -71 OFFCURVE",
"282 -76 OFFCURVE",
"291 -85 CURVE",
"312 -106 LINE",
"325 -119 OFFCURVE",
"348 -106 OFFCURVE",
"366 -106 CURVE SMOOTH",
"386 -106 OFFCURVE",
"394 -118 OFFCURVE",
"394 -130 CURVE SMOOTH",
"394 -142 OFFCURVE",
"385 -154 OFFCURVE",
"366 -154 CURVE SMOOTH",
"332 -154 OFFCURVE",
"327 -136 OFFCURVE",
"310 -151 CURVE",
"289 -169 LINE",
"266 -189 OFFCURVE",
"313 -220 OFFCURVE",
"366 -220 CURVE SMOOTH"
);
}
);
};
color = 6;
hints = (
{
horizontal = 1;
place = "{0, 0}";
type = Tag;
}
);
layerId = "6992C6F7-D3C2-42AA-8CAB-6CCDFF67A75E";
name = "Jul 23 21, 16:38";
paths = (
{
closed = 1;
nodes = (
"426 -220 OFFCURVE",
"465 -183 OFFCURVE",
"465 -130 CURVE SMOOTH",
"465 -77 OFFCURVE",
"435 -40 OFFCURVE",
"384 -40 CURVE SMOOTH",
"380 -40 OFFCURVE",
"362 -42 OFFCURVE",
"354 -45 CURVE",
"372 -10 LINE",
"542 -10 OFFCURVE",
"706 64 OFFCURVE",
"709 246 CURVE SMOOTH",
"709 258 OFFCURVE",
"699 268 OFFCURVE",
"687 268 CURVE",
"483 268 LINE",
"461 268 OFFCURVE",
"453 262 OFFCURVE",
"446 239 CURVE SMOOTH",
"433 199 OFFCURVE",
"405 185 OFFCURVE",
"371 185 CURVE SMOOTH",
"327 185 OFFCURVE",
"299 205 OFFCURVE",
"297 266 CURVE SMOOTH",
"295 323 OFFCURVE",
"295 379 OFFCURVE",
"297 434 CURVE SMOOTH",
"299 495 OFFCURVE",
"327 515 OFFCURVE",
"371 515 CURVE SMOOTH",
"405 515 OFFCURVE",
"431 504 OFFCURVE",
"446 461 CURVE SMOOTH",
"454 439 OFFCURVE",
"461 432 OFFCURVE",
"483 432 CURVE",
"687 432 LINE",
"699 432 OFFCURVE",
"709 442 OFFCURVE",
"709 454 CURVE SMOOTH",
"706 636 OFFCURVE",
"542 710 OFFCURVE",
"372 710 CURVE SMOOTH",
"185 710 OFFCURVE",
"45 625 OFFCURVE",
"37 439 CURVE SMOOTH",
"35 382 OFFCURVE",
"35 315 OFFCURVE",
"37 261 CURVE SMOOTH",
"44 91 OFFCURVE",
"151 10 OFFCURVE",
"309 -6 CURVE",
"289 -52 LINE",
"280 -71 OFFCURVE",
"282 -76 OFFCURVE",
"291 -85 CURVE",
"312 -106 LINE",
"325 -119 OFFCURVE",
"348 -106 OFFCURVE",
"366 -106 CURVE SMOOTH",
"386 -106 OFFCURVE",
"394 -118 OFFCURVE",
"394 -130 CURVE SMOOTH",
"394 -142 OFFCURVE",
"385 -154 OFFCURVE",
"366 -154 CURVE SMOOTH",
"332 -154 OFFCURVE",
"327 -136 OFFCURVE",
"310 -151 CURVE",
"289 -169 LINE",
"266 -189 OFFCURVE",
"313 -220 OFFCURVE",
"366 -220 CURVE SMOOTH"
);
}
);
width = 733;
}
);
leftKerningGroup = O;
rightKerningGroup = C;
unicode = 00C7;
userData = {
com.typemytype.robofont.guides = (
{
angle = 0;
isGlobal = 0;
magnetic = 5;
x = 0;
y = "-174";
},
{
angle = 0;
isGlobal = 0;
magnetic = 5;
x = 0;
y = "-220";
},
{
angle = 0;
isGlobal = 0;
magnetic = 5;
x = 0;
y = "-96";
},
{
angle = 0;
isGlobal = 0;
magnetic = 5;
x = 0;
y = "-50";
},
{
angle = 0;
isGlobal = 0;
magnetic = 5;
x = 0;
y = "-135";
},
{
angle = 90;
isGlobal = 0;
magnetic = 5;
x = 331;
y = 0;
},
{
angle = 90;
isGlobal = 0;
magnetic = 5;
x = 342;
y = 0;
}
);
};
},
{
color = 6;
glyphname = D;
layers = (
{
anchors = (
{
name = bottom;
position = "{370, 0}";
},
{
name = center;
position = "{370, 350}";
},
{
name = top;
position = "{364, 700}";
}
);
background = {
anchors = (
{
name = bottom;
position = "{370, 0}";
},
{
name = center;
position = "{370, 350}";
},
{
name = top;
position = "{364, 700}";
}
);
paths = (
{
closed = 1;
nodes = (
"375 0 LINE SMOOTH",
"566 0 OFFCURVE",
"696 87 OFFCURVE",
"704 276 CURVE SMOOTH",
"706 330 OFFCURVE",
"706 368 OFFCURVE",
"704 425 CURVE SMOOTH",
"697 604 OFFCURVE",
"557 700 OFFCURVE",
"370 700 CURVE",
"82 700 LINE SMOOTH",
"67 700 OFFCURVE",
"55 688 OFFCURVE",
"55 673 CURVE SMOOTH",
"55 27 LINE SMOOTH",
"55 12 OFFCURVE",
"67 0 OFFCURVE",
"82 0 CURVE SMOOTH"
);
},
{
closed = 1;
nodes = (
"305 505 LINE",
"365 505 LINE SMOOTH",
"410 505 OFFCURVE",
"447 481 OFFCURVE",
"450 425 CURVE SMOOTH",
"453 370 OFFCURVE",
"453 333 OFFCURVE",
"450 276 CURVE SMOOTH",
"447 220 OFFCURVE",
"414 195 OFFCURVE",
"370 195 CURVE SMOOTH",
"305 195 LINE"
);
}
);
};
hints = (
{
horizontal = 1;
place = "{0, 0}";
type = Tag;
}
);
layerId = "EC64484B-0978-4CB1-9EE9-C40A2D8C4059";
paths = (
{
closed = 1;
nodes = (
"82 -32 OFFCURVE",
"232.459 -32 OFFCURVE",
"232.459 30 CURVE",
"232.483 -38 OFFCURVE",
"383.078 -37.947 OFFCURVE",
"383.054 30.053 CURVE",
"388.085 -31.743 OFFCURVE",
"460.259 -25.867 OFFCURVE",
"455.228 35.929 CURVE",
"475.412 -11.995 OFFCURVE",
"614.67 46.656 OFFCURVE",
"594.487 94.579 CURVE",
"644.154 48.134 OFFCURVE",
"677.079 83.344 OFFCURVE",
"627.412 129.789 CURVE",
"683.959 109.729 OFFCURVE",
"729.17 237.176 OFFCURVE",
"672.623 257.235 CURVE",
"733.559 254.455 OFFCURVE",
"735.938 306.593 OFFCURVE",
"675.002 309.373 CURVE",
"745.986 310.86 OFFCURVE",
"743.082 449.532 OFFCURVE",
"672.097 448.045 CURVE",
"740.69 462.01 OFFCURVE",
"731.876 505.305 OFFCURVE",
"663.283 491.341 CURVE",
"716.772 524.625 OFFCURVE",
"651.751 629.115 OFFCURVE",
"598.262 595.831 CURVE",
"636.044 659.458 OFFCURVE",
"550.132 710.473 OFFCURVE",
"512.35 646.845 CURVE",
"530.388 710.333 OFFCURVE",
"480.153 724.606 OFFCURVE",
"462.115 661.119 CURVE",
"469.291 738.788 OFFCURVE",
"373.177 747.669 OFFCURVE",
"366 670 CURVE",
"366 740 OFFCURVE",
"226 740 OFFCURVE",
"226 670 CURVE",
"226 732 OFFCURVE",
"142 732 OFFCURVE",
"142 670 CURVE",
"102.578 702.671 OFFCURVE",
"45.578 633.893 OFFCURVE",
"85 601.222 CURVE",
"21 601.222 OFFCURVE",
"21 477.605 OFFCURVE",
"85 477.605 CURVE",
"14 477.605 OFFCURVE",
"14 413.802 OFFCURVE",
"85 413.802 CURVE",
"6 413.802 OFFCURVE",
"6 342.025 OFFCURVE",
"85 342.025 CURVE",
"17 342.025 OFFCURVE",
"17 230.37 OFFCURVE",
"85 230.37 CURVE",
"22 230.37 OFFCURVE",
"22 182.519 OFFCURVE",
"85 182.519 CURVE",
"15 182.519 OFFCURVE",
"15 134.667 OFFCURVE",
"85 134.667 CURVE",
"15 134.667 OFFCURVE",
"15 46.938 OFFCURVE",
"85 46.938 CURVE"
);
},
{
closed = 1;
nodes = (
"308.6 165 OFFCURVE",
"308.6 208.763 OFFCURVE",
"275 208.763 CURVE",
"327.5 208.763 OFFCURVE",
"327.5 272.419 OFFCURVE",
"275 272.419 CURVE",
"321.9 272.419 OFFCURVE",
"321.9 379.839 OFFCURVE",
"275 379.839 CURVE",
"322.6 379.839 OFFCURVE",
"322.6 487.258 OFFCURVE",
"275 487.258 CURVE",
"314.2 487.258 OFFCURVE",
"314.2 515.108 OFFCURVE",
"275 515.108 CURVE",
"299.787 471.224 OFFCURVE",
"335.005 491.117 OFFCURVE",
"310.217 535 CURVE",
"310.217 486.7 OFFCURVE",
"365 486.7 OFFCURVE",
"365 535 CURVE",
"354.244 494.401 OFFCURVE",
"420.12 476.948 OFFCURVE",
"430.876 517.547 CURVE",
"400.778 486.28 OFFCURVE",
"429.839 458.305 OFFCURVE",
"459.938 489.572 CURVE",
"410.215 470.655 OFFCURVE",
"428.835 421.712 OFFCURVE",
"478.558 440.629 CURVE",
"426.823 438.042 OFFCURVE",
"430.372 367.046 OFFCURVE",
"482.108 369.633 CURVE",
"427.528 371.102 OFFCURVE",
"424.734 267.328 OFFCURVE",
"479.314 265.858 CURVE",
"432.017 294.513 OFFCURVE",
"379.132 207.221 OFFCURVE",
"426.43 178.567 CURVE",
"417.332 221.718 OFFCURVE",
"352.985 208.151 OFFCURVE",
"362.083 165 CURVE",
"362.083 215.4 OFFCURVE",
"326.458 215.4 OFFCURVE",
"326.458 165 CURVE",
"326.458 216.1 OFFCURVE",
"294.792 216.1 OFFCURVE",
"294.792 165 CURVE"
);
}
);
width = 740;
},
{
anchors = (
{
name = bottom;
position = "{370, 0}";
},
{
name = center;
position = "{370, 350}";
},
{
name = top;
position = "{364, 700}";
}
);
associatedMasterId = "EC64484B-0978-4CB1-9EE9-C40A2D8C4059";
background = {
anchors = (
{
name = bottom;
position = "{370, 0}";
},
{
name = center;
position = "{370, 350}";
},
{
name = top;
position = "{364, 700}";
}
);
paths = (
{
closed = 1;
nodes = (
"375 0 LINE SMOOTH",
"566 0 OFFCURVE",
"696 87 OFFCURVE",
"704 276 CURVE SMOOTH",
"706 330 OFFCURVE",
"706 368 OFFCURVE",
"704 425 CURVE SMOOTH",
"697 604 OFFCURVE",
"557 700 OFFCURVE",
"370 700 CURVE",
"82 700 LINE SMOOTH",
"67 700 OFFCURVE",
"55 688 OFFCURVE",
"55 673 CURVE SMOOTH",
"55 27 LINE SMOOTH",
"55 12 OFFCURVE",
"67 0 OFFCURVE",
"82 0 CURVE SMOOTH"
);
},
{
closed = 1;
nodes = (
"305 505 LINE",
"365 505 LINE SMOOTH",
"410 505 OFFCURVE",
"447 481 OFFCURVE",
"450 425 CURVE SMOOTH",
"453 370 OFFCURVE",
"453 333 OFFCURVE",
"450 276 CURVE SMOOTH",
"447 220 OFFCURVE",
"414 195 OFFCURVE",
"370 195 CURVE SMOOTH",
"305 195 LINE"
);
}
);
};
color = 6;
hints = (
{
horizontal = 1;
place = "{0, 0}";
type = Tag;
}
);
layerId = "0C16D2E4-C6B5-4E12-83C6-5457D1E61184";
name = "Jul 23 21, 16:38";
paths = (
{
closed = 1;
nodes = (
"375 0 LINE SMOOTH",
"566 0 OFFCURVE",
"696 87 OFFCURVE",
"704 276 CURVE SMOOTH",
"706 330 OFFCURVE",
"706 368 OFFCURVE",
"704 425 CURVE SMOOTH",
"697 604 OFFCURVE",
"557 700 OFFCURVE",
"370 700 CURVE",
"82 700 LINE SMOOTH",
"67 700 OFFCURVE",
"55 688 OFFCURVE",
"55 673 CURVE SMOOTH",
"55 27 LINE SMOOTH",
"55 12 OFFCURVE",
"67 0 OFFCURVE",
"82 0 CURVE SMOOTH"
);
},
{
closed = 1;
nodes = (
"305 505 LINE",
"365 505 LINE SMOOTH",
"410 505 OFFCURVE",
"447 481 OFFCURVE",
"450 425 CURVE SMOOTH",
"453 370 OFFCURVE",
"453 333 OFFCURVE",
"450 276 CURVE SMOOTH",
"447 220 OFFCURVE",
"414 195 OFFCURVE",
"370 195 CURVE SMOOTH",
"305 195 LINE"
);
}
);
width = 740;
}
);
leftKerningGroup = I;
rightKerningGroup = D;
unicode = 0044;
userData = {
com.typemytype.robofont.guides = (
{
angle = 0;
isGlobal = 0;
magnetic = 5;
x = 0;
y = 425;
},
{
angle = 0;
isGlobal = 0;
magnetic = 5;
x = 0;
y = 276;
},
{
angle = 0;
isGlobal = 0;
magnetic = 5;
x = 0;
y = 9;
},
{
angle = 90;
isGlobal = 0;
magnetic = 5;
x = 320;
y = 0;
},
{
angle = 90;
isGlobal = 0;
magnetic = 5;
x = 603;
y = 0;
},
{
angle = 90;
isGlobal = 0;
magnetic = 5;
x = 94;
y = 0;
}
);
};
},
{
color = 6;
glyphname = Eth;
layers = (
{
background = {
paths = (
{
closed = 1;
nodes = (
"395 0 LINE SMOOTH",
"586 0 OFFCURVE",
"729 87 OFFCURVE",
"729 276 CURVE SMOOTH",
"729 326 OFFCURVE",
"729 375 OFFCURVE",
"729 425 CURVE SMOOTH",
"729 604 OFFCURVE",
"581 700 OFFCURVE",
"394 700 CURVE SMOOTH",
"106 700 LINE SMOOTH",
"91 700 OFFCURVE",
"79 688 OFFCURVE",
"79 673 CURVE SMOOTH",
"79 429 LINE",
"41 429 LINE",
"26 429 OFFCURVE",
"14 417 OFFCURVE",
"14 402 CURVE SMOOTH",
"14 301 LINE SMOOTH",
"14 286 OFFCURVE",
"26 274 OFFCURVE",
"41 274 CURVE SMOOTH",
"79 274 LINE",
"79 27 LINE SMOOTH",
"79 12 OFFCURVE",
"91 0 OFFCURVE",
"106 0 CURVE SMOOTH"
);
},
{
closed = 1;
nodes = (
"329 274 LINE",
"385 274 LINE SMOOTH",
"400 274 OFFCURVE",
"412 286 OFFCURVE",
"412 301 CURVE SMOOTH",
"412 402 LINE SMOOTH",
"412 417 OFFCURVE",
"400 429 OFFCURVE",
"385 429 CURVE SMOOTH",
"329 429 LINE",
"329 505 LINE",
"394 505 LINE SMOOTH",
"439 505 OFFCURVE",
"469 481 OFFCURVE",
"469 425 CURVE SMOOTH",
"469 375 OFFCURVE",
"469 326 OFFCURVE",
"469 276 CURVE SMOOTH",
"469 220 OFFCURVE",
"438 195 OFFCURVE",
"394 195 CURVE SMOOTH",
"329 195 LINE"
);
}
);
};
hints = (
{
horizontal = 1;
place = "{0, 0}";
type = Tag;
}
);
layerId = "EC64484B-0978-4CB1-9EE9-C40A2D8C4059";
paths = (
{
closed = 1;
nodes = (
"106 -42 OFFCURVE",
"220.808 -42 OFFCURVE",
"220.808 30 CURVE",
"220.808 -46 OFFCURVE",
"276.233 -46 OFFCURVE",
"276.233 30 CURVE",
"276.233 -35 OFFCURVE",
"323.74 -35 OFFCURVE",
"323.74 30 CURVE",
"324.768 -42.993 OFFCURVE",
"440 -41.369 OFFCURVE",
"438.972 31.624 CURVE",
"454.564 -41.738 OFFCURVE",
"567.651 -17.701 OFFCURVE",
"552.058 55.66 CURVE",
"590.463 -1.664 OFFCURVE",
"682.66 60.104 OFFCURVE",
"644.255 117.429 CURVE",
"709.495 74.676 OFFCURVE",
"742.269 124.688 OFFCURVE",
"677.03 167.441 CURVE",
"742.291 152.276 OFFCURVE",
"763.889 245.225 OFFCURVE",
"698.628 260.389 CURVE",
"763.627 260.208 OFFCURVE",
"764 393.45 OFFCURVE",
"699 393.632 CURVE",
"765.638 400.591 OFFCURVE",
"754.538 506.864 OFFCURVE",
"687.901 499.904 CURVE",
"741.099 529.753 OFFCURVE",
"698.334 605.972 OFFCURVE",
"645.135 576.123 CURVE",
"687.299 620.205 OFFCURVE",
"658.423 647.825 OFFCURVE",
"616.259 603.743 CURVE",
"651.586 665.33 OFFCURVE",
"582.43 704.999 OFFCURVE",
"547.103 643.411 CURVE",
"558.814 707.347 OFFCURVE",
"413.992 733.873 OFFCURVE",
"402.282 669.937 CURVE",
"402.376 735.937 OFFCURVE",
"358.094 736 OFFCURVE",
"358 670 CURVE",
"358 735 OFFCURVE",
"318 735 OFFCURVE",
"318 670 CURVE",
"318 733 OFFCURVE",
"170 733 OFFCURVE",
"170 670 CURVE",
"153.754 728.797 OFFCURVE",
"92.754 711.942 OFFCURVE",
"109 653.145 CURVE",
"44 653.145 OFFCURVE",
"44 534.014 OFFCURVE",
"109 534.014 CURVE",
"36 534.014 OFFCURVE",
"36 406.942 OFFCURVE",
"109 406.942 CURVE",
"70.943 439.984 OFFCURVE",
"5.943 365.119 OFFCURVE",
"44 332.077 CURVE",
"16.769 276.823 OFFCURVE",
"81.769 244.789 OFFCURVE",
"109 300.043 CURVE",
"47 300.043 OFFCURVE",
"47 228.814 OFFCURVE",
"109 228.814 CURVE",
"47 228.814 OFFCURVE",
"47 114.057 OFFCURVE",
"109 114.057 CURVE"
);
},
{
closed = 1;
nodes = (
"342.68 165 OFFCURVE",
"342.68 240.457 OFFCURVE",
"299 240.457 CURVE",
"351.5 240.457 OFFCURVE",
"351.5 284.143 OFFCURVE",
"299 284.143 CURVE",
"311.394 247.545 OFFCURVE",
"370.03 267.402 OFFCURVE",
"357.636 304 CURVE",
"398.94 289.788 OFFCURVE",
"423.303 360.596 OFFCURVE",
"382 374.808 CURVE",
"398.179 406.788 OFFCURVE",
"350.361 430.98 OFFCURVE",
"334.182 399 CURVE",
"371.918 417.439 OFFCURVE",
"336.736 489.439 OFFCURVE",
"299 471 CURVE",
"343.24 471 OFFCURVE",
"343.24 531 OFFCURVE",
"299 531 CURVE",
"300.85 490.722 OFFCURVE",
"387.933 494.722 OFFCURVE",
"386.083 535 CURVE",
"379.187 492.435 OFFCURVE",
"434.718 483.438 OFFCURVE",
"441.614 526.003 CURVE",
"414.652 496.781 OFFCURVE",
"458.594 456.239 OFFCURVE",
"485.555 485.461 CURVE",
"448.557 476.45 OFFCURVE",
"461.911 421.62 OFFCURVE",
"498.909 430.631 CURVE",
"465.309 430.596 OFFCURVE",
"465.4 342.623 OFFCURVE",
"499 342.658 CURVE",
"454.787 344.197 OFFCURVE",
"451.341 245.207 OFFCURVE",
"495.555 243.668 CURVE",
"454.644 260.134 OFFCURVE",
"441.022 226.289 OFFCURVE",
"481.932 209.823 CURVE",
"465.564 244.825 OFFCURVE",
"369.715 200.002 OFFCURVE",
"386.083 165 CURVE",
"386.083 198.6 OFFCURVE",
"342.542 198.6 OFFCURVE",
"342.542 165 CURVE"
);
}
);
width = 766;
},
{
associatedMasterId = "EC64484B-0978-4CB1-9EE9-C40A2D8C4059";
background = {
paths = (
{
closed = 1;
nodes = (
"395 0 LINE SMOOTH",
"586 0 OFFCURVE",
"729 87 OFFCURVE",
"729 276 CURVE SMOOTH",
"729 326 OFFCURVE",
"729 375 OFFCURVE",
"729 425 CURVE SMOOTH",
"729 604 OFFCURVE",
"581 700 OFFCURVE",
"394 700 CURVE SMOOTH",
"106 700 LINE SMOOTH",
"91 700 OFFCURVE",
"79 688 OFFCURVE",
"79 673 CURVE SMOOTH",
"79 429 LINE",
"41 429 LINE",
"26 429 OFFCURVE",
"14 417 OFFCURVE",
"14 402 CURVE SMOOTH",
"14 301 LINE SMOOTH",
"14 286 OFFCURVE",
"26 274 OFFCURVE",
"41 274 CURVE SMOOTH",
"79 274 LINE",
"79 27 LINE SMOOTH",
"79 12 OFFCURVE",
"91 0 OFFCURVE",
"106 0 CURVE SMOOTH"
);
},
{
closed = 1;
nodes = (
"329 274 LINE",
"385 274 LINE SMOOTH",
"400 274 OFFCURVE",
"412 286 OFFCURVE",
"412 301 CURVE SMOOTH",
"412 402 LINE SMOOTH",
"412 417 OFFCURVE",
"400 429 OFFCURVE",
"385 429 CURVE SMOOTH",
"329 429 LINE",
"329 505 LINE",
"394 505 LINE SMOOTH",
"439 505 OFFCURVE",
"469 481 OFFCURVE",
"469 425 CURVE SMOOTH",
"469 375 OFFCURVE",
"469 326 OFFCURVE",
"469 276 CURVE SMOOTH",
"469 220 OFFCURVE",
"438 195 OFFCURVE",
"394 195 CURVE SMOOTH",
"329 195 LINE"
);
}
);
};
color = 6;
hints = (
{
horizontal = 1;
place = "{0, 0}";
type = Tag;
}
);
layerId = "E10E2D64-A579-4626-9078-3A9293C23AD9";
name = "Jul 23 21, 16:38";
paths = (
{
closed = 1;
nodes = (
"395 0 LINE SMOOTH",
"586 0 OFFCURVE",
"729 87 OFFCURVE",
"729 276 CURVE SMOOTH",
"729 326 OFFCURVE",
"729 375 OFFCURVE",
"729 425 CURVE SMOOTH",
"729 604 OFFCURVE",
"581 700 OFFCURVE",
"394 700 CURVE SMOOTH",
"106 700 LINE SMOOTH",
"91 700 OFFCURVE",
"79 688 OFFCURVE",
"79 673 CURVE SMOOTH",
"79 429 LINE",
"41 429 LINE",
"26 429 OFFCURVE",
"14 417 OFFCURVE",
"14 402 CURVE SMOOTH",
"14 301 LINE SMOOTH",
"14 286 OFFCURVE",
"26 274 OFFCURVE",
"41 274 CURVE SMOOTH",
"79 274 LINE",
"79 27 LINE SMOOTH",
"79 12 OFFCURVE",
"91 0 OFFCURVE",
"106 0 CURVE SMOOTH"
);
},
{
closed = 1;
nodes = (
"329 274 LINE",
"385 274 LINE SMOOTH",
"400 274 OFFCURVE",
"412 286 OFFCURVE",
"412 301 CURVE SMOOTH",
"412 402 LINE SMOOTH",
"412 417 OFFCURVE",
"400 429 OFFCURVE",
"385 429 CURVE SMOOTH",
"329 429 LINE",
"329 505 LINE",
"394 505 LINE SMOOTH",
"439 505 OFFCURVE",
"469 481 OFFCURVE",
"469 425 CURVE SMOOTH",
"469 375 OFFCURVE",
"469 326 OFFCURVE",
"469 276 CURVE SMOOTH",
"469 220 OFFCURVE",
"438 195 OFFCURVE",
"394 195 CURVE SMOOTH",
"329 195 LINE"
);
}
);
width = 766;
}
);
leftKerningGroup = I;
rightKerningGroup = D;
unicode = 00D0;
userData = {
com.typemytype.robofont.guides = (
{
angle = 0;
isGlobal = 0;
magnetic = 5;
x = 0;
y = 350;
}
);
};
},
{
color = 6;
glyphname = Dcroat;
layers = (
{
background = {
paths = (
{
closed = 1;
nodes = (
"395 0 LINE SMOOTH",
"586 0 OFFCURVE",
"720 87 OFFCURVE",
"728 276 CURVE SMOOTH",
"730 330 OFFCURVE",
"730 368 OFFCURVE",
"728 425 CURVE SMOOTH",
"721 604 OFFCURVE",
"581 700 OFFCURVE",
"394 700 CURVE",
"106 700 LINE SMOOTH",
"91 700 OFFCURVE",
"79 688 OFFCURVE",
"79 673 CURVE SMOOTH",
"79 430 LINE",
"41 430 LINE SMOOTH",
"26 430 OFFCURVE",
"14 418 OFFCURVE",
"14 403 CURVE SMOOTH",
"14 302 LINE SMOOTH",
"14 287 OFFCURVE",
"26 275 OFFCURVE",
"41 275 CURVE SMOOTH",
"79 275 LINE",
"79 27 LINE SMOOTH",
"79 12 OFFCURVE",
"91 0 OFFCURVE",
"106 0 CURVE SMOOTH"
);
},
{
closed = 1;
nodes = (
"329 275 LINE",
"385 275 LINE SMOOTH",
"400 275 OFFCURVE",
"412 287 OFFCURVE",
"412 302 CURVE SMOOTH",
"412 403 LINE SMOOTH",
"412 418 OFFCURVE",
"400 430 OFFCURVE",
"385 430 CURVE SMOOTH",
"329 430 LINE",
"329 505 LINE",
"394 505 LINE SMOOTH",
"439 505 OFFCURVE",
"471 481 OFFCURVE",
"474 425 CURVE SMOOTH",
"477 370 OFFCURVE",
"477 333 OFFCURVE",
"474 276 CURVE SMOOTH",
"471 220 OFFCURVE",
"438 195 OFFCURVE",
"394 195 CURVE SMOOTH",
"329 195 LINE"
);
}
);
};
hints = (
{
horizontal = 1;
place = "{0, 0}";
type = Tag;
}
);
layerId = "EC64484B-0978-4CB1-9EE9-C40A2D8C4059";
paths = (
{
closed = 1;
nodes = (
"106 -35 OFFCURVE",
"169.342 -35 OFFCURVE",
"169.342 30 CURVE",
"169.342 -34 OFFCURVE",
"244.562 -34 OFFCURVE",
"244.562 30 CURVE",
"244.562 -32 OFFCURVE",
"319.781 -32 OFFCURVE",
"319.781 30 CURVE",
"321.064 -30.986 OFFCURVE",
"452.406 -28.222 OFFCURVE",
"451.123 32.764 CURVE",
"466.947 -41.57 OFFCURVE",
"553.153 -23.219 OFFCURVE",
"537.329 51.115 CURVE",
"562.852 -7.575 OFFCURVE",
"603.312 10.02 OFFCURVE",
"577.789 68.711 CURVE",
"621.877 25.69 OFFCURVE",
"715.628 121.767 OFFCURVE",
"671.54 164.788 CURVE",
"742.388 143.424 OFFCURVE",
"765.482 220.005 OFFCURVE",
"694.633 241.37 CURVE",
"760.598 239.241 OFFCURVE",
"765.145 380.112 OFFCURVE",
"699.18 382.241 CURVE",
"770.046 386.597 OFFCURVE",
"765.268 464.345 OFFCURVE",
"694.401 459.99 CURVE",
"750.384 484.217 OFFCURVE",
"702.999 593.711 OFFCURVE",
"647.016 569.484 CURVE",
"693.723 628.165 OFFCURVE",
"612.568 692.759 OFFCURVE",
"565.861 634.078 CURVE",
"583.229 704.982 OFFCURVE",
"439.716 740.135 OFFCURVE",
"422.348 669.231 CURVE",
"423.135 743.226 OFFCURVE",
"350.787 743.996 OFFCURVE",
"350 670 CURVE",
"350 738 OFFCURVE",
"282 738 OFFCURVE",
"282 670 CURVE",
"282 738 OFFCURVE",
"222 738 OFFCURVE",
"222 670 CURVE",
"222 740 OFFCURVE",
"162 740 OFFCURVE",
"162 670 CURVE",
"142.076 732.921 OFFCURVE",
"89.076 716.138 OFFCURVE",
"109 653.217 CURVE",
"47 653.217 OFFCURVE",
"47 558.261 OFFCURVE",
"109 558.261 CURVE",
"39 558.261 OFFCURVE",
"39 407.913 OFFCURVE",
"109 407.913 CURVE",
"90.756 481.691 OFFCURVE",
"58.756 473.778 OFFCURVE",
"77 400 CURVE",
"30.668 417.707 OFFCURVE",
"-2.332 331.361 OFFCURVE",
"44 313.654 CURVE",
"20.468 239.288 OFFCURVE",
"85.468 218.72 OFFCURVE",
"109 293.086 CURVE",
"32 293.086 OFFCURVE",
"32 181.886 OFFCURVE",
"109 181.886 CURVE",
"47 181.886 OFFCURVE",
"47 58.771 OFFCURVE",
"109 58.771 CURVE"
);
},
{
closed = 1;
nodes = (
"340.44 165 OFFCURVE",
"340.44 249 OFFCURVE",
"299 249 CURVE",
"332.485 220.951 OFFCURVE",
"379.394 276.951 OFFCURVE",
"345.909 305 CURVE",
"367.329 266.933 OFFCURVE",
"403.42 287.24 OFFCURVE",
"382 325.308 CURVE",
"419.52 325.308 OFFCURVE",
"419.52 364.154 OFFCURVE",
"382 364.154 CURVE",
"418.4 364.154 OFFCURVE",
"418.4 403 OFFCURVE",
"382 403 CURVE",
"380.281 441.602 OFFCURVE",
"312.917 438.602 OFFCURVE",
"314.636 400 CURVE",
"362.03 412.443 OFFCURVE",
"346.394 472.001 OFFCURVE",
"299 459.559 CURVE",
"346.406 444.635 OFFCURVE",
"370.156 520.076 OFFCURVE",
"322.75 535 CURVE",
"322.75 496.36 OFFCURVE",
"386.083 496.36 OFFCURVE",
"386.083 535 CURVE",
"375.612 501.897 OFFCURVE",
"458.652 475.628 OFFCURVE",
"469.124 508.731 CURVE",
"438.512 492.349 OFFCURVE",
"470.629 432.337 OFFCURVE",
"501.241 448.719 CURVE",
"450.282 444.916 OFFCURVE",
"454.655 386.326 OFFCURVE",
"505.614 390.13 CURVE",
"461.934 390.205 OFFCURVE",
"461.792 308.209 OFFCURVE",
"505.472 308.133 CURVE",
"463.172 313.961 OFFCURVE",
"452.436 236.047 OFFCURVE",
"494.737 230.219 CURVE",
"468.122 255.05 OFFCURVE",
"416.514 199.735 OFFCURVE",
"443.129 174.904 CURVE",
"438.152 211.527 OFFCURVE",
"365.273 201.623 OFFCURVE",
"370.25 165 CURVE"
);
}
);
width = 764;
},
{
associatedMasterId = "EC64484B-0978-4CB1-9EE9-C40A2D8C4059";
background = {
paths = (
{
closed = 1;
nodes = (
"395 0 LINE SMOOTH",
"586 0 OFFCURVE",
"720 87 OFFCURVE",
"728 276 CURVE SMOOTH",
"730 330 OFFCURVE",
"730 368 OFFCURVE",
"728 425 CURVE SMOOTH",
"721 604 OFFCURVE",
"581 700 OFFCURVE",
"394 700 CURVE",
"106 700 LINE SMOOTH",
"91 700 OFFCURVE",
"79 688 OFFCURVE",
"79 673 CURVE SMOOTH",
"79 430 LINE",
"41 430 LINE SMOOTH",
"26 430 OFFCURVE",
"14 418 OFFCURVE",
"14 403 CURVE SMOOTH",
"14 302 LINE SMOOTH",
"14 287 OFFCURVE",
"26 275 OFFCURVE",
"41 275 CURVE SMOOTH",
"79 275 LINE",
"79 27 LINE SMOOTH",
"79 12 OFFCURVE",
"91 0 OFFCURVE",
"106 0 CURVE SMOOTH"
);
},
{
closed = 1;
nodes = (
"329 275 LINE",
"385 275 LINE SMOOTH",
"400 275 OFFCURVE",
"412 287 OFFCURVE",
"412 302 CURVE SMOOTH",
"412 403 LINE SMOOTH",
"412 418 OFFCURVE",
"400 430 OFFCURVE",
"385 430 CURVE SMOOTH",
"329 430 LINE",
"329 505 LINE",
"394 505 LINE SMOOTH",
"439 505 OFFCURVE",
"471 481 OFFCURVE",
"474 425 CURVE SMOOTH",
"477 370 OFFCURVE",
"477 333 OFFCURVE",
"474 276 CURVE SMOOTH",
"471 220 OFFCURVE",
"438 195 OFFCURVE",
"394 195 CURVE SMOOTH",
"329 195 LINE"
);
}
);
};
color = 6;
hints = (
{
horizontal = 1;
place = "{0, 0}";
type = Tag;
}
);
layerId = "26281995-AD15-49F5-97C2-63F740351858";
name = "Jul 23 21, 16:38";
paths = (
{
closed = 1;
nodes = (
"395 0 LINE SMOOTH",
"586 0 OFFCURVE",
"720 87 OFFCURVE",
"728 276 CURVE SMOOTH",
"730 330 OFFCURVE",
"730 368 OFFCURVE",
"728 425 CURVE SMOOTH",
"721 604 OFFCURVE",
"581 700 OFFCURVE",
"394 700 CURVE",
"106 700 LINE SMOOTH",
"91 700 OFFCURVE",
"79 688 OFFCURVE",
"79 673 CURVE SMOOTH",
"79 430 LINE",
"41 430 LINE SMOOTH",
"26 430 OFFCURVE",
"14 418 OFFCURVE",
"14 403 CURVE SMOOTH",
"14 302 LINE SMOOTH",
"14 287 OFFCURVE",
"26 275 OFFCURVE",
"41 275 CURVE SMOOTH",
"79 275 LINE",
"79 27 LINE SMOOTH",
"79 12 OFFCURVE",
"91 0 OFFCURVE",
"106 0 CURVE SMOOTH"
);
},
{
closed = 1;
nodes = (
"329 275 LINE",
"385 275 LINE SMOOTH",
"400 275 OFFCURVE",
"412 287 OFFCURVE",
"412 302 CURVE SMOOTH",
"412 403 LINE SMOOTH",
"412 418 OFFCURVE",
"400 430 OFFCURVE",
"385 430 CURVE SMOOTH",
"329 430 LINE",
"329 505 LINE",
"394 505 LINE SMOOTH",
"439 505 OFFCURVE",
"471 481 OFFCURVE",
"474 425 CURVE SMOOTH",
"477 370 OFFCURVE",
"477 333 OFFCURVE",
"474 276 CURVE SMOOTH",
"471 220 OFFCURVE",
"438 195 OFFCURVE",
"394 195 CURVE SMOOTH",
"329 195 LINE"
);
}
);
width = 764;
}
);
leftKerningGroup = I;
rightKerningGroup = D;
unicode = 0110;
userData = {
com.typemytype.robofont.guides = (
{
angle = 0;
isGlobal = 0;
magnetic = 5;
x = 0;
y = 352;
},
{
angle = 90;
isGlobal = 0;
magnetic = 5;
x = 340;
y = 0;
},
{
angle = 90;
isGlobal = 0;
magnetic = 5;
x = 105;
y = 0;
}
);
};
},
{
color = 6;
glyphname = E;
layers = (
{
anchors = (
{
name = bottom;
position = "{334, 0}";
},
{
name = ogonek;
position = "{626, 122}";
},
{
name = top;
position = "{334, 700}";
},
{
name = topleft;
position = "{20, 700}";
}
);
background = {
anchors = (
{
name = bottom;
position = "{334, 0}";
},
{
name = ogonek;
position = "{626, 122}";
},
{
name = top;
position = "{334, 700}";
},
{
name = topleft;
position = "{20, 700}";
}
);
paths = (
{
closed = 1;
nodes = (
"603 0 LINE SMOOTH",
"618 0 OFFCURVE",
"630 12 OFFCURVE",
"630 27 CURVE SMOOTH",
"630 168 LINE SMOOTH",
"630 183 OFFCURVE",
"618 195 OFFCURVE",
"603 195 CURVE SMOOTH",
"295 195 LINE",
"295 258 LINE",
"573 258 LINE SMOOTH",
"588 258 OFFCURVE",
"600 270 OFFCURVE",
"600 285 CURVE SMOOTH",
"600 415 LINE SMOOTH",
"600 430 OFFCURVE",
"588 442 OFFCURVE",
"573 442 CURVE SMOOTH",
"295 442 LINE",
"295 505 LINE",
"595 505 LINE SMOOTH",
"610 505 OFFCURVE",
"622 517 OFFCURVE",
"622 532 CURVE SMOOTH",
"622 673 LINE SMOOTH",
"622 688 OFFCURVE",
"610 700 OFFCURVE",
"595 700 CURVE SMOOTH",
"82 700 LINE SMOOTH",
"67 700 OFFCURVE",
"55 688 OFFCURVE",
"55 673 CURVE SMOOTH",
"55 27 LINE SMOOTH",
"55 12 OFFCURVE",
"67 0 OFFCURVE",
"82 0 CURVE SMOOTH"
);
}
);
};
layerId = "EC64484B-0978-4CB1-9EE9-C40A2D8C4059";
paths = (
{
closed = 1;
nodes = (
"82 -36 OFFCURVE",
"185.405 -36 OFFCURVE",
"185.405 30 CURVE",
"185.405 -48 OFFCURVE",
"292.786 -48 OFFCURVE",
"292.786 30 CURVE",
"292.786 -37 OFFCURVE",
"380.282 -37 OFFCURVE",
"380.282 30 CURVE",
"380.282 -44 OFFCURVE",
"487.664 -44 OFFCURVE",
"487.664 30 CURVE",
"487.664 -42 OFFCURVE",
"563.229 -42 OFFCURVE",
"563.229 30 CURVE",
"619.463 9.078 OFFCURVE",
"656.234 107.911 OFFCURVE",
"600 128.833 CURVE",
"628.076 169.722 OFFCURVE",
"575.406 205.889 OFFCURVE",
"547.329 165 CURVE",
"547.329 226.6 OFFCURVE",
"487.682 226.6 OFFCURVE",
"487.682 165 CURVE",
"487.682 213.8 OFFCURVE",
"360.435 213.8 OFFCURVE",
"360.435 165 CURVE",
"360.435 225.8 OFFCURVE",
"280.906 225.8 OFFCURVE",
"280.906 165 CURVE",
"356.404 180.133 OFFCURVE",
"340.498 259.488 OFFCURVE",
"265 244.355 CURVE",
"291.541 200.571 OFFCURVE",
"363.541 244.216 OFFCURVE",
"337 288 CURVE",
"337 239.2 OFFCURVE",
"417 239.2 OFFCURVE",
"417 288 CURVE",
"417 237.6 OFFCURVE",
"561 237.6 OFFCURVE",
"561 288 CURVE",
"634.759 282.033 OFFCURVE",
"643.759 393.275 OFFCURVE",
"570 399.242 CURVE",
"593.799 460.802 OFFCURVE",
"560.799 473.56 OFFCURVE",
"537 412 CURVE",
"537 470.4 OFFCURVE",
"461 470.4 OFFCURVE",
"461 412 CURVE",
"461 462.4 OFFCURVE",
"357 462.4 OFFCURVE",
"357 412 CURVE",
"386.533 454.799 OFFCURVE",
"294.533 518.283 OFFCURVE",
"265 475.484 CURVE",
"302.132 428.354 OFFCURVE",
"377.674 487.87 OFFCURVE",
"340.542 535 CURVE",
"340.542 487 OFFCURVE",
"475.723 487 OFFCURVE",
"475.723 535 CURVE",
"475.723 474.2 OFFCURVE",
"539.337 474.2 OFFCURVE",
"539.337 535 CURVE",
"539.337 471.8 OFFCURVE",
"583.072 471.8 OFFCURVE",
"583.072 535 CURVE",
"652.788 528.702 OFFCURVE",
"661.716 627.536 OFFCURVE",
"592 633.833 CURVE",
"652.791 628.791 OFFCURVE",
"655.791 664.957 OFFCURVE",
"595 670 CURVE",
"595 730 OFFCURVE",
"455.814 730 OFFCURVE",
"455.814 670 CURVE",
"455.814 741 OFFCURVE",
"372.302 741 OFFCURVE",
"372.302 670 CURVE",
"372.302 734 OFFCURVE",
"308.674 734 OFFCURVE",
"308.674 670 CURVE",
"308.674 730 OFFCURVE",
"157.558 730 OFFCURVE",
"157.558 670 CURVE",
"157.558 731 OFFCURVE",
"113.814 731 OFFCURVE",
"113.814 670 CURVE",
"64.357 686.063 OFFCURVE",
"35.543 597.347 OFFCURVE",
"85 581.284 CURVE",
"11 581.284 OFFCURVE",
"11 461.654 OFFCURVE",
"85 461.654 CURVE",
"17 461.654 OFFCURVE",
"17 381.901 OFFCURVE",
"85 381.901 CURVE",
"10 381.901 OFFCURVE",
"10 322.086 OFFCURVE",
"85 322.086 CURVE",
"22 322.086 OFFCURVE",
"22 238.346 OFFCURVE",
"85 238.346 CURVE",
"20 238.346 OFFCURVE",
"20 126.691 OFFCURVE",
"85 126.691 CURVE"
);
}
);
width = 667;
},
{
anchors = (
{
name = bottom;
position = "{334, 0}";
},
{
name = ogonek;
position = "{626, 122}";
},
{
name = top;
position = "{334, 700}";
},
{
name = topleft;
position = "{20, 700}";
}
);
associatedMasterId = "EC64484B-0978-4CB1-9EE9-C40A2D8C4059";
background = {
anchors = (
{
name = bottom;
position = "{334, 0}";
},
{
name = ogonek;
position = "{626, 122}";
},
{
name = top;
position = "{334, 700}";
},
{
name = topleft;
position = "{20, 700}";
}
);
paths = (
{
closed = 1;
nodes = (
"603 0 LINE SMOOTH",
"618 0 OFFCURVE",
"630 12 OFFCURVE",
"630 27 CURVE SMOOTH",
"630 168 LINE SMOOTH",
"630 183 OFFCURVE",
"618 195 OFFCURVE",
"603 195 CURVE SMOOTH",
"295 195 LINE",
"295 258 LINE",
"573 258 LINE SMOOTH",
"588 258 OFFCURVE",
"600 270 OFFCURVE",
"600 285 CURVE SMOOTH",
"600 415 LINE SMOOTH",
"600 430 OFFCURVE",
"588 442 OFFCURVE",
"573 442 CURVE SMOOTH",
"295 442 LINE",
"295 505 LINE",
"595 505 LINE SMOOTH",
"610 505 OFFCURVE",
"622 517 OFFCURVE",
"622 532 CURVE SMOOTH",
"622 673 LINE SMOOTH",
"622 688 OFFCURVE",
"610 700 OFFCURVE",
"595 700 CURVE SMOOTH",
"82 700 LINE SMOOTH",
"67 700 OFFCURVE",
"55 688 OFFCURVE",
"55 673 CURVE SMOOTH",
"55 27 LINE SMOOTH",
"55 12 OFFCURVE",
"67 0 OFFCURVE",
"82 0 CURVE SMOOTH"
);
}
);
};
color = 6;
layerId = "CCE4982F-9B86-4A26-893C-14B118A30386";
name = "Jul 23 21, 16:38";
paths = (
{
closed = 1;
nodes = (
"603 0 LINE SMOOTH",
"618 0 OFFCURVE",
"630 12 OFFCURVE",
"630 27 CURVE SMOOTH",
"630 168 LINE SMOOTH",
"630 183 OFFCURVE",
"618 195 OFFCURVE",
"603 195 CURVE SMOOTH",
"295 195 LINE",
"295 258 LINE",
"573 258 LINE SMOOTH",
"588 258 OFFCURVE",
"600 270 OFFCURVE",
"600 285 CURVE SMOOTH",
"600 415 LINE SMOOTH",
"600 430 OFFCURVE",
"588 442 OFFCURVE",
"573 442 CURVE SMOOTH",
"295 442 LINE",
"295 505 LINE",
"595 505 LINE SMOOTH",
"610 505 OFFCURVE",
"622 517 OFFCURVE",
"622 532 CURVE SMOOTH",
"622 673 LINE SMOOTH",
"622 688 OFFCURVE",
"610 700 OFFCURVE",
"595 700 CURVE SMOOTH",
"82 700 LINE SMOOTH",
"67 700 OFFCURVE",
"55 688 OFFCURVE",
"55 673 CURVE SMOOTH",
"55 27 LINE SMOOTH",
"55 12 OFFCURVE",
"67 0 OFFCURVE",
"82 0 CURVE SMOOTH"
);
}
);
width = 667;
}
);
leftKerningGroup = I;
rightKerningGroup = E;
unicode = 0045;
userData = {
com.typemytype.robofont.guides = (
{
angle = 0;
isGlobal = 0;
magnetic = 5;
x = 0;
y = 334;
},
{
angle = 0;
isGlobal = 0;
magnetic = 5;
x = 0;
y = 9;
},
{
angle = 0;
isGlobal = 0;
magnetic = 5;
x = 0;
y = 376;
},
{
angle = 0;
isGlobal = 0;
magnetic = 5;
x = 0;
y = 691;
},
{
angle = 0;
isGlobal = 0;
magnetic = 5;
x = 0;
y = 649;
},
{
angle = 90;
isGlobal = 0;
magnetic = 5;
x = 664;
y = 0;
},
{
angle = 90;
isGlobal = 0;
magnetic = 5;
x = 94;
y = 0;
},
{
angle = 90;
isGlobal = 0;
magnetic = 5;
x = 511;
y = 0;
}
);
};
},
{
color = 6;
glyphname = Eogonek;
layers = (
{
anchors = (
{
name = top;
position = "{334, 700}";
}
);
background = {
anchors = (
{
name = top;
position = "{334, 700}";
}
);
paths = (
{
closed = 1;
nodes = (
"603 -220 LINE SMOOTH",
"618 -220 OFFCURVE",
"630 -208 OFFCURVE",
"630 -193 CURVE SMOOTH",
"630 -125 LINE SMOOTH",
"630 -110 OFFCURVE",
"618 -98 OFFCURVE",
"603 -98 CURVE SMOOTH",
"593 -98 LINE SMOOTH",
"554 -98 OFFCURVE",
"543 -70 OFFCURVE",
"543 -49 CURVE SMOOTH",
"543 -28 OFFCURVE",
"554 0 OFFCURVE",
"593 0 CURVE SMOOTH",
"603 0 LINE SMOOTH",
"618 0 OFFCURVE",
"630 12 OFFCURVE",
"630 27 CURVE SMOOTH",
"630 168 LINE SMOOTH",
"630 183 OFFCURVE",
"618 195 OFFCURVE",
"603 195 CURVE SMOOTH",
"295 195 LINE",
"295 258 LINE",
"573 258 LINE SMOOTH",
"588 258 OFFCURVE",
"600 270 OFFCURVE",
"600 285 CURVE SMOOTH",
"600 415 LINE SMOOTH",
"600 430 OFFCURVE",
"588 442 OFFCURVE",
"573 442 CURVE SMOOTH",
"295 442 LINE",
"295 505 LINE",
"595 505 LINE SMOOTH",
"610 505 OFFCURVE",
"622 517 OFFCURVE",
"622 532 CURVE SMOOTH",
"622 673 LINE SMOOTH",
"622 688 OFFCURVE",
"610 700 OFFCURVE",
"595 700 CURVE SMOOTH",
"82 700 LINE SMOOTH",
"67 700 OFFCURVE",
"55 688 OFFCURVE",
"55 673 CURVE SMOOTH",
"55 27 LINE SMOOTH",
"55 12 OFFCURVE",
"67 0 OFFCURVE",
"82 0 CURVE SMOOTH",
"422 0 LINE",
"419 -16 OFFCURVE",
"417 -31 OFFCURVE",
"417 -49 CURVE SMOOTH",
"417 -144 OFFCURVE",
"468 -220 OFFCURVE",
"589 -220 CURVE SMOOTH"
);
}
);
};
hints = (
{
horizontal = 1;
place = "{0, 0}";
type = Tag;
}
);
layerId = "EC64484B-0978-4CB1-9EE9-C40A2D8C4059";
paths = (
{
closed = 1;
nodes = (
"664.13 -206.866 OFFCURVE",
"675.13 -157.866 OFFCURVE",
"600 -141 CURVE",
"643.743 -86.35 OFFCURVE",
"560.099 -19.4 OFFCURVE",
"516.356 -74.05 CURVE",
"577.355 -73.688 OFFCURVE",
"577.064 -24.636 OFFCURVE",
"516.066 -24.997 CURVE",
"574.26 -63.899 OFFCURVE",
"600.725 -24.309 OFFCURVE",
"542.531 14.593 CURVE",
"582.605 -30.062 OFFCURVE",
"640.074 21.512 OFFCURVE",
"600 66.167 CURVE",
"675 66.167 OFFCURVE",
"675 136.667 OFFCURVE",
"600 136.667 CURVE",
"616.35 187.712 OFFCURVE",
"527.891 216.045 OFFCURVE",
"511.541 165 CURVE",
"511.541 225 OFFCURVE",
"408.153 225 OFFCURVE",
"408.153 165 CURVE",
"408.153 227.4 OFFCURVE",
"268.976 227.4 OFFCURVE",
"268.976 165 CURVE",
"328.901 168.003 OFFCURVE",
"324.925 247.358 OFFCURVE",
"265 244.355 CURVE",
"286.683 200.637 OFFCURVE",
"374.683 244.282 OFFCURVE",
"353 288 CURVE",
"353 236 OFFCURVE",
"493 236 OFFCURVE",
"493 288 CURVE",
"515.221 240.987 OFFCURVE",
"592.221 277.381 OFFCURVE",
"570 324.394 CURVE",
"628.479 343.752 OFFCURVE",
"599.479 431.358 OFFCURVE",
"541 412 CURVE",
"541 463.2 OFFCURVE",
"449 463.2 OFFCURVE",
"449 412 CURVE",
"449 467.2 OFFCURVE",
"305 467.2 OFFCURVE",
"305 412 CURVE",
"332.833 452.085 OFFCURVE",
"292.833 479.859 OFFCURVE",
"265 439.774 CURVE",
"329 439.774 OFFCURVE",
"329 515.161 OFFCURVE",
"265 515.161 CURVE",
"292.943 470.361 OFFCURVE",
"324.75 490.2 OFFCURVE",
"296.807 535 CURVE",
"296.807 481.4 OFFCURVE",
"356.446 481.4 OFFCURVE",
"356.446 535 CURVE",
"356.446 484.6 OFFCURVE",
"400.181 484.6 OFFCURVE",
"400.181 535 CURVE",
"400.181 479.8 OFFCURVE",
"447.892 479.8 OFFCURVE",
"447.892 535 CURVE",
"447.892 474.2 OFFCURVE",
"571.145 474.2 OFFCURVE",
"571.145 535 CURVE",
"632.385 523.026 OFFCURVE",
"653.24 629.693 OFFCURVE",
"592 641.667 CURVE",
"632.798 688.882 OFFCURVE",
"600.007 717.216 OFFCURVE",
"559.209 670 CURVE",
"559.209 740 OFFCURVE",
"416.047 740 OFFCURVE",
"416.047 670 CURVE",
"416.047 734 OFFCURVE",
"264.93 734 OFFCURVE",
"264.93 670 CURVE",
"264.93 732 OFFCURVE",
"185.395 732 OFFCURVE",
"185.395 670 CURVE",
"185.395 739 OFFCURVE",
"133.698 739 OFFCURVE",
"133.698 670 CURVE",
"92.508 714.722 OFFCURVE",
"43.81 669.87 OFFCURVE",
"85 625.148 CURVE",
"24 625.148 OFFCURVE",
"24 585.272 OFFCURVE",
"85 585.272 CURVE",
"12 585.272 OFFCURVE",
"12 437.728 OFFCURVE",
"85 437.728 CURVE",
"12 437.728 OFFCURVE",
"12 381.901 OFFCURVE",
"85 381.901 CURVE",
"19 381.901 OFFCURVE",
"19 230.37 OFFCURVE",
"85 230.37 CURVE",
"21 230.37 OFFCURVE",
"21 170.556 OFFCURVE",
"85 170.556 CURVE",
"9 170.556 OFFCURVE",
"9 27 OFFCURVE",
"85 27 CURVE",
"87.035 -40.97 OFFCURVE",
"187.214 -37.97 OFFCURVE",
"185.179 30 CURVE",
"185.179 -38 OFFCURVE",
"280.421 -38 OFFCURVE",
"280.421 30 CURVE",
"280.421 -36 OFFCURVE",
"419.316 -36 OFFCURVE",
"419.316 30 CURVE",
"353.997 2.171 OFFCURVE",
"382.098 -63.785 OFFCURVE",
"447.417 -35.955 CURVE",
"378.657 -41.71 OFFCURVE",
"383.769 -102.791 OFFCURVE",
"452.528 -97.036 CURVE",
"388.812 -134.669 OFFCURVE",
"425.208 -196.291 OFFCURVE",
"488.924 -158.658 CURVE",
"458.554 -218.38 OFFCURVE",
"508.525 -243.791 OFFCURVE",
"538.895 -184.07 CURVE"
);
}
);
width = 667;
},
{
anchors = (
{
name = top;
position = "{334, 700}";
}
);
associatedMasterId = "EC64484B-0978-4CB1-9EE9-C40A2D8C4059";
background = {
anchors = (
{
name = top;
position = "{334, 700}";
}
);
paths = (
{
closed = 1;
nodes = (
"603 -220 LINE SMOOTH",
"618 -220 OFFCURVE",
"630 -208 OFFCURVE",
"630 -193 CURVE SMOOTH",
"630 -125 LINE SMOOTH",
"630 -110 OFFCURVE",
"618 -98 OFFCURVE",
"603 -98 CURVE SMOOTH",
"593 -98 LINE SMOOTH",
"554 -98 OFFCURVE",
"543 -70 OFFCURVE",
"543 -49 CURVE SMOOTH",
"543 -28 OFFCURVE",
"554 0 OFFCURVE",
"593 0 CURVE SMOOTH",
"603 0 LINE SMOOTH",
"618 0 OFFCURVE",
"630 12 OFFCURVE",
"630 27 CURVE SMOOTH",
"630 168 LINE SMOOTH",
"630 183 OFFCURVE",
"618 195 OFFCURVE",
"603 195 CURVE SMOOTH",
"295 195 LINE",
"295 258 LINE",
"573 258 LINE SMOOTH",
"588 258 OFFCURVE",
"600 270 OFFCURVE",
"600 285 CURVE SMOOTH",
"600 415 LINE SMOOTH",
"600 430 OFFCURVE",
"588 442 OFFCURVE",
"573 442 CURVE SMOOTH",
"295 442 LINE",
"295 505 LINE",
"595 505 LINE SMOOTH",
"610 505 OFFCURVE",
"622 517 OFFCURVE",
"622 532 CURVE SMOOTH",
"622 673 LINE SMOOTH",
"622 688 OFFCURVE",
"610 700 OFFCURVE",
"595 700 CURVE SMOOTH",
"82 700 LINE SMOOTH",
"67 700 OFFCURVE",
"55 688 OFFCURVE",
"55 673 CURVE SMOOTH",
"55 27 LINE SMOOTH",
"55 12 OFFCURVE",
"67 0 OFFCURVE",
"82 0 CURVE SMOOTH",
"422 0 LINE",
"419 -16 OFFCURVE",
"417 -31 OFFCURVE",
"417 -49 CURVE SMOOTH",
"417 -144 OFFCURVE",
"468 -220 OFFCURVE",
"589 -220 CURVE SMOOTH"
);
}
);
};
color = 6;
hints = (
{
horizontal = 1;
place = "{0, 0}";
type = Tag;
}
);
layerId = "E1D46AF7-AAC6-4DFB-8230-05F60452CB49";
name = "Jul 23 21, 16:38";
paths = (
{
closed = 1;
nodes = (
"603 -220 LINE SMOOTH",
"618 -220 OFFCURVE",
"630 -208 OFFCURVE",
"630 -193 CURVE SMOOTH",
"630 -125 LINE SMOOTH",
"630 -110 OFFCURVE",
"618 -98 OFFCURVE",
"603 -98 CURVE SMOOTH",
"593 -98 LINE SMOOTH",
"554 -98 OFFCURVE",
"543 -70 OFFCURVE",
"543 -49 CURVE SMOOTH",
"543 -28 OFFCURVE",
"554 0 OFFCURVE",
"593 0 CURVE SMOOTH",
"603 0 LINE SMOOTH",
"618 0 OFFCURVE",
"630 12 OFFCURVE",
"630 27 CURVE SMOOTH",
"630 168 LINE SMOOTH",
"630 183 OFFCURVE",
"618 195 OFFCURVE",
"603 195 CURVE SMOOTH",
"295 195 LINE",
"295 258 LINE",
"573 258 LINE SMOOTH",
"588 258 OFFCURVE",
"600 270 OFFCURVE",
"600 285 CURVE SMOOTH",
"600 415 LINE SMOOTH",
"600 430 OFFCURVE",
"588 442 OFFCURVE",
"573 442 CURVE SMOOTH",
"295 442 LINE",
"295 505 LINE",
"595 505 LINE SMOOTH",
"610 505 OFFCURVE",
"622 517 OFFCURVE",
"622 532 CURVE SMOOTH",
"622 673 LINE SMOOTH",
"622 688 OFFCURVE",
"610 700 OFFCURVE",
"595 700 CURVE SMOOTH",
"82 700 LINE SMOOTH",
"67 700 OFFCURVE",
"55 688 OFFCURVE",
"55 673 CURVE SMOOTH",
"55 27 LINE SMOOTH",
"55 12 OFFCURVE",
"67 0 OFFCURVE",
"82 0 CURVE SMOOTH",
"422 0 LINE",
"419 -16 OFFCURVE",
"417 -31 OFFCURVE",
"417 -49 CURVE SMOOTH",
"417 -144 OFFCURVE",
"468 -220 OFFCURVE",
"589 -220 CURVE SMOOTH"
);
}
);
width = 667;
}
);
leftKerningGroup = I;
rightKerningGroup = E;
unicode = 0118;
userData = {
com.typemytype.robofont.guides = (
{
angle = 90;
isGlobal = 0;
magnetic = 5;
x = 355;
y = 0;
}
);
};
},
{
color = 6;
glyphname = F;
layers = (
{
anchors = (
{
name = bottom;
position = "{323, 0}";
},
{
name = top;
position = "{323, 700}";
}
);
background = {
anchors = (
{
name = bottom;
position = "{323, 0}";
},
{
name = top;
position = "{323, 700}";
}
);
paths = (
{
closed = 1;
nodes = (
"273 0 LINE SMOOTH",
"288 0 OFFCURVE",
"300 12 OFFCURVE",
"300 27 CURVE SMOOTH",
"300 215 LINE",
"566 215 LINE SMOOTH",
"581 215 OFFCURVE",
"593 227 OFFCURVE",
"593 242 CURVE SMOOTH",
"593 393 LINE SMOOTH",
"593 408 OFFCURVE",
"581 420 OFFCURVE",
"566 420 CURVE SMOOTH",
"300 420 LINE",
"300 494 LINE",
"586 494 LINE SMOOTH",
"601 494 OFFCURVE",
"613 506 OFFCURVE",
"613 521 CURVE SMOOTH",
"613 673 LINE SMOOTH",
"613 688 OFFCURVE",
"601 700 OFFCURVE",
"586 700 CURVE SMOOTH",
"82 700 LINE SMOOTH",
"67 700 OFFCURVE",
"55 688 OFFCURVE",
"55 673 CURVE SMOOTH",
"55 27 LINE SMOOTH",
"55 12 OFFCURVE",
"67 0 OFFCURVE",
"82 0 CURVE SMOOTH"
);
}
);
};
hints = (
{
horizontal = 1;
place = "{0, 0}";
type = Tag;
}
);
layerId = "EC64484B-0978-4CB1-9EE9-C40A2D8C4059";
paths = (
{
closed = 1;
nodes = (
"82 -39 OFFCURVE",
"153.625 -39 OFFCURVE",
"153.625 30 CURVE",
"158.348 -31.82 OFFCURVE",
"274.723 -22.929 OFFCURVE",
"270 38.891 CURVE",
"342 38.891 OFFCURVE",
"342 161.764 OFFCURVE",
"270 161.764 CURVE",
"345.222 150.919 OFFCURVE",
"357.222 234.155 OFFCURVE",
"282 245 CURVE",
"282 169 OFFCURVE",
"390 169 OFFCURVE",
"390 245 CURVE",
"390 169 OFFCURVE",
"502 169 OFFCURVE",
"502 245 CURVE",
"540.333 206.4 OFFCURVE",
"601.333 266.979 OFFCURVE",
"563 305.579 CURVE",
"616.252 331.441 OFFCURVE",
"575.252 415.862 OFFCURVE",
"522 390 CURVE",
"522 446 OFFCURVE",
"406 446 OFFCURVE",
"406 390 CURVE",
"406 440.4 OFFCURVE",
"358 440.4 OFFCURVE",
"358 390 CURVE",
"358 443.6 OFFCURVE",
"294 443.6 OFFCURVE",
"294 390 CURVE",
"365.072 410.609 OFFCURVE",
"341.072 493.374 OFFCURVE",
"270 472.765 CURVE",
"311.581 427.316 OFFCURVE",
"367.581 478.552 OFFCURVE",
"326 524 CURVE",
"326 463.2 OFFCURVE",
"366 463.2 OFFCURVE",
"366 524 CURVE",
"366 476 OFFCURVE",
"470 476 OFFCURVE",
"470 524 CURVE",
"470 469.6 OFFCURVE",
"526 469.6 OFFCURVE",
"526 524 CURVE",
"535.358 464.734 OFFCURVE",
"592.358 473.734 OFFCURVE",
"583 533 CURVE",
"652 533 OFFCURVE",
"652 621 OFFCURVE",
"583 621 CURVE",
"662 621 OFFCURVE",
"662 669 OFFCURVE",
"583 669 CURVE",
"583.447 731.998 OFFCURVE",
"442.447 732.998 OFFCURVE",
"442 670 CURVE",
"442 740 OFFCURVE",
"338 740 OFFCURVE",
"338 670 CURVE",
"338 730 OFFCURVE",
"250 730 OFFCURVE",
"250 670 CURVE",
"250 732 OFFCURVE",
"142 732 OFFCURVE",
"142 670 CURVE",
"116.689 727.91 OFFCURVE",
"59.689 702.996 OFFCURVE",
"85 645.086 CURVE",
"24 645.086 OFFCURVE",
"24 533.432 OFFCURVE",
"85 533.432 CURVE",
"8 533.432 OFFCURVE",
"8 493.556 OFFCURVE",
"85 493.556 CURVE",
"18 493.556 OFFCURVE",
"18 381.901 OFFCURVE",
"85 381.901 CURVE",
"25 381.901 OFFCURVE",
"25 338.037 OFFCURVE",
"85 338.037 CURVE",
"9 338.037 OFFCURVE",
"9 206.444 OFFCURVE",
"85 206.444 CURVE",
"12 206.444 OFFCURVE",
"12 154.605 OFFCURVE",
"85 154.605 CURVE",
"25 154.605 OFFCURVE",
"25 66.877 OFFCURVE",
"85 66.877 CURVE"
);
}
);
width = 646;
},
{
anchors = (
{
name = bottom;
position = "{323, 0}";
},
{
name = top;
position = "{323, 700}";
}
);
associatedMasterId = "EC64484B-0978-4CB1-9EE9-C40A2D8C4059";
background = {
anchors = (
{
name = bottom;
position = "{323, 0}";
},
{
name = top;
position = "{323, 700}";
}
);
paths = (
{
closed = 1;
nodes = (
"273 0 LINE SMOOTH",
"288 0 OFFCURVE",
"300 12 OFFCURVE",
"300 27 CURVE SMOOTH",
"300 215 LINE",
"566 215 LINE SMOOTH",
"581 215 OFFCURVE",
"593 227 OFFCURVE",
"593 242 CURVE SMOOTH",
"593 393 LINE SMOOTH",
"593 408 OFFCURVE",
"581 420 OFFCURVE",
"566 420 CURVE SMOOTH",
"300 420 LINE",
"300 494 LINE",
"586 494 LINE SMOOTH",
"601 494 OFFCURVE",
"613 506 OFFCURVE",
"613 521 CURVE SMOOTH",
"613 673 LINE SMOOTH",
"613 688 OFFCURVE",
"601 700 OFFCURVE",
"586 700 CURVE SMOOTH",
"82 700 LINE SMOOTH",
"67 700 OFFCURVE",
"55 688 OFFCURVE",
"55 673 CURVE SMOOTH",
"55 27 LINE SMOOTH",
"55 12 OFFCURVE",
"67 0 OFFCURVE",
"82 0 CURVE SMOOTH"
);
}
);
};
color = 6;
hints = (
{
horizontal = 1;
place = "{0, 0}";
type = Tag;
}
);
layerId = "A9AC704E-EABF-48F0-B13C-791EC04C955E";
name = "Jul 23 21, 16:38";
paths = (
{
closed = 1;
nodes = (
"273 0 LINE SMOOTH",
"288 0 OFFCURVE",
"300 12 OFFCURVE",
"300 27 CURVE SMOOTH",
"300 215 LINE",
"566 215 LINE SMOOTH",
"581 215 OFFCURVE",
"593 227 OFFCURVE",
"593 242 CURVE SMOOTH",
"593 393 LINE SMOOTH",
"593 408 OFFCURVE",
"581 420 OFFCURVE",
"566 420 CURVE SMOOTH",
"300 420 LINE",
"300 494 LINE",
"586 494 LINE SMOOTH",
"601 494 OFFCURVE",
"613 506 OFFCURVE",
"613 521 CURVE SMOOTH",
"613 673 LINE SMOOTH",
"613 688 OFFCURVE",
"601 700 OFFCURVE",
"586 700 CURVE SMOOTH",
"82 700 LINE SMOOTH",
"67 700 OFFCURVE",
"55 688 OFFCURVE",
"55 673 CURVE SMOOTH",
"55 27 LINE SMOOTH",
"55 12 OFFCURVE",
"67 0 OFFCURVE",
"82 0 CURVE SMOOTH"
);
}
);
width = 646;
}
);
leftKerningGroup = I;
unicode = 0046;
userData = {
com.typemytype.robofont.guides = (
{
angle = 0;
isGlobal = 0;
magnetic = 5;
x = 0;
y = 320;
},
{
angle = 0;
isGlobal = 0;
magnetic = 5;
x = 0;
y = 691;
},
{
angle = 0;
isGlobal = 0;
magnetic = 5;
x = 0;
y = 649;
},
{
angle = 0;
isGlobal = 0;
magnetic = 5;
x = 0;
y = 362;
},
{
angle = 0;
isGlobal = 0;
magnetic = 5;
x = 0;
y = 9;
},
{
angle = 90;
isGlobal = 0;
magnetic = 5;
x = 761;
y = 0;
},
{
angle = 90;
isGlobal = 0;
magnetic = 5;
x = 94;
y = 0;
},
{
angle = 90;
isGlobal = 0;
magnetic = 5;
x = 487;
y = 0;
},
{
angle = 90;
isGlobal = 0;
magnetic = 5;
x = 139;
y = 0;
}
);
};
},
{
color = 6;
glyphname = G;
layers = (
{
anchors = (
{
name = bottom;
position = "{377, 0}";
},
{
name = top;
position = "{377, 700}";
}
);
background = {
anchors = (
{
name = bottom;
position = "{377, 0}";
},
{
name = top;
position = "{377, 700}";
}
);
paths = (
{
closed = 1;
nodes = (
"576 -10 OFFCURVE",
"718 85 OFFCURVE",
"718 265 CURVE SMOOTH",
"718 395 LINE SMOOTH",
"718 410 OFFCURVE",
"706 422 OFFCURVE",
"691 422 CURVE SMOOTH",
"416 422 LINE SMOOTH",
"401 422 OFFCURVE",
"389 410 OFFCURVE",
"389 395 CURVE SMOOTH",
"389 284 LINE SMOOTH",
"389 269 OFFCURVE",
"401 257 OFFCURVE",
"416 257 CURVE SMOOTH",
"463 257 LINE",
"463 256 LINE",
"463 205 OFFCURVE",
"428 185 OFFCURVE",
"378 185 CURVE SMOOTH",
"329 185 OFFCURVE",
"299 210 OFFCURVE",
"297 270 CURVE",
"295 327 OFFCURVE",
"295 385 OFFCURVE",
"297 440 CURVE",
"299 490 OFFCURVE",
"325 515 OFFCURVE",
"374 515 CURVE SMOOTH",
"423 515 OFFCURVE",
"438 486 OFFCURVE",
"446 476 CURVE SMOOTH",
"452 469 OFFCURVE",
"460 465 OFFCURVE",
"475 465 CURVE SMOOTH",
"696 465 LINE SMOOTH",
"708 465 OFFCURVE",
"718 475 OFFCURVE",
"718 487 CURVE SMOOTH",
"715 608 OFFCURVE",
"585 710 OFFCURVE",
"374 710 CURVE SMOOTH",
"177 710 OFFCURVE",
"44 622 OFFCURVE",
"37 445 CURVE",
"35 388 OFFCURVE",
"35 319 OFFCURVE",
"37 265 CURVE SMOOTH",
"45 79 OFFCURVE",
"172 -10 OFFCURVE",
"374 -10 CURVE SMOOTH"
);
}
);
};
hints = (
{
horizontal = 1;
place = "{0, 0}";
type = Tag;
}
);
layerId = "EC64484B-0978-4CB1-9EE9-C40A2D8C4059";
paths = (
{
closed = 1;
nodes = (
"379.643 -42.747 OFFCURVE",
"479.655 -33.752 OFFCURVE",
"474.012 28.995 CURVE",
"492.543 -39.544 OFFCURVE",
"546.857 -24.859 OFFCURVE",
"528.326 43.68 CURVE",
"566.571 -20.836 OFFCURVE",
"659.327 34.15 OFFCURVE",
"621.082 98.666 CURVE",
"673.307 69.127 OFFCURVE",
"733.797 176.071 OFFCURVE",
"681.573 205.611 CURVE",
"756.401 200.54 OFFCURVE",
"762.828 295.384 OFFCURVE",
"688 300.455 CURVE",
"766 300.455 OFFCURVE",
"766 379.242 OFFCURVE",
"688 379.242 CURVE",
"692.978 429.396 OFFCURVE",
"564.457 442.154 OFFCURVE",
"559.478 392 CURVE",
"559.105 446.399 OFFCURVE",
"418.627 445.434 OFFCURVE",
"419 391.036 CURVE",
"361.4 391.036 OFFCURVE",
"361.4 347.429 OFFCURVE",
"419 347.429 CURVE",
"363 347.429 OFFCURVE",
"363 295.893 OFFCURVE",
"419 295.893 CURVE",
"382.87 245.017 OFFCURVE",
"456.317 192.858 OFFCURVE",
"492.447 243.735 CURVE",
"433.252 265.298 OFFCURVE",
"415.271 215.936 OFFCURVE",
"474.466 194.373 CURVE",
"429.335 254.275 OFFCURVE",
"390.577 225.074 OFFCURVE",
"435.708 165.172 CURVE",
"435.354 241.172 OFFCURVE",
"326.197 240.663 OFFCURVE",
"326.551 164.664 CURVE",
"369.055 202.343 OFFCURVE",
"316.917 261.158 OFFCURVE",
"274.413 223.479 CURVE",
"334.101 229.591 OFFCURVE",
"325.693 311.691 OFFCURVE",
"266.006 305.579 CURVE",
"321.204 306.016 OFFCURVE",
"320.72 367 OFFCURVE",
"265.522 366.562 CURVE",
"317.515 365.729 OFFCURVE",
"318.427 422.642 OFFCURVE",
"266.434 423.475 CURVE",
"326.816 409.404 OFFCURVE",
"345.277 488.625 OFFCURVE",
"284.895 502.696 CURVE",
"311.057 447.591 OFFCURVE",
"400.162 489.895 OFFCURVE",
"374 545 CURVE",
"349.363 481.62 OFFCURVE",
"477.988 431.62 OFFCURVE",
"502.625 495 CURVE",
"502.625 447 OFFCURVE",
"652.589 447 OFFCURVE",
"652.589 495 CURVE",
"704.382 490.361 OFFCURVE",
"711.012 564.385 OFFCURVE",
"659.22 569.024 CURVE",
"697.621 618.968 OFFCURVE",
"600.203 693.871 OFFCURVE",
"561.802 643.927 CURVE",
"579.169 702.403 OFFCURVE",
"483.323 730.867 OFFCURVE",
"465.957 672.391 CURVE",
"473.473 743.998 OFFCURVE",
"405.727 751.109 OFFCURVE",
"398.21 679.503 CURVE",
"394.555 749.407 OFFCURVE",
"286.543 743.758 OFFCURVE",
"290.199 673.854 CURVE",
"275.567 736.159 OFFCURVE",
"217.141 722.438 OFFCURVE",
"231.773 660.133 CURVE",
"206.211 722.065 OFFCURVE",
"161.835 703.749 OFFCURVE",
"187.398 641.817 CURVE",
"142.211 691.286 OFFCURVE",
"54.64 611.296 OFFCURVE",
"99.827 561.827 CURVE",
"46.753 573.766 OFFCURVE",
"13.022 423.809 OFFCURVE",
"66.096 411.87 CURVE",
"1.096 411.945 OFFCURVE",
"0.97 303.47 OFFCURVE",
"65.97 303.395 CURVE",
"-8.756 296.995 OFFCURVE",
"-0.796 204.049 OFFCURVE",
"73.931 210.45 CURVE",
"17.039 183.388 OFFCURVE",
"64.701 83.189 OFFCURVE",
"121.593 110.251 CURVE",
"81.434 60.418 OFFCURVE",
"143.425 10.462 OFFCURVE",
"183.583 60.294 CURVE",
"158.847 -0.895 OFFCURVE",
"218.11 -24.852 OFFCURVE",
"242.846 36.337 CURVE"
);
}
);
width = 753;
},
{
anchors = (
{
name = bottom;
position = "{377, 0}";
},
{
name = top;
position = "{377, 700}";
}
);
associatedMasterId = "EC64484B-0978-4CB1-9EE9-C40A2D8C4059";
background = {
anchors = (
{
name = bottom;
position = "{377, 0}";
},
{
name = top;
position = "{377, 700}";
}
);
paths = (
{
closed = 1;
nodes = (
"576 -10 OFFCURVE",
"718 85 OFFCURVE",
"718 265 CURVE SMOOTH",
"718 395 LINE SMOOTH",
"718 410 OFFCURVE",
"706 422 OFFCURVE",
"691 422 CURVE SMOOTH",
"416 422 LINE SMOOTH",
"401 422 OFFCURVE",
"389 410 OFFCURVE",
"389 395 CURVE SMOOTH",
"389 284 LINE SMOOTH",
"389 269 OFFCURVE",
"401 257 OFFCURVE",
"416 257 CURVE SMOOTH",
"463 257 LINE",
"463 256 LINE",
"463 205 OFFCURVE",
"428 185 OFFCURVE",
"378 185 CURVE SMOOTH",
"329 185 OFFCURVE",
"299 210 OFFCURVE",
"297 270 CURVE",
"295 327 OFFCURVE",
"295 385 OFFCURVE",
"297 440 CURVE",
"299 490 OFFCURVE",
"325 515 OFFCURVE",
"374 515 CURVE SMOOTH",
"423 515 OFFCURVE",
"438 486 OFFCURVE",
"446 476 CURVE SMOOTH",
"452 469 OFFCURVE",
"460 465 OFFCURVE",
"475 465 CURVE SMOOTH",
"696 465 LINE SMOOTH",
"708 465 OFFCURVE",
"718 475 OFFCURVE",
"718 487 CURVE SMOOTH",
"715 608 OFFCURVE",
"585 710 OFFCURVE",
"374 710 CURVE SMOOTH",
"177 710 OFFCURVE",
"44 622 OFFCURVE",
"37 445 CURVE",
"35 388 OFFCURVE",
"35 319 OFFCURVE",
"37 265 CURVE SMOOTH",
"45 79 OFFCURVE",
"172 -10 OFFCURVE",
"374 -10 CURVE SMOOTH"
);
}
);
};
color = 6;
hints = (
{
horizontal = 1;
place = "{0, 0}";
type = Tag;
}
);
layerId = "DFFC05DF-9BED-46F7-A903-EB6777515B2A";
name = "Jul 23 21, 16:38";
paths = (
{
closed = 1;
nodes = (
"576 -10 OFFCURVE",
"718 85 OFFCURVE",
"718 265 CURVE SMOOTH",
"718 395 LINE SMOOTH",
"718 410 OFFCURVE",
"706 422 OFFCURVE",
"691 422 CURVE SMOOTH",
"416 422 LINE SMOOTH",
"401 422 OFFCURVE",
"389 410 OFFCURVE",
"389 395 CURVE SMOOTH",
"389 284 LINE SMOOTH",
"389 269 OFFCURVE",
"401 257 OFFCURVE",
"416 257 CURVE SMOOTH",
"463 257 LINE",
"463 256 LINE",
"463 205 OFFCURVE",
"428 185 OFFCURVE",
"378 185 CURVE SMOOTH",
"329 185 OFFCURVE",
"299 210 OFFCURVE",
"297 270 CURVE",
"295 327 OFFCURVE",
"295 385 OFFCURVE",
"297 440 CURVE",
"299 490 OFFCURVE",
"325 515 OFFCURVE",
"374 515 CURVE SMOOTH",
"423 515 OFFCURVE",
"438 486 OFFCURVE",
"446 476 CURVE SMOOTH",
"452 469 OFFCURVE",
"460 465 OFFCURVE",
"475 465 CURVE SMOOTH",
"696 465 LINE SMOOTH",
"708 465 OFFCURVE",
"718 475 OFFCURVE",
"718 487 CURVE SMOOTH",
"715 608 OFFCURVE",
"585 710 OFFCURVE",
"374 710 CURVE SMOOTH",
"177 710 OFFCURVE",
"44 622 OFFCURVE",
"37 445 CURVE",
"35 388 OFFCURVE",
"35 319 OFFCURVE",
"37 265 CURVE SMOOTH",
"45 79 OFFCURVE",
"172 -10 OFFCURVE",
"374 -10 CURVE SMOOTH"
);
}
);
width = 753;
}
);
leftKerningGroup = O;
rightKerningGroup = G;
unicode = 0047;
userData = {
com.typemytype.robofont.guides = (
{
angle = 0;
isGlobal = 0;
magnetic = 5;
x = 0;
y = "-10";
},
{
angle = 0;
isGlobal = 0;
magnetic = 5;
x = 0;
y = 260;
},
{
angle = 0;
isGlobal = 0;
magnetic = 5;
x = 0;
y = 440;
},
{
angle = 90;
isGlobal = 0;
magnetic = 5;
x = 334;
y = 0;
},
{
angle = 90;
isGlobal = 0;
magnetic = 5;
x = 133;
y = 0;
},
{
angle = 90;
isGlobal = 0;
magnetic = 5;
x = 604;
y = 0;
},
{
angle = 90;
isGlobal = 0;
magnetic = 5;
x = 67;
y = 0;
}
);
};
},
{
color = 6;
glyphname = H;
layers = (
{
anchors = (
{
name = bottom;
position = "{386, 0}";
},
{
name = center;
position = "{386, 350}";
},
{
name = top;
position = "{386, 700}";
},
{
name = topleft;
position = "{20, 700}";
}
);
background = {
anchors = (
{
name = bottom;
position = "{386, 0}";
},
{
name = center;
position = "{386, 350}";
},
{
name = top;
position = "{386, 700}";
},
{
name = topleft;
position = "{20, 700}";
}
);
paths = (
{
closed = 1;
nodes = (
"278 0 LINE SMOOTH",
"293 0 OFFCURVE",
"305 12 OFFCURVE",
"305 27 CURVE SMOOTH",
"305 243 LINE",
"467 243 LINE",
"467 27 LINE SMOOTH",
"467 12 OFFCURVE",
"479 0 OFFCURVE",
"494 0 CURVE SMOOTH",
"690 0 LINE SMOOTH",
"705 0 OFFCURVE",
"717 12 OFFCURVE",
"717 27 CURVE SMOOTH",
"717 673 LINE SMOOTH",
"717 688 OFFCURVE",
"705 700 OFFCURVE",
"690 700 CURVE SMOOTH",
"494 700 LINE SMOOTH",
"479 700 OFFCURVE",
"467 688 OFFCURVE",
"467 673 CURVE SMOOTH",
"467 463 LINE",
"305 463 LINE",
"305 673 LINE SMOOTH",
"305 688 OFFCURVE",
"293 700 OFFCURVE",
"278 700 CURVE SMOOTH",
"82 700 LINE SMOOTH",
"67 700 OFFCURVE",
"55 688 OFFCURVE",
"55 673 CURVE SMOOTH",
"55 27 LINE SMOOTH",
"55 11 OFFCURVE",
"67 0 OFFCURVE",
"82 0 CURVE SMOOTH"
);
}
);
};
layerId = "EC64484B-0978-4CB1-9EE9-C40A2D8C4059";
paths = (
{
closed = 1;
nodes = (
"82 -40 OFFCURVE",
"122 -40 OFFCURVE",
"122 30 CURVE",
"122 -48 OFFCURVE",
"166 -48 OFFCURVE",
"166 30 CURVE",
"166 -33 OFFCURVE",
"238 -33 OFFCURVE",
"238 30 CURVE",
"239.961 -44.974 OFFCURVE",
"276.961 -44.007 OFFCURVE",
"275 30.968 CURVE",
"340 30.968 OFFCURVE",
"340 106.355 OFFCURVE",
"275 106.355 CURVE",
"352 106.355 OFFCURVE",
"352 150 OFFCURVE",
"275 150 CURVE",
"350 150 OFFCURVE",
"350 209.516 OFFCURVE",
"275 209.516 CURVE",
"342.997 171.301 OFFCURVE",
"378.676 234.785 OFFCURVE",
"310.679 273 CURVE",
"310.679 207 OFFCURVE",
"457.357 207 OFFCURVE",
"457.357 273 CURVE",
"383.615 244.662 OFFCURVE",
"423.257 141.501 OFFCURVE",
"497 169.839 CURVE",
"437 169.839 OFFCURVE",
"437 27 OFFCURVE",
"497 27 CURVE",
"498.898 -41.974 OFFCURVE",
"607.898 -38.974 OFFCURVE",
"606 30 CURVE",
"629.866 -22.423 OFFCURVE",
"710.866 14.454 OFFCURVE",
"687 66.877 CURVE",
"748 66.877 OFFCURVE",
"748 150.617 OFFCURVE",
"687 150.617 CURVE",
"751 150.617 OFFCURVE",
"751 190.494 OFFCURVE",
"687 190.494 CURVE",
"766 190.494 OFFCURVE",
"766 318.099 OFFCURVE",
"687 318.099 CURVE",
"766 318.099 OFFCURVE",
"766 437.728 OFFCURVE",
"687 437.728 CURVE",
"763 437.728 OFFCURVE",
"763 569.321 OFFCURVE",
"687 569.321 CURVE",
"735.138 581.274 OFFCURVE",
"710.138 681.953 OFFCURVE",
"662 670 CURVE",
"662 748 OFFCURVE",
"590 748 OFFCURVE",
"590 670 CURVE",
"589.269 737.996 OFFCURVE",
"496.269 736.996 OFFCURVE",
"497 669 CURVE",
"418 669 OFFCURVE",
"418 549 OFFCURVE",
"497 549 CURVE",
"428 549 OFFCURVE",
"428 469 OFFCURVE",
"497 469 CURVE",
"459.587 518.439 OFFCURVE",
"412.015 482.439 OFFCURVE",
"449.429 433 CURVE",
"449.429 507 OFFCURVE",
"322.571 507 OFFCURVE",
"322.571 433 CURVE",
"377.992 462.959 OFFCURVE",
"330.42 550.959 OFFCURVE",
"275 521 CURVE",
"354 521 OFFCURVE",
"354 617 OFFCURVE",
"275 617 CURVE",
"336.125 627.38 OFFCURVE",
"327.125 680.38 OFFCURVE",
"266 670 CURVE",
"266 744 OFFCURVE",
"178 744 OFFCURVE",
"178 670 CURVE",
"178 749 OFFCURVE",
"86 749 OFFCURVE",
"86 670 CURVE",
"23.003 670.652 OFFCURVE",
"22.003 573.96 OFFCURVE",
"85 573.309 CURVE",
"15 573.309 OFFCURVE",
"15 449.691 OFFCURVE",
"85 449.691 CURVE",
"8 449.691 OFFCURVE",
"8 334.049 OFFCURVE",
"85 334.049 CURVE",
"19 334.049 OFFCURVE",
"19 258.284 OFFCURVE",
"85 258.284 CURVE",
"16 258.284 OFFCURVE",
"16 214.42 OFFCURVE",
"85 214.42 CURVE",
"18 214.42 OFFCURVE",
"18 138.654 OFFCURVE",
"85 138.654 CURVE"
);
}
);
width = 772;
},
{
anchors = (
{
name = bottom;
position = "{386, 0}";
},
{
name = center;
position = "{386, 350}";
},
{
name = top;
position = "{386, 700}";
},
{
name = topleft;
position = "{20, 700}";
}
);
associatedMasterId = "EC64484B-0978-4CB1-9EE9-C40A2D8C4059";
background = {
anchors = (
{
name = bottom;
position = "{386, 0}";
},
{
name = center;
position = "{386, 350}";
},
{
name = top;
position = "{386, 700}";
},
{
name = topleft;
position = "{20, 700}";
}
);
paths = (
{
closed = 1;
nodes = (
"278 0 LINE SMOOTH",
"293 0 OFFCURVE",
"305 12 OFFCURVE",
"305 27 CURVE SMOOTH",
"305 243 LINE",
"467 243 LINE",
"467 27 LINE SMOOTH",
"467 12 OFFCURVE",
"479 0 OFFCURVE",
"494 0 CURVE SMOOTH",
"690 0 LINE SMOOTH",
"705 0 OFFCURVE",
"717 12 OFFCURVE",
"717 27 CURVE SMOOTH",
"717 673 LINE SMOOTH",
"717 688 OFFCURVE",
"705 700 OFFCURVE",
"690 700 CURVE SMOOTH",
"494 700 LINE SMOOTH",
"479 700 OFFCURVE",
"467 688 OFFCURVE",
"467 673 CURVE SMOOTH",
"467 463 LINE",
"305 463 LINE",
"305 673 LINE SMOOTH",
"305 688 OFFCURVE",
"293 700 OFFCURVE",
"278 700 CURVE SMOOTH",
"82 700 LINE SMOOTH",
"67 700 OFFCURVE",
"55 688 OFFCURVE",
"55 673 CURVE SMOOTH",
"55 27 LINE SMOOTH",
"55 11 OFFCURVE",
"67 0 OFFCURVE",
"82 0 CURVE SMOOTH"
);
}
);
};
color = 6;
layerId = "C25F0CD2-EA53-4D84-B4DA-EB8960EDDA34";
name = "Jul 23 21, 16:38";
paths = (
{
closed = 1;
nodes = (
"278 0 LINE SMOOTH",
"293 0 OFFCURVE",
"305 12 OFFCURVE",
"305 27 CURVE SMOOTH",
"305 243 LINE",
"467 243 LINE",
"467 27 LINE SMOOTH",
"467 12 OFFCURVE",
"479 0 OFFCURVE",
"494 0 CURVE SMOOTH",
"690 0 LINE SMOOTH",
"705 0 OFFCURVE",
"717 12 OFFCURVE",
"717 27 CURVE SMOOTH",
"717 673 LINE SMOOTH",
"717 688 OFFCURVE",
"705 700 OFFCURVE",
"690 700 CURVE SMOOTH",
"494 700 LINE SMOOTH",
"479 700 OFFCURVE",
"467 688 OFFCURVE",
"467 673 CURVE SMOOTH",
"467 463 LINE",
"305 463 LINE",
"305 673 LINE SMOOTH",
"305 688 OFFCURVE",
"293 700 OFFCURVE",
"278 700 CURVE SMOOTH",
"82 700 LINE SMOOTH",
"67 700 OFFCURVE",
"55 688 OFFCURVE",
"55 673 CURVE SMOOTH",
"55 27 LINE SMOOTH",
"55 11 OFFCURVE",
"67 0 OFFCURVE",
"82 0 CURVE SMOOTH"
);
}
);
width = 772;
}
);
leftKerningGroup = I;
rightKerningGroup = I;
unicode = 0048;
userData = {
com.typemytype.robofont.guides = (
{
angle = 0;
isGlobal = 0;
magnetic = 5;
x = 0;
y = 350;
},
{
angle = 0;
isGlobal = 0;
magnetic = 5;
x = 0;
y = 9;
},
{
angle = 0;
isGlobal = 0;
magnetic = 5;
x = 0;
y = 691;
},
{
angle = 90;
isGlobal = 0;
magnetic = 5;
x = 94;
y = 0;
},
{
angle = 90;
isGlobal = 0;
magnetic = 5;
x = 139;
y = 0;
},
{
angle = 90;
isGlobal = 0;
magnetic = 5;
x = 543;
y = 0;
},
{
angle = 90;
isGlobal = 0;
magnetic = 5;
x = 588;
y = 0;
}
);
};
},
{
color = 3;
glyphname = Hbar;
layers = (
{
background = {
components = (
{
name = H;
}
);
paths = (
{
closed = 1;
nodes = (
"682 521 LINE SMOOTH",
"697 521 OFFCURVE",
"709 533 OFFCURVE",
"709 548 CURVE SMOOTH",
"709 616 LINE SMOOTH",
"709 631 OFFCURVE",
"697 643 OFFCURVE",
"682 643 CURVE SMOOTH",
"88 643 LINE SMOOTH",
"73 643 OFFCURVE",
"61 631 OFFCURVE",
"61 616 CURVE SMOOTH",
"61 548 LINE SMOOTH",
"61 533 OFFCURVE",
"73 521 OFFCURVE",
"88 521 CURVE SMOOTH"
);
}
);
};
components = (
{
name = H;
}
);
hints = (
{
horizontal = 1;
place = "{0, 0}";
type = Tag;
}
);
layerId = "EC64484B-0978-4CB1-9EE9-C40A2D8C4059";
paths = (
{
closed = 1;
nodes = (
"88 485 OFFCURVE",
"235.503 485 OFFCURVE",
"235.503 551 CURVE",
"235.503 489 OFFCURVE",
"359.087 489 OFFCURVE",
"359.087 551 CURVE",
"359.087 473 OFFCURVE",
"418.886 473 OFFCURVE",
"418.886 551 CURVE",
"418.886 478 OFFCURVE",
"574.362 478 OFFCURVE",
"574.362 551 CURVE",
"574.362 480 OFFCURVE",
"642.134 480 OFFCURVE",
"642.134 551 CURVE",
"642.134 489 OFFCURVE",
"682 489 OFFCURVE",
"682 551 CURVE",
"716.457 593.096 OFFCURVE",
"640.712 655.096 OFFCURVE",
"606.255 613 CURVE",
"606.255 683 OFFCURVE",
"470.711 683 OFFCURVE",
"470.711 613 CURVE",
"470.711 676 OFFCURVE",
"335.168 676 OFFCURVE",
"335.168 613 CURVE",
"335.168 677 OFFCURVE",
"287.329 677 OFFCURVE",
"287.329 613 CURVE",
"287.329 690 OFFCURVE",
"143.812 690 OFFCURVE",
"143.812 613 CURVE",
"112.681 649.536 OFFCURVE",
"59.869 604.536 OFFCURVE",
"91 568 CURVE"
);
}
);
width = 772;
},
{
associatedMasterId = "EC64484B-0978-4CB1-9EE9-C40A2D8C4059";
background = {
components = (
{
name = H;
}
);
paths = (
{
closed = 1;
nodes = (
"682 521 LINE SMOOTH",
"697 521 OFFCURVE",
"709 533 OFFCURVE",
"709 548 CURVE SMOOTH",
"709 616 LINE SMOOTH",
"709 631 OFFCURVE",
"697 643 OFFCURVE",
"682 643 CURVE SMOOTH",
"88 643 LINE SMOOTH",
"73 643 OFFCURVE",
"61 631 OFFCURVE",
"61 616 CURVE SMOOTH",
"61 548 LINE SMOOTH",
"61 533 OFFCURVE",
"73 521 OFFCURVE",
"88 521 CURVE SMOOTH"
);
}
);
};
color = 3;
components = (
{
name = H;
}
);
hints = (
{
horizontal = 1;
place = "{0, 0}";
type = Tag;
}
);
layerId = "31F3D2E9-3D26-412B-8554-491907C50EF5";
name = "Jul 23 21, 16:38";
paths = (
{
closed = 1;
nodes = (
"682 521 LINE SMOOTH",
"697 521 OFFCURVE",
"709 533 OFFCURVE",
"709 548 CURVE SMOOTH",
"709 616 LINE SMOOTH",
"709 631 OFFCURVE",
"697 643 OFFCURVE",
"682 643 CURVE SMOOTH",
"88 643 LINE SMOOTH",
"73 643 OFFCURVE",
"61 631 OFFCURVE",
"61 616 CURVE SMOOTH",
"61 548 LINE SMOOTH",
"61 533 OFFCURVE",
"73 521 OFFCURVE",
"88 521 CURVE SMOOTH"
);
}
);
width = 772;
}
);
leftKerningGroup = I;
rightKerningGroup = I;
unicode = 0126;
},
{
color = 6;
glyphname = I;
layers = (
{
anchors = (
{
name = bottom;
position = "{184, 0}";
},
{
name = ogonek;
position = "{301, 122}";
},
{
name = top;
position = "{184, 700}";
},
{
name = topleft;
position = "{20, 700}";
}
);
background = {
anchors = (
{
name = bottom;
position = "{184, 0}";
},
{
name = ogonek;
position = "{301, 122}";
},
{
name = top;
position = "{184, 700}";
},
{
name = topleft;
position = "{20, 700}";
}
);
paths = (
{
closed = 1;
nodes = (
"286 0 LINE SMOOTH",
"301 0 OFFCURVE",
"313 12 OFFCURVE",
"313 27 CURVE SMOOTH",
"313 673 LINE SMOOTH",
"313 688 OFFCURVE",
"301 700 OFFCURVE",
"286 700 CURVE SMOOTH",
"82 700 LINE SMOOTH",
"67 700 OFFCURVE",
"55 688 OFFCURVE",
"55 673 CURVE SMOOTH",
"55 27 LINE SMOOTH",
"55 12 OFFCURVE",
"67 0 OFFCURVE",
"82 0 CURVE SMOOTH"
);
}
);
};
layerId = "EC64484B-0978-4CB1-9EE9-C40A2D8C4059";
paths = (
{
closed = 1;
nodes = (
"82 -36 OFFCURVE",
"218 -36 OFFCURVE",
"218 30 CURVE",
"246.624 -11.483 OFFCURVE",
"311.624 33.369 OFFCURVE",
"283 74.852 CURVE",
"346 74.852 OFFCURVE",
"346 222.395 OFFCURVE",
"283 222.395 CURVE",
"353 222.395 OFFCURVE",
"353 274.235 OFFCURVE",
"283 274.235 CURVE",
"360 274.235 OFFCURVE",
"360 389.877 OFFCURVE",
"283 389.877 CURVE",
"343 389.877 OFFCURVE",
"343 465.642 OFFCURVE",
"283 465.642 CURVE",
"358 465.642 OFFCURVE",
"358 505.519 OFFCURVE",
"283 505.519 CURVE",
"348 505.519 OFFCURVE",
"348 601.222 OFFCURVE",
"283 601.222 CURVE",
"334.473 637.894 OFFCURVE",
"285.473 706.671 OFFCURVE",
"234 670 CURVE",
"234 742 OFFCURVE",
"150 742 OFFCURVE",
"150 670 CURVE",
"111.596 708.529 OFFCURVE",
"46.596 643.739 OFFCURVE",
"85 605.21 CURVE",
"6 605.21 OFFCURVE",
"6 553.37 OFFCURVE",
"85 553.37 CURVE",
"23 553.37 OFFCURVE",
"23 405.827 OFFCURVE",
"85 405.827 CURVE",
"6 405.827 OFFCURVE",
"6 338.037 OFFCURVE",
"85 338.037 CURVE",
"22 338.037 OFFCURVE",
"22 190.494 OFFCURVE",
"85 190.494 CURVE",
"17 190.494 OFFCURVE",
"17 34.975 OFFCURVE",
"85 34.975 CURVE"
);
}
);
width = 368;
},
{
anchors = (
{
name = bottom;
position = "{184, 0}";
},
{
name = ogonek;
position = "{301, 122}";
},
{
name = top;
position = "{184, 700}";
},
{
name = topleft;
position = "{20, 700}";
}
);
associatedMasterId = "EC64484B-0978-4CB1-9EE9-C40A2D8C4059";
background = {
anchors = (
{
name = bottom;
position = "{184, 0}";
},
{
name = ogonek;
position = "{301, 122}";
},
{
name = top;
position = "{184, 700}";
},
{
name = topleft;
position = "{20, 700}";
}
);
paths = (
{
closed = 1;
nodes = (
"286 0 LINE SMOOTH",
"301 0 OFFCURVE",
"313 12 OFFCURVE",
"313 27 CURVE SMOOTH",
"313 673 LINE SMOOTH",
"313 688 OFFCURVE",
"301 700 OFFCURVE",
"286 700 CURVE SMOOTH",
"82 700 LINE SMOOTH",
"67 700 OFFCURVE",
"55 688 OFFCURVE",
"55 673 CURVE SMOOTH",
"55 27 LINE SMOOTH",
"55 12 OFFCURVE",
"67 0 OFFCURVE",
"82 0 CURVE SMOOTH"
);
}
);
};
color = 6;
layerId = "9AF7FB6B-A1E6-4272-8191-85F347570827";
name = "Jul 23 21, 16:38";
paths = (
{
closed = 1;
nodes = (
"286 0 LINE SMOOTH",
"301 0 OFFCURVE",
"313 12 OFFCURVE",
"313 27 CURVE SMOOTH",
"313 673 LINE SMOOTH",
"313 688 OFFCURVE",
"301 700 OFFCURVE",
"286 700 CURVE SMOOTH",
"82 700 LINE SMOOTH",
"67 700 OFFCURVE",
"55 688 OFFCURVE",
"55 673 CURVE SMOOTH",
"55 27 LINE SMOOTH",
"55 12 OFFCURVE",
"67 0 OFFCURVE",
"82 0 CURVE SMOOTH"
);
}
);
width = 368;
}
);
leftKerningGroup = I;
rightKerningGroup = I;
unicode = 0049;
userData = {
com.typemytype.robofont.guides = (
{
angle = 90;
isGlobal = 0;
magnetic = 5;
x = 85;
y = 0;
},
{
angle = 90;
isGlobal = 0;
magnetic = 5;
x = 148;
y = 0;
}
);
};
},
{
color = 6;
glyphname = IJ;
layers = (
{
background = {
paths = (
{
closed = 1;
nodes = (
"628 -10 OFFCURVE",
"758 45 OFFCURVE",
"758 258 CURVE SMOOTH",
"758 673 LINE SMOOTH",
"758 688 OFFCURVE",
"746 700 OFFCURVE",
"731 700 CURVE SMOOTH",
"526 700 LINE SMOOTH",
"511 700 OFFCURVE",
"499 688 OFFCURVE",
"499 673 CURVE",
"499 298 LINE SMOOTH",
"499 227 OFFCURVE",
"476 205 OFFCURVE",
"420 205 CURVE SMOOTH",
"405 205 OFFCURVE",
"393 193 OFFCURVE",
"393 178 CURVE SMOOTH",
"393 17 LINE SMOOTH",
"393 2 OFFCURVE",
"405 -10 OFFCURVE",
"420 -10 CURVE SMOOTH"
);
},
{
closed = 1;
nodes = (
"286 0 LINE SMOOTH",
"301 0 OFFCURVE",
"313 12 OFFCURVE",
"313 27 CURVE SMOOTH",
"313 673 LINE SMOOTH",
"313 688 OFFCURVE",
"301 700 OFFCURVE",
"286 700 CURVE SMOOTH",
"82 700 LINE SMOOTH",
"67 700 OFFCURVE",
"55 688 OFFCURVE",
"55 673 CURVE SMOOTH",
"55 27 LINE SMOOTH",
"55 12 OFFCURVE",
"67 0 OFFCURVE",
"82 0 CURVE SMOOTH"
);
}
);
};
hints = (
{
horizontal = 1;
place = "{0, 0}";
type = Tag;
}
);
layerId = "EC64484B-0978-4CB1-9EE9-C40A2D8C4059";
paths = (
{
closed = 1;
nodes = (
"82 -41 OFFCURVE",
"198 -41 OFFCURVE",
"198 30 CURVE",
"208.995 -42.167 OFFCURVE",
"293.995 -29.217 OFFCURVE",
"283 42.951 CURVE",
"339.8 42.951 OFFCURVE",
"339.8 178.531 OFFCURVE",
"283 178.531 CURVE",
"359 178.531 OFFCURVE",
"359 318.099 OFFCURVE",
"283 318.099 CURVE",
"347 318.099 OFFCURVE",
"347 473.617 OFFCURVE",
"283 473.617 CURVE",
"344 473.617 OFFCURVE",
"344 553.37 OFFCURVE",
"283 553.37 CURVE",
"357.997 554.013 OFFCURVE",
"356.997 670.643 OFFCURVE",
"282 670 CURVE",
"282 741 OFFCURVE",
"134 741 OFFCURVE",
"134 670 CURVE",
"92.952 699.244 OFFCURVE",
"43.952 630.466 OFFCURVE",
"85 601.222 CURVE",
"16 601.222 OFFCURVE",
"16 453.679 OFFCURVE",
"85 453.679 CURVE",
"14 453.679 OFFCURVE",
"14 389.877 OFFCURVE",
"85 389.877 CURVE",
"14 389.877 OFFCURVE",
"14 322.086 OFFCURVE",
"85 322.086 CURVE",
"6 322.086 OFFCURVE",
"6 238.346 OFFCURVE",
"85 238.346 CURVE",
"12 238.346 OFFCURVE",
"12 178.531 OFFCURVE",
"85 178.531 CURVE",
"13 178.531 OFFCURVE",
"13 90.802 OFFCURVE",
"85 90.802 CURVE"
);
},
{
closed = 1;
nodes = (
"424.498 -42.839 OFFCURVE",
"544.066 -34.281 OFFCURVE",
"539.568 28.558 CURVE",
"554.619 -36.73 OFFCURVE",
"601.362 -25.955 OFFCURVE",
"586.312 39.333 CURVE",
"620.62 -28.483 OFFCURVE",
"695.104 9.199 OFFCURVE",
"660.796 77.015 CURVE",
"716.869 27.206 OFFCURVE",
"751.25 65.911 OFFCURVE",
"695.178 115.719 CURVE",
"753.186 93.832 OFFCURVE",
"779.861 164.529 OFFCURVE",
"721.853 186.416 CURVE",
"784.775 183.284 OFFCURVE",
"790.922 306.742 OFFCURVE",
"728 309.875 CURVE",
"804 309.875 OFFCURVE",
"804 397.663 OFFCURVE",
"728 397.663 CURVE",
"790 397.663 OFFCURVE",
"790 453.529 OFFCURVE",
"728 453.529 CURVE",
"798 453.529 OFFCURVE",
"798 605.163 OFFCURVE",
"728 605.163 CURVE",
"807 605.163 OFFCURVE",
"807 673 OFFCURVE",
"728 673 CURVE",
"726.614 738.985 OFFCURVE",
"583.749 735.985 OFFCURVE",
"585.135 670 CURVE",
"545.061 697.849 OFFCURVE",
"488.926 617.072 OFFCURVE",
"529 589.223 CURVE",
"462 589.223 OFFCURVE",
"462 433.638 OFFCURVE",
"529 433.638 CURVE",
"469 433.638 OFFCURVE",
"469 301.989 OFFCURVE",
"529 301.989 CURVE",
"459.026 314.014 OFFCURVE",
"445.579 235.767 OFFCURVE",
"515.553 223.742 CURVE",
"479.616 290.709 OFFCURVE",
"387.062 241.039 OFFCURVE",
"423 174.073 CURVE",
"360.6 174.073 OFFCURVE",
"360.6 107.317 OFFCURVE",
"423 107.317 CURVE"
);
}
);
width = 807;
},
{
associatedMasterId = "EC64484B-0978-4CB1-9EE9-C40A2D8C4059";
background = {
paths = (
{
closed = 1;
nodes = (
"628 -10 OFFCURVE",
"758 45 OFFCURVE",
"758 258 CURVE SMOOTH",
"758 673 LINE SMOOTH",
"758 688 OFFCURVE",
"746 700 OFFCURVE",
"731 700 CURVE SMOOTH",
"526 700 LINE SMOOTH",
"511 700 OFFCURVE",
"499 688 OFFCURVE",
"499 673 CURVE",
"499 298 LINE SMOOTH",
"499 227 OFFCURVE",
"476 205 OFFCURVE",
"420 205 CURVE SMOOTH",
"405 205 OFFCURVE",
"393 193 OFFCURVE",
"393 178 CURVE SMOOTH",
"393 17 LINE SMOOTH",
"393 2 OFFCURVE",
"405 -10 OFFCURVE",
"420 -10 CURVE SMOOTH"
);
},
{
closed = 1;
nodes = (
"286 0 LINE SMOOTH",
"301 0 OFFCURVE",
"313 12 OFFCURVE",
"313 27 CURVE SMOOTH",
"313 673 LINE SMOOTH",
"313 688 OFFCURVE",
"301 700 OFFCURVE",
"286 700 CURVE SMOOTH",
"82 700 LINE SMOOTH",
"67 700 OFFCURVE",
"55 688 OFFCURVE",
"55 673 CURVE SMOOTH",
"55 27 LINE SMOOTH",
"55 12 OFFCURVE",
"67 0 OFFCURVE",
"82 0 CURVE SMOOTH"
);
}
);
};
color = 6;
hints = (
{
horizontal = 1;
place = "{0, 0}";
type = Tag;
}
);
layerId = "BF188397-8A0A-4129-8D23-C110CDC43C29";
name = "Jul 23 21, 16:38";
paths = (
{
closed = 1;
nodes = (
"628 -10 OFFCURVE",
"758 45 OFFCURVE",
"758 258 CURVE SMOOTH",
"758 673 LINE SMOOTH",
"758 688 OFFCURVE",
"746 700 OFFCURVE",
"731 700 CURVE SMOOTH",
"526 700 LINE SMOOTH",
"511 700 OFFCURVE",
"499 688 OFFCURVE",
"499 673 CURVE",
"499 298 LINE SMOOTH",
"499 227 OFFCURVE",
"476 205 OFFCURVE",
"420 205 CURVE SMOOTH",
"405 205 OFFCURVE",
"393 193 OFFCURVE",
"393 178 CURVE SMOOTH",
"393 17 LINE SMOOTH",
"393 2 OFFCURVE",
"405 -10 OFFCURVE",
"420 -10 CURVE SMOOTH"
);
},
{
closed = 1;
nodes = (
"286 0 LINE SMOOTH",
"301 0 OFFCURVE",
"313 12 OFFCURVE",
"313 27 CURVE SMOOTH",
"313 673 LINE SMOOTH",
"313 688 OFFCURVE",
"301 700 OFFCURVE",
"286 700 CURVE SMOOTH",
"82 700 LINE SMOOTH",
"67 700 OFFCURVE",
"55 688 OFFCURVE",
"55 673 CURVE SMOOTH",
"55 27 LINE SMOOTH",
"55 12 OFFCURVE",
"67 0 OFFCURVE",
"82 0 CURVE SMOOTH"
);
}
);
width = 807;
}
);
leftKerningGroup = I;
unicode = 0132;
userData = {
com.typemytype.robofont.guides = (
{
angle = 90;
isGlobal = 0;
magnetic = 5;
x = 642;
y = 0;
}
);
};
},
{
color = 6;
glyphname = Iogonek;
layers = (
{
background = {
paths = (
{
closed = 1;
nodes = (
"286 -222 LINE SMOOTH",
"301 -222 OFFCURVE",
"313 -210 OFFCURVE",
"313 -195 CURVE SMOOTH",
"313 -127 LINE SMOOTH",
"313 -112 OFFCURVE",
"301 -100 OFFCURVE",
"286 -100 CURVE SMOOTH",
"276 -100 LINE",
"237 -100 OFFCURVE",
"226 -71 OFFCURVE",
"226 -50 CURVE SMOOTH",
"226 -29 OFFCURVE",
"237 0 OFFCURVE",
"276 0 CURVE SMOOTH",
"286 0 LINE SMOOTH",
"301 0 OFFCURVE",
"313 12 OFFCURVE",
"313 27 CURVE SMOOTH",
"313 673 LINE SMOOTH",
"313 688 OFFCURVE",
"301 700 OFFCURVE",
"286 700 CURVE SMOOTH",
"82 700 LINE SMOOTH",
"67 700 OFFCURVE",
"55 688 OFFCURVE",
"55 673 CURVE SMOOTH",
"55 27 LINE SMOOTH",
"55 12 OFFCURVE",
"67 0 OFFCURVE",
"82 0 CURVE SMOOTH",
"105 0 LINE",
"102 -16 OFFCURVE",
"100 -32 OFFCURVE",
"100 -50 CURVE SMOOTH",
"100 -145 OFFCURVE",
"151 -222 OFFCURVE",
"272 -222 CURVE SMOOTH"
);
}
);
};
hints = (
{
horizontal = 1;
place = "{0, 0}";
type = Tag;
}
);
layerId = "EC64484B-0978-4CB1-9EE9-C40A2D8C4059";
paths = (
{
closed = 1;
nodes = (
"322.283 -182.352 OFFCURVE",
"310.123 -118.98 OFFCURVE",
"259.84 -128.629 CURVE",
"319.234 -82.832 OFFCURVE",
"255.477 -0.145 OFFCURVE",
"196.083 -45.941 CURVE",
"245.783 -87.833 OFFCURVE",
"308.475 -13.456 OFFCURVE",
"258.775 28.436 CURVE",
"275.195 -32.387 OFFCURVE",
"299.419 -25.847 OFFCURVE",
"283 34.975 CURVE",
"346 34.975 OFFCURVE",
"346 182.519 OFFCURVE",
"283 182.519 CURVE",
"351 182.519 OFFCURVE",
"351 302.148 OFFCURVE",
"283 302.148 CURVE",
"362 302.148 OFFCURVE",
"362 457.667 OFFCURVE",
"283 457.667 CURVE",
"345 457.667 OFFCURVE",
"345 533.432 OFFCURVE",
"283 533.432 CURVE",
"349 533.432 OFFCURVE",
"349 597.235 OFFCURVE",
"283 597.235 CURVE",
"334.278 617.671 OFFCURVE",
"305.278 690.436 OFFCURVE",
"254 670 CURVE",
"254 739 OFFCURVE",
"206 739 OFFCURVE",
"206 670 CURVE",
"206 734 OFFCURVE",
"126 734 OFFCURVE",
"126 670 CURVE",
"131.765 748.789 OFFCURVE",
"90.765 751.789 OFFCURVE",
"85 673 CURVE",
"22 673 OFFCURVE",
"22 585.272 OFFCURVE",
"85 585.272 CURVE",
"21 585.272 OFFCURVE",
"21 441.716 OFFCURVE",
"85 441.716 CURVE",
"22 441.716 OFFCURVE",
"22 338.037 OFFCURVE",
"85 338.037 CURVE",
"7 338.037 OFFCURVE",
"7 278.222 OFFCURVE",
"85 278.222 CURVE",
"9 278.222 OFFCURVE",
"9 122.704 OFFCURVE",
"85 122.704 CURVE",
"22 122.704 OFFCURVE",
"22 78.84 OFFCURVE",
"85 78.84 CURVE",
"8 78.84 OFFCURVE",
"8 30.988 OFFCURVE",
"85 30.988 CURVE",
"64.414 -42.171 OFFCURVE",
"89.248 -49.159 OFFCURVE",
"109.833 24 CURVE",
"55.574 -3.873 OFFCURVE",
"77.669 -46.885 OFFCURVE",
"131.929 -19.012 CURVE",
"80.795 -35.084 OFFCURVE",
"126.814 -181.498 OFFCURVE",
"177.947 -165.426 CURVE",
"150.279 -224.244 OFFCURVE",
"194.044 -244.831 OFFCURVE",
"221.712 -186.013 CURVE"
);
}
);
width = 368;
},
{
associatedMasterId = "EC64484B-0978-4CB1-9EE9-C40A2D8C4059";
background = {
paths = (
{
closed = 1;
nodes = (
"286 -222 LINE SMOOTH",
"301 -222 OFFCURVE",
"313 -210 OFFCURVE",
"313 -195 CURVE SMOOTH",
"313 -127 LINE SMOOTH",
"313 -112 OFFCURVE",
"301 -100 OFFCURVE",
"286 -100 CURVE SMOOTH",
"276 -100 LINE",
"237 -100 OFFCURVE",
"226 -71 OFFCURVE",
"226 -50 CURVE SMOOTH",
"226 -29 OFFCURVE",
"237 0 OFFCURVE",
"276 0 CURVE SMOOTH",
"286 0 LINE SMOOTH",
"301 0 OFFCURVE",
"313 12 OFFCURVE",
"313 27 CURVE SMOOTH",
"313 673 LINE SMOOTH",
"313 688 OFFCURVE",
"301 700 OFFCURVE",
"286 700 CURVE SMOOTH",
"82 700 LINE SMOOTH",
"67 700 OFFCURVE",
"55 688 OFFCURVE",
"55 673 CURVE SMOOTH",
"55 27 LINE SMOOTH",
"55 12 OFFCURVE",
"67 0 OFFCURVE",
"82 0 CURVE SMOOTH",
"105 0 LINE",
"102 -16 OFFCURVE",
"100 -32 OFFCURVE",
"100 -50 CURVE SMOOTH",
"100 -145 OFFCURVE",
"151 -222 OFFCURVE",
"272 -222 CURVE SMOOTH"
);
}
);
};
color = 6;
hints = (
{
horizontal = 1;
place = "{0, 0}";
type = Tag;
}
);
layerId = "1E577A47-B5AD-4737-A55C-802D509F7A6F";
name = "Jul 23 21, 16:38";
paths = (
{
closed = 1;
nodes = (
"286 -222 LINE SMOOTH",
"301 -222 OFFCURVE",
"313 -210 OFFCURVE",
"313 -195 CURVE SMOOTH",
"313 -127 LINE SMOOTH",
"313 -112 OFFCURVE",
"301 -100 OFFCURVE",
"286 -100 CURVE SMOOTH",
"276 -100 LINE",
"237 -100 OFFCURVE",
"226 -71 OFFCURVE",
"226 -50 CURVE SMOOTH",
"226 -29 OFFCURVE",
"237 0 OFFCURVE",
"276 0 CURVE SMOOTH",
"286 0 LINE SMOOTH",
"301 0 OFFCURVE",
"313 12 OFFCURVE",
"313 27 CURVE SMOOTH",
"313 673 LINE SMOOTH",
"313 688 OFFCURVE",
"301 700 OFFCURVE",
"286 700 CURVE SMOOTH",
"82 700 LINE SMOOTH",
"67 700 OFFCURVE",
"55 688 OFFCURVE",
"55 673 CURVE SMOOTH",
"55 27 LINE SMOOTH",
"55 12 OFFCURVE",
"67 0 OFFCURVE",
"82 0 CURVE SMOOTH",
"105 0 LINE",
"102 -16 OFFCURVE",
"100 -32 OFFCURVE",
"100 -50 CURVE SMOOTH",
"100 -145 OFFCURVE",
"151 -222 OFFCURVE",
"272 -222 CURVE SMOOTH"
);
}
);
width = 368;
}
);
leftKerningGroup = I;
rightKerningGroup = I;
unicode = 012E;
userData = {
com.typemytype.robofont.guides = (
{
angle = 90;
isGlobal = 0;
magnetic = 5;
x = 110;
y = 0;
}
);
};
},
{
color = 6;
glyphname = J;
layers = (
{
anchors = (
{
name = bottom;
position = "{351, 0}";
},
{
name = top;
position = "{371, 700}";
}
);
background = {
anchors = (
{
name = bottom;
position = "{351, 0}";
},
{
name = top;
position = "{371, 700}";
}
);
paths = (
{
closed = 1;
nodes = (
"509 -10 OFFCURVE",
"653 73 OFFCURVE",
"653 258 CURVE SMOOTH",
"653 673 LINE SMOOTH",
"653 688 OFFCURVE",
"641 700 OFFCURVE",
"626 700 CURVE SMOOTH",
"97 700 LINE SMOOTH",
"82 700 OFFCURVE",
"70 688 OFFCURVE",
"70 673 CURVE SMOOTH",
"70 524 LINE SMOOTH",
"70 509 OFFCURVE",
"82 497 OFFCURVE",
"97 497 CURVE SMOOTH",
"394 497 LINE",
"394 266 LINE SMOOTH",
"394 205 OFFCURVE",
"371 185 OFFCURVE",
"335 185 CURVE SMOOTH",
"302 185 OFFCURVE",
"290 198 OFFCURVE",
"277 225 CURVE SMOOTH",
"267 247 OFFCURVE",
"258 257 OFFCURVE",
"236 257 CURVE SMOOTH",
"32 257 LINE SMOOTH",
"20 257 OFFCURVE",
"10 247 OFFCURVE",
"10 235 CURVE SMOOTH",
"13 78 OFFCURVE",
"162 -10 OFFCURVE",
"327 -10 CURVE SMOOTH"
);
}
);
};
hints = (
{
horizontal = 1;
place = "{0, 0}";
type = Tag;
}
);
layerId = "EC64484B-0978-4CB1-9EE9-C40A2D8C4059";
paths = (
{
closed = 1;
nodes = (
"331.904 -41.806 OFFCURVE",
"416.089 -35.126 OFFCURVE",
"411.185 26.679 CURVE",
"433.144 -35.561 OFFCURVE",
"542.607 3.058 OFFCURVE",
"520.648 65.298 CURVE",
"565.581 27.994 OFFCURVE",
"653.804 134.26 OFFCURVE",
"608.871 171.564 CURVE",
"675.981 160.594 OFFCURVE",
"690.109 247.03 OFFCURVE",
"623 258 CURVE",
"694 258 OFFCURVE",
"694 389.683 OFFCURVE",
"623 389.683 CURVE",
"693 389.683 OFFCURVE",
"693 509.394 OFFCURVE",
"623 509.394 CURVE",
"697 509.394 OFFCURVE",
"697 553.288 OFFCURVE",
"623 553.288 CURVE",
"684 553.288 OFFCURVE",
"684 673 OFFCURVE",
"623 673 CURVE",
"619.065 736.879 OFFCURVE",
"570.359 733.879 OFFCURVE",
"574.293 670 CURVE",
"574.293 743 OFFCURVE",
"498.722 743 OFFCURVE",
"498.722 670 CURVE",
"498.722 734 OFFCURVE",
"423.15 734 OFFCURVE",
"423.15 670 CURVE",
"423.15 735 OFFCURVE",
"268.03 735 OFFCURVE",
"268.03 670 CURVE",
"268.03 738 OFFCURVE",
"148.707 738 OFFCURVE",
"148.707 670 CURVE",
"101.691 711.028 OFFCURVE",
"52.984 655.212 OFFCURVE",
"100 614.184 CURVE",
"48.363 597.066 OFFCURVE",
"77.266 509.882 OFFCURVE",
"128.902 527 CURVE",
"128.902 463 OFFCURVE",
"244.549 463 OFFCURVE",
"244.549 527 CURVE",
"244.549 459 OFFCURVE",
"308.354 459 OFFCURVE",
"308.354 527 CURVE",
"308.354 465 OFFCURVE",
"400.073 465 OFFCURVE",
"400.073 527 CURVE",
"346.559 473.035 OFFCURVE",
"370.485 449.308 OFFCURVE",
"424 503.273 CURVE",
"352 503.273 OFFCURVE",
"352 459.773 OFFCURVE",
"424 459.773 CURVE",
"355 459.773 OFFCURVE",
"355 364.864 OFFCURVE",
"424 364.864 CURVE",
"347 364.864 OFFCURVE",
"347 269.955 OFFCURVE",
"424 269.955 CURVE",
"363.023 297.719 OFFCURVE",
"314.372 190.87 OFFCURVE",
"375.349 163.105 CURVE",
"371.201 237.991 OFFCURVE",
"299.027 233.992 OFFCURVE",
"303.175 159.107 CURVE",
"333.571 207.09 OFFCURVE",
"226.396 274.983 OFFCURVE",
"196 227 CURVE",
"196 306 OFFCURVE",
"100 306 OFFCURVE",
"100 227 CURVE",
"100 288 OFFCURVE",
"56 288 OFFCURVE",
"56 227 CURVE",
"14.421 276.962 OFFCURVE",
"-0.113 264.866 OFFCURVE",
"41.465 214.904 CURVE",
"-3.726 192.59 OFFCURVE",
"52.331 79.063 OFFCURVE",
"97.522 101.377 CURVE",
"71.743 52.567 OFFCURVE",
"205.492 -18.075 OFFCURVE",
"231.272 30.736 CURVE"
);
}
);
width = 702;
},
{
anchors = (
{
name = bottom;
position = "{351, 0}";
},
{
name = top;
position = "{371, 700}";
}
);
associatedMasterId = "EC64484B-0978-4CB1-9EE9-C40A2D8C4059";
background = {
anchors = (
{
name = bottom;
position = "{351, 0}";
},
{
name = top;
position = "{371, 700}";
}
);
paths = (
{
closed = 1;
nodes = (
"509 -10 OFFCURVE",
"653 73 OFFCURVE",
"653 258 CURVE SMOOTH",
"653 673 LINE SMOOTH",
"653 688 OFFCURVE",
"641 700 OFFCURVE",
"626 700 CURVE SMOOTH",
"97 700 LINE SMOOTH",
"82 700 OFFCURVE",
"70 688 OFFCURVE",
"70 673 CURVE SMOOTH",
"70 524 LINE SMOOTH",
"70 509 OFFCURVE",
"82 497 OFFCURVE",
"97 497 CURVE SMOOTH",
"394 497 LINE",
"394 266 LINE SMOOTH",
"394 205 OFFCURVE",
"371 185 OFFCURVE",
"335 185 CURVE SMOOTH",
"302 185 OFFCURVE",
"290 198 OFFCURVE",
"277 225 CURVE SMOOTH",
"267 247 OFFCURVE",
"258 257 OFFCURVE",
"236 257 CURVE SMOOTH",
"32 257 LINE SMOOTH",
"20 257 OFFCURVE",
"10 247 OFFCURVE",
"10 235 CURVE SMOOTH",
"13 78 OFFCURVE",
"162 -10 OFFCURVE",
"327 -10 CURVE SMOOTH"
);
}
);
};
color = 6;
hints = (
{
horizontal = 1;
place = "{0, 0}";
type = Tag;
}
);
layerId = "CB3CEF58-612C-4D8D-BEC2-EF34EC75248E";
name = "Jul 23 21, 16:38";
paths = (
{
closed = 1;
nodes = (
"509 -10 OFFCURVE",
"653 73 OFFCURVE",
"653 258 CURVE SMOOTH",
"653 673 LINE SMOOTH",
"653 688 OFFCURVE",
"641 700 OFFCURVE",
"626 700 CURVE SMOOTH",
"97 700 LINE SMOOTH",
"82 700 OFFCURVE",
"70 688 OFFCURVE",
"70 673 CURVE SMOOTH",
"70 524 LINE SMOOTH",
"70 509 OFFCURVE",
"82 497 OFFCURVE",
"97 497 CURVE SMOOTH",
"394 497 LINE",
"394 266 LINE SMOOTH",
"394 205 OFFCURVE",
"371 185 OFFCURVE",
"335 185 CURVE SMOOTH",
"302 185 OFFCURVE",
"290 198 OFFCURVE",
"277 225 CURVE SMOOTH",
"267 247 OFFCURVE",
"258 257 OFFCURVE",
"236 257 CURVE SMOOTH",
"32 257 LINE SMOOTH",
"20 257 OFFCURVE",
"10 247 OFFCURVE",
"10 235 CURVE SMOOTH",
"13 78 OFFCURVE",
"162 -10 OFFCURVE",
"327 -10 CURVE SMOOTH"
);
}
);
width = 702;
}
);
leftKerningGroup = J;
rightKerningGroup = U;
unicode = 004A;
userData = {
com.typemytype.robofont.guides = (
{
angle = 0;
isGlobal = 0;
magnetic = 5;
x = 0;
y = "-10";
},
{
angle = 0;
isGlobal = 0;
magnetic = 5;
x = 0;
y = 133;
},
{
angle = 0;
isGlobal = 0;
magnetic = 5;
x = 0;
y = 677;
},
{
angle = 90;
isGlobal = 0;
magnetic = 5;
x = 303;
y = 0;
},
{
angle = 90;
isGlobal = 0;
magnetic = 5;
x = 60;
y = 0;
},
{
angle = 90;
isGlobal = 0;
magnetic = 5;
x = 91;
y = 0;
}
);
};
},
{
color = 6;
glyphname = K;
layers = (
{
anchors = (
{
name = bottom;
position = "{358, 0}";
},
{
name = top;
position = "{358, 700}";
}
);
background = {
anchors = (
{
name = bottom;
position = "{358, 0}";
},
{
name = top;
position = "{358, 700}";
}
);
paths = (
{
closed = 1;
nodes = (
"273 0 LINE SMOOTH",
"288 0 OFFCURVE",
"300 12 OFFCURVE",
"300 27 CURVE SMOOTH",
"300 241 LINE",
"422 23 LINE SMOOTH",
"425 17 OFFCURVE",
"436 0 OFFCURVE",
"463 0 CURVE SMOOTH",
"691 0 LINE SMOOTH",
"703 0 OFFCURVE",
"713 10 OFFCURVE",
"713 22 CURVE SMOOTH",
"713 25 OFFCURVE",
"712 30 OFFCURVE",
"710 33 CURVE SMOOTH",
"513 365 LINE",
"693 667 LINE SMOOTH",
"695 670 OFFCURVE",
"696 674 OFFCURVE",
"696 678 CURVE SMOOTH",
"696 690 OFFCURVE",
"686 700 OFFCURVE",
"674 700 CURVE SMOOTH",
"453 700 LINE SMOOTH",
"431 700 OFFCURVE",
"419 689 OFFCURVE",
"413 678 CURVE SMOOTH",
"300 475 LINE",
"300 673 LINE SMOOTH",
"300 688 OFFCURVE",
"288 700 OFFCURVE",
"273 700 CURVE SMOOTH",
"82 700 LINE SMOOTH",
"67 700 OFFCURVE",
"55 688 OFFCURVE",
"55 673 CURVE SMOOTH",
"55 27 LINE SMOOTH",
"55 12 OFFCURVE",
"67 0 OFFCURVE",
"82 0 CURVE SMOOTH"
);
}
);
};
layerId = "EC64484B-0978-4CB1-9EE9-C40A2D8C4059";
paths = (
{
closed = 1;
nodes = (
"82 -37 OFFCURVE",
"209.333 -37 OFFCURVE",
"209.333 30 CURVE",
"245.299 -8.656 OFFCURVE",
"305.966 47.788 OFFCURVE",
"270 86.444 CURVE",
"326 86.444 OFFCURVE",
"326 221.185 OFFCURVE",
"270 221.185 CURVE",
"315.391 187.04 OFFCURVE",
"334.058 211.855 OFFCURVE",
"288.667 246 CURVE",
"255.856 198.659 OFFCURVE",
"326.126 149.956 OFFCURVE",
"358.938 197.297 CURVE",
"314.286 172.243 OFFCURVE",
"382.098 51.384 OFFCURVE",
"426.75 76.438 CURVE",
"401.571 26.418 OFFCURVE",
"493.821 -20.02 OFFCURVE",
"519 30 CURVE",
"519 -43 OFFCURVE",
"667 -43 OFFCURVE",
"667 30 CURVE",
"734.841 34.64 OFFCURVE",
"733.485 54.472 OFFCURVE",
"665.644 49.832 CURVE",
"720.635 82.572 OFFCURVE",
"667.605 171.642 OFFCURVE",
"612.614 138.901 CURVE",
"677.916 177.78 OFFCURVE",
"657.52 212.038 OFFCURVE",
"592.218 173.158 CURVE",
"658.379 212.549 OFFCURVE",
"580.874 342.728 OFFCURVE",
"514.713 303.337 CURVE",
"579.156 341.704 OFFCURVE",
"544.483 399.942 OFFCURVE",
"480.04 361.574 CURVE",
"538.07 330.134 OFFCURVE",
"578.708 405.14 OFFCURVE",
"520.677 436.581 CURVE",
"580.802 400.733 OFFCURVE",
"633.641 489.357 OFFCURVE",
"573.516 525.204 CURVE",
"625.91 493.966 OFFCURVE",
"678.749 582.59 OFFCURVE",
"626.355 613.828 CURVE",
"678.749 582.59 OFFCURVE",
"715.33 643.945 OFFCURVE",
"662.935 675.183 CURVE",
"649.291 749.948 OFFCURVE",
"620.891 744.765 OFFCURVE",
"634.536 670 CURVE",
"634.536 743 OFFCURVE",
"492.464 743 OFFCURVE",
"492.464 670 CURVE",
"469.036 714.624 OFFCURVE",
"398.335 677.505 OFFCURVE",
"421.763 632.881 CURVE",
"376.275 658.078 OFFCURVE",
"314.987 547.434 OFFCURVE",
"360.475 522.237 CURVE",
"332.184 563.948 OFFCURVE",
"256.642 512.711 OFFCURVE",
"284.933 471 CURVE",
"339.488 486.813 OFFCURVE",
"324.554 538.333 OFFCURVE",
"270 522.52 CURVE",
"333.2 522.52 OFFCURVE",
"333.2 562.12 OFFCURVE",
"270 562.12 CURVE",
"329.2 562.12 OFFCURVE",
"329.2 661.12 OFFCURVE",
"270 661.12 CURVE",
"275.224 738.945 OFFCURVE",
"142.932 747.825 OFFCURVE",
"137.708 670 CURVE",
"101.346 703.734 OFFCURVE",
"48.638 646.919 OFFCURVE",
"85 613.185 CURVE",
"9 613.185 OFFCURVE",
"9 533.432 OFFCURVE",
"85 533.432 CURVE",
"7 533.432 OFFCURVE",
"7 393.864 OFFCURVE",
"85 393.864 CURVE",
"18 393.864 OFFCURVE",
"18 258.284 OFFCURVE",
"85 258.284 CURVE",
"6 258.284 OFFCURVE",
"6 174.543 OFFCURVE",
"85 174.543 CURVE"
);
}
);
width = 715;
},
{
anchors = (
{
name = bottom;
position = "{358, 0}";
},
{
name = top;
position = "{358, 700}";
}
);
associatedMasterId = "EC64484B-0978-4CB1-9EE9-C40A2D8C4059";
background = {
anchors = (
{
name = bottom;
position = "{358, 0}";
},
{
name = top;
position = "{358, 700}";
}
);
paths = (
{
closed = 1;
nodes = (
"273 0 LINE SMOOTH",
"288 0 OFFCURVE",
"300 12 OFFCURVE",
"300 27 CURVE SMOOTH",
"300 241 LINE",
"422 23 LINE SMOOTH",
"425 17 OFFCURVE",
"436 0 OFFCURVE",
"463 0 CURVE SMOOTH",
"691 0 LINE SMOOTH",
"703 0 OFFCURVE",
"713 10 OFFCURVE",
"713 22 CURVE SMOOTH",
"713 25 OFFCURVE",
"712 30 OFFCURVE",
"710 33 CURVE SMOOTH",
"513 365 LINE",
"693 667 LINE SMOOTH",
"695 670 OFFCURVE",
"696 674 OFFCURVE",
"696 678 CURVE SMOOTH",
"696 690 OFFCURVE",
"686 700 OFFCURVE",
"674 700 CURVE SMOOTH",
"453 700 LINE SMOOTH",
"431 700 OFFCURVE",
"419 689 OFFCURVE",
"413 678 CURVE SMOOTH",
"300 475 LINE",
"300 673 LINE SMOOTH",
"300 688 OFFCURVE",
"288 700 OFFCURVE",
"273 700 CURVE SMOOTH",
"82 700 LINE SMOOTH",
"67 700 OFFCURVE",
"55 688 OFFCURVE",
"55 673 CURVE SMOOTH",
"55 27 LINE SMOOTH",
"55 12 OFFCURVE",
"67 0 OFFCURVE",
"82 0 CURVE SMOOTH"
);
}
);
};
color = 6;
layerId = "18E8668A-D3B0-4FA0-9A45-B66E823764E3";
name = "Jul 23 21, 16:38";
paths = (
{
closed = 1;
nodes = (
"273 0 LINE SMOOTH",
"288 0 OFFCURVE",
"300 12 OFFCURVE",
"300 27 CURVE SMOOTH",
"300 241 LINE",
"422 23 LINE SMOOTH",
"425 17 OFFCURVE",
"436 0 OFFCURVE",
"463 0 CURVE SMOOTH",
"691 0 LINE SMOOTH",
"703 0 OFFCURVE",
"713 10 OFFCURVE",
"713 22 CURVE SMOOTH",
"713 25 OFFCURVE",
"712 30 OFFCURVE",
"710 33 CURVE SMOOTH",
"513 365 LINE",
"693 667 LINE SMOOTH",
"695 670 OFFCURVE",
"696 674 OFFCURVE",
"696 678 CURVE SMOOTH",
"696 690 OFFCURVE",
"686 700 OFFCURVE",
"674 700 CURVE SMOOTH",
"453 700 LINE SMOOTH",
"431 700 OFFCURVE",
"419 689 OFFCURVE",
"413 678 CURVE SMOOTH",
"300 475 LINE",
"300 673 LINE SMOOTH",
"300 688 OFFCURVE",
"288 700 OFFCURVE",
"273 700 CURVE SMOOTH",
"82 700 LINE SMOOTH",
"67 700 OFFCURVE",
"55 688 OFFCURVE",
"55 673 CURVE SMOOTH",
"55 27 LINE SMOOTH",
"55 12 OFFCURVE",
"67 0 OFFCURVE",
"82 0 CURVE SMOOTH"
);
}
);
width = 715;
}
);
leftKerningGroup = I;
rightKerningGroup = K;
unicode = 004B;
userData = {
com.typemytype.robofont.guides = (
{
angle = 0;
isGlobal = 0;
magnetic = 5;
x = 0;
y = 365;
},
{
angle = 90;
isGlobal = 0;
magnetic = 5;
x = 547;
y = 0;
},
{
angle = 90;
isGlobal = 0;
magnetic = 5;
x = 94;
y = 0;
},
{
angle = 90;
isGlobal = 0;
magnetic = 5;
x = 139;
y = 0;
}
);
};
},
{
color = 6;
glyphname = L;
layers = (
{
anchors = (
{
name = bottom;
position = "{313, 0}";
},
{
name = center;
position = "{313, 350}";
},
{
name = top;
position = "{173, 700}";
},
{
name = topright;
position = "{486, 649}";
}
);
background = {
anchors = (
{
name = bottom;
position = "{313, 0}";
},
{
name = center;
position = "{313, 350}";
},
{
name = top;
position = "{173, 700}";
},
{
name = topright;
position = "{486, 649}";
}
);
paths = (
{
closed = 1;
nodes = (
"586 0 LINE SMOOTH",
"601 0 OFFCURVE",
"613 12 OFFCURVE",
"613 27 CURVE SMOOTH",
"613 178 LINE SMOOTH",
"613 193 OFFCURVE",
"601 205 OFFCURVE",
"586 205 CURVE SMOOTH",
"309 205 LINE",
"309 673 LINE SMOOTH",
"309 688 OFFCURVE",
"297 700 OFFCURVE",
"282 700 CURVE SMOOTH",
"82 700 LINE SMOOTH",
"67 700 OFFCURVE",
"55 688 OFFCURVE",
"55 673 CURVE SMOOTH",
"55 27 LINE SMOOTH",
"55 12 OFFCURVE",
"67 0 OFFCURVE",
"82 0 CURVE SMOOTH"
);
}
);
};
layerId = "EC64484B-0978-4CB1-9EE9-C40A2D8C4059";
paths = (
{
closed = 1;
nodes = (
"82 -49 OFFCURVE",
"162 -49 OFFCURVE",
"162 30 CURVE",
"162 -38 OFFCURVE",
"282 -38 OFFCURVE",
"282 30 CURVE",
"282 -38 OFFCURVE",
"406 -38 OFFCURVE",
"406 30 CURVE",
"406 -33 OFFCURVE",
"518 -33 OFFCURVE",
"518 30 CURVE",
"560.887 -8.451 OFFCURVE",
"625.887 64.049 OFFCURVE",
"583 102.5 CURVE",
"652.836 107.291 OFFCURVE",
"647.862 179.791 OFFCURVE",
"578.026 175 CURVE",
"578.026 247 OFFCURVE",
"438.481 247 OFFCURVE",
"438.481 175 CURVE",
"438.481 251 OFFCURVE",
"302.922 251 OFFCURVE",
"302.922 175 CURVE",
"376.636 188.832 OFFCURVE",
"352.714 316.32 OFFCURVE",
"279 302.488 CURVE",
"352 302.488 OFFCURVE",
"352 362.248 OFFCURVE",
"279 362.248 CURVE",
"346 362.248 OFFCURVE",
"346 402.088 OFFCURVE",
"279 402.088 CURVE",
"345 402.088 OFFCURVE",
"345 513.64 OFFCURVE",
"279 513.64 CURVE",
"349 513.64 OFFCURVE",
"349 629.176 OFFCURVE",
"279 629.176 CURVE",
"307.881 669.5 OFFCURVE",
"250.881 710.324 OFFCURVE",
"222 670 CURVE",
"222 733 OFFCURVE",
"122 733 OFFCURVE",
"122 670 CURVE",
"76.545 689.85 OFFCURVE",
"39.545 605.121 OFFCURVE",
"85 585.272 CURVE",
"6 585.272 OFFCURVE",
"6 501.531 OFFCURVE",
"85 501.531 CURVE",
"14 501.531 OFFCURVE",
"14 445.704 OFFCURVE",
"85 445.704 CURVE",
"20 445.704 OFFCURVE",
"20 346.012 OFFCURVE",
"85 346.012 CURVE",
"14 346.012 OFFCURVE",
"14 274.235 OFFCURVE",
"85 274.235 CURVE",
"10 274.235 OFFCURVE",
"10 190.494 OFFCURVE",
"85 190.494 CURVE",
"13 190.494 OFFCURVE",
"13 150.617 OFFCURVE",
"85 150.617 CURVE"
);
}
);
width = 626;
},
{
anchors = (
{
name = bottom;
position = "{313, 0}";
},
{
name = center;
position = "{313, 350}";
},
{
name = top;
position = "{173, 700}";
},
{
name = topright;
position = "{486, 649}";
}
);
associatedMasterId = "EC64484B-0978-4CB1-9EE9-C40A2D8C4059";
background = {
anchors = (
{
name = bottom;
position = "{313, 0}";
},
{
name = center;
position = "{313, 350}";
},
{
name = top;
position = "{173, 700}";
},
{
name = topright;
position = "{486, 649}";
}
);
paths = (
{
closed = 1;
nodes = (
"586 0 LINE SMOOTH",
"601 0 OFFCURVE",
"613 12 OFFCURVE",
"613 27 CURVE SMOOTH",
"613 178 LINE SMOOTH",
"613 193 OFFCURVE",
"601 205 OFFCURVE",
"586 205 CURVE SMOOTH",
"309 205 LINE",
"309 673 LINE SMOOTH",
"309 688 OFFCURVE",
"297 700 OFFCURVE",
"282 700 CURVE SMOOTH",
"82 700 LINE SMOOTH",
"67 700 OFFCURVE",
"55 688 OFFCURVE",
"55 673 CURVE SMOOTH",
"55 27 LINE SMOOTH",
"55 12 OFFCURVE",
"67 0 OFFCURVE",
"82 0 CURVE SMOOTH"
);
}
);
};
color = 6;
layerId = "38718274-2613-47DB-95E4-2D59496695C3";
name = "Jul 23 21, 16:38";
paths = (
{
closed = 1;
nodes = (
"586 0 LINE SMOOTH",
"601 0 OFFCURVE",
"613 12 OFFCURVE",
"613 27 CURVE SMOOTH",
"613 178 LINE SMOOTH",
"613 193 OFFCURVE",
"601 205 OFFCURVE",
"586 205 CURVE SMOOTH",
"309 205 LINE",
"309 673 LINE SMOOTH",
"309 688 OFFCURVE",
"297 700 OFFCURVE",
"282 700 CURVE SMOOTH",
"82 700 LINE SMOOTH",
"67 700 OFFCURVE",
"55 688 OFFCURVE",
"55 673 CURVE SMOOTH",
"55 27 LINE SMOOTH",
"55 12 OFFCURVE",
"67 0 OFFCURVE",
"82 0 CURVE SMOOTH"
);
}
);
width = 626;
}
);
leftKerningGroup = I;
rightKerningGroup = L;
unicode = 004C;
},
{
color = 6;
glyphname = Lslash;
layers = (
{
background = {
paths = (
{
closed = 1;
nodes = (
"594 0 LINE SMOOTH",
"609 0 OFFCURVE",
"621 12 OFFCURVE",
"621 27 CURVE SMOOTH",
"621 178 LINE SMOOTH",
"621 193 OFFCURVE",
"609 205 OFFCURVE",
"594 205 CURVE SMOOTH",
"317 205 LINE",
"317 325 LINE",
"472 386 LINE SMOOTH",
"488 392 OFFCURVE",
"494 401 OFFCURVE",
"494 419 CURVE SMOOTH",
"494 527 LINE SMOOTH",
"494 539 OFFCURVE",
"485 548 OFFCURVE",
"473 548 CURVE SMOOTH",
"471 548 OFFCURVE",
"467 547 OFFCURVE",
"462 545 CURVE SMOOTH",
"317 488 LINE",
"317 673 LINE SMOOTH",
"317 688 OFFCURVE",
"305 700 OFFCURVE",
"290 700 CURVE SMOOTH",
"90 700 LINE SMOOTH",
"75 700 OFFCURVE",
"63 688 OFFCURVE",
"63 673 CURVE SMOOTH",
"63 388 LINE",
"35 377 LINE SMOOTH",
"19 371 OFFCURVE",
"13 362 OFFCURVE",
"13 344 CURVE SMOOTH",
"13 236 LINE SMOOTH",
"13 224 OFFCURVE",
"22 215 OFFCURVE",
"34 215 CURVE SMOOTH",
"36 215 OFFCURVE",
"40 216 OFFCURVE",
"45 218 CURVE SMOOTH",
"63 225 LINE",
"63 27 LINE SMOOTH",
"63 12 OFFCURVE",
"75 0 OFFCURVE",
"90 0 CURVE SMOOTH"
);
}
);
};
hints = (
{
horizontal = 1;
place = "{0, 0}";
type = Tag;
}
);
layerId = "EC64484B-0978-4CB1-9EE9-C40A2D8C4059";
paths = (
{
closed = 1;
nodes = (
"90 -49 OFFCURVE",
"230 -49 OFFCURVE",
"230 30 CURVE",
"230 -31 OFFCURVE",
"270 -31 OFFCURVE",
"270 30 CURVE",
"270 -33 OFFCURVE",
"426 -33 OFFCURVE",
"426 30 CURVE",
"426 -41 OFFCURVE",
"538 -41 OFFCURVE",
"538 30 CURVE",
"575.524 -18.852 OFFCURVE",
"628.524 21.859 OFFCURVE",
"591 70.711 CURVE",
"669.967 68.439 OFFCURVE",
"672.967 172.728 OFFCURVE",
"594 175 CURVE",
"594 235 OFFCURVE",
"442.494 235 OFFCURVE",
"442.494 175 CURVE",
"442.494 244 OFFCURVE",
"314.909 244 OFFCURVE",
"314.909 175 CURVE",
"377.187 214.968 OFFCURVE",
"349.278 258.456 OFFCURVE",
"287 218.488 CURVE",
"352 218.488 OFFCURVE",
"352 313.372 OFFCURVE",
"287 313.372 CURVE",
"327.937 254.142 OFFCURVE",
"435.298 328.344 OFFCURVE",
"394.362 387.574 CURVE",
"426.554 324.292 OFFCURVE",
"496.192 359.718 OFFCURVE",
"464 423 CURVE",
"526.86 427.193 OFFCURVE",
"520.98 515.353 OFFCURVE",
"458.12 511.16 CURVE",
"429.258 584.699 OFFCURVE",
"366.018 559.879 OFFCURVE",
"394.88 486.34 CURVE",
"372.229 544.054 OFFCURVE",
"316.429 522.154 OFFCURVE",
"339.08 464.44 CURVE",
"374.107 516.805 OFFCURVE",
"322.027 551.641 OFFCURVE",
"287 499.276 CURVE",
"357 499.276 OFFCURVE",
"357 570.345 OFFCURVE",
"287 570.345 CURVE",
"353 570.345 OFFCURVE",
"353 641.414 OFFCURVE",
"287 641.414 CURVE",
"305.616 696.767 OFFCURVE",
"220.616 725.354 OFFCURVE",
"202 670 CURVE",
"202 737 OFFCURVE",
"142 737 OFFCURVE",
"142 670 CURVE",
"101.662 707.681 OFFCURVE",
"52.662 655.227 OFFCURVE",
"93 617.545 CURVE",
"28 617.545 OFFCURVE",
"28 482.87 OFFCURVE",
"93 482.87 CURVE",
"24 482.87 OFFCURVE",
"24 423.455 OFFCURVE",
"93 423.455 CURVE",
"38.791 451.425 OFFCURVE",
"2.637 381.355 OFFCURVE",
"56.846 353.385 CURVE",
"-8.699 361.116 OFFCURVE",
"-22.546 243.731 OFFCURVE",
"43 236 CURVE",
"60.373 185.294 OFFCURVE",
"110.373 202.425 OFFCURVE",
"93 253.131 CURVE",
"19 253.131 OFFCURVE",
"19 110.311 OFFCURVE",
"93 110.311 CURVE"
);
}
);
width = 634;
},
{
associatedMasterId = "EC64484B-0978-4CB1-9EE9-C40A2D8C4059";
background = {
paths = (
{
closed = 1;
nodes = (
"594 0 LINE SMOOTH",
"609 0 OFFCURVE",
"621 12 OFFCURVE",
"621 27 CURVE SMOOTH",
"621 178 LINE SMOOTH",
"621 193 OFFCURVE",
"609 205 OFFCURVE",
"594 205 CURVE SMOOTH",
"317 205 LINE",
"317 325 LINE",
"472 386 LINE SMOOTH",
"488 392 OFFCURVE",
"494 401 OFFCURVE",
"494 419 CURVE SMOOTH",
"494 527 LINE SMOOTH",
"494 539 OFFCURVE",
"485 548 OFFCURVE",
"473 548 CURVE SMOOTH",
"471 548 OFFCURVE",
"467 547 OFFCURVE",
"462 545 CURVE SMOOTH",
"317 488 LINE",
"317 673 LINE SMOOTH",
"317 688 OFFCURVE",
"305 700 OFFCURVE",
"290 700 CURVE SMOOTH",
"90 700 LINE SMOOTH",
"75 700 OFFCURVE",
"63 688 OFFCURVE",
"63 673 CURVE SMOOTH",
"63 388 LINE",
"35 377 LINE SMOOTH",
"19 371 OFFCURVE",
"13 362 OFFCURVE",
"13 344 CURVE SMOOTH",
"13 236 LINE SMOOTH",
"13 224 OFFCURVE",
"22 215 OFFCURVE",
"34 215 CURVE SMOOTH",
"36 215 OFFCURVE",
"40 216 OFFCURVE",
"45 218 CURVE SMOOTH",
"63 225 LINE",
"63 27 LINE SMOOTH",
"63 12 OFFCURVE",
"75 0 OFFCURVE",
"90 0 CURVE SMOOTH"
);
}
);
};
color = 6;
hints = (
{
horizontal = 1;
place = "{0, 0}";
type = Tag;
}
);
layerId = "40F2F344-5BCA-417F-A95F-1771ABCBCDBA";
name = "Jul 23 21, 16:38";
paths = (
{
closed = 1;
nodes = (
"594 0 LINE SMOOTH",
"609 0 OFFCURVE",
"621 12 OFFCURVE",
"621 27 CURVE SMOOTH",
"621 178 LINE SMOOTH",
"621 193 OFFCURVE",
"609 205 OFFCURVE",
"594 205 CURVE SMOOTH",
"317 205 LINE",
"317 325 LINE",
"472 386 LINE SMOOTH",
"488 392 OFFCURVE",
"494 401 OFFCURVE",
"494 419 CURVE SMOOTH",
"494 527 LINE SMOOTH",
"494 539 OFFCURVE",
"485 548 OFFCURVE",
"473 548 CURVE SMOOTH",
"471 548 OFFCURVE",
"467 547 OFFCURVE",
"462 545 CURVE SMOOTH",
"317 488 LINE",
"317 673 LINE SMOOTH",
"317 688 OFFCURVE",
"305 700 OFFCURVE",
"290 700 CURVE SMOOTH",
"90 700 LINE SMOOTH",
"75 700 OFFCURVE",
"63 688 OFFCURVE",
"63 673 CURVE SMOOTH",
"63 388 LINE",
"35 377 LINE SMOOTH",
"19 371 OFFCURVE",
"13 362 OFFCURVE",
"13 344 CURVE SMOOTH",
"13 236 LINE SMOOTH",
"13 224 OFFCURVE",
"22 215 OFFCURVE",
"34 215 CURVE SMOOTH",
"36 215 OFFCURVE",
"40 216 OFFCURVE",
"45 218 CURVE SMOOTH",
"63 225 LINE",
"63 27 LINE SMOOTH",
"63 12 OFFCURVE",
"75 0 OFFCURVE",
"90 0 CURVE SMOOTH"
);
}
);
width = 634;
}
);
leftKerningGroup = I;
rightKerningGroup = L;
unicode = 0141;
userData = {
com.typemytype.robofont.guides = (
{
angle = 0;
isGlobal = 0;
magnetic = 5;
x = 0;
y = 215;
},
{
angle = 0;
isGlobal = 0;
magnetic = 5;
x = 0;
y = 548;
},
{
angle = 0;
isGlobal = 0;
magnetic = 5;
x = 0;
y = 438;
},
{
angle = 0;
isGlobal = 0;
magnetic = 5;
x = 0;
y = 267;
},
{
angle = 0;
isGlobal = 0;
magnetic = 5;
x = 0;
y = 353;
},
{
angle = 90;
isGlobal = 0;
magnetic = 5;
x = 129;
y = 0;
},
{
angle = 90;
isGlobal = 0;
magnetic = 5;
x = 325;
y = 0;
},
{
angle = 90;
isGlobal = 0;
magnetic = 5;
x = "-5";
y = 0;
}
);
};
},
{
color = 6;
glyphname = M;
layers = (
{
anchors = (
{
name = bottom;
position = "{428, 0}";
},
{
name = top;
position = "{428, 700}";
}
);
background = {
anchors = (
{
name = bottom;
position = "{428, 0}";
},
{
name = top;
position = "{428, 700}";
}
);
paths = (
{
closed = 1;
nodes = (
"263 0 LINE SMOOTH",
"278 0 OFFCURVE",
"290 12 OFFCURVE",
"290 27 CURVE SMOOTH",
"290 301 LINE",
"356 193 LINE SMOOTH",
"363 182 OFFCURVE",
"373 168 OFFCURVE",
"393 168 CURVE SMOOTH",
"463 168 LINE SMOOTH",
"483 168 OFFCURVE",
"493 182 OFFCURVE",
"500 193 CURVE SMOOTH",
"566 301 LINE",
"566 27 LINE SMOOTH",
"566 12 OFFCURVE",
"578 0 OFFCURVE",
"593 0 CURVE SMOOTH",
"774 0 LINE SMOOTH",
"789 0 OFFCURVE",
"801 12 OFFCURVE",
"801 27 CURVE SMOOTH",
"801 673 LINE SMOOTH",
"801 688 OFFCURVE",
"789 700 OFFCURVE",
"774 700 CURVE SMOOTH",
"616 700 LINE SMOOTH",
"589 700 OFFCURVE",
"577 680 OFFCURVE",
"573 673 CURVE SMOOTH",
"428 433 LINE",
"283 673 LINE SMOOTH",
"279 680 OFFCURVE",
"267 700 OFFCURVE",
"240 700 CURVE SMOOTH",
"82 700 LINE SMOOTH",
"67 700 OFFCURVE",
"55 688 OFFCURVE",
"55 673 CURVE SMOOTH",
"55 27 LINE SMOOTH",
"55 12 OFFCURVE",
"67 0 OFFCURVE",
"82 0 CURVE SMOOTH"
);
}
);
};
hints = (
{
horizontal = 1;
place = "{0, 0}";
type = Tag;
}
);
layerId = "EC64484B-0978-4CB1-9EE9-C40A2D8C4059";
paths = (
{
closed = 1;
nodes = (
"82 -48 OFFCURVE",
"137.087 -48 OFFCURVE",
"137.087 30 CURVE",
"137.087 -39 OFFCURVE",
"243.326 -39 OFFCURVE",
"243.326 30 CURVE",
"307.921 12.208 OFFCURVE",
"324.595 72.745 OFFCURVE",
"260 90.536 CURVE",
"326 90.536 OFFCURVE",
"326 146.13 OFFCURVE",
"260 146.13 CURVE",
"323 146.13 OFFCURVE",
"323 225.551 OFFCURVE",
"260 225.551 CURVE",
"311.372 189.083 OFFCURVE",
"371.497 273.783 OFFCURVE",
"320.125 310.25 CURVE",
"266.88 277.712 OFFCURVE",
"297.818 227.087 OFFCURVE",
"351.062 259.625 CURVE",
"324.904 213.76 OFFCURVE",
"432.952 152.135 OFFCURVE",
"459.111 198 CURVE",
"503.36 166.355 OFFCURVE",
"559.499 244.855 OFFCURVE",
"515.25 276.5 CURVE",
"561.669 248.133 OFFCURVE",
"586.419 288.633 OFFCURVE",
"540 317 CURVE",
"520.77 249.693 OFFCURVE",
"565.57 236.893 OFFCURVE",
"584.8 304.2 CURVE",
"535.29 294.769 OFFCURVE",
"546.49 235.974 OFFCURVE",
"596 245.406 CURVE",
"518 245.406 OFFCURVE",
"518 106.42 OFFCURVE",
"596 106.42 CURVE",
"520 106.42 OFFCURVE",
"520 58.768 OFFCURVE",
"596 58.768 CURVE",
"573.972 3.819 OFFCURVE",
"645.732 -24.949 OFFCURVE",
"667.761 30 CURVE",
"676.474 -39.456 OFFCURVE",
"779.713 -26.505 OFFCURVE",
"771 42.951 CURVE",
"849 42.951 OFFCURVE",
"849 82.827 OFFCURVE",
"771 82.827 CURVE",
"844 82.827 OFFCURVE",
"844 238.346 OFFCURVE",
"771 238.346 CURVE",
"835 238.346 OFFCURVE",
"835 310.123 OFFCURVE",
"771 310.123 CURVE",
"845 310.123 OFFCURVE",
"845 457.667 OFFCURVE",
"771 457.667 CURVE",
"831 457.667 OFFCURVE",
"831 521.469 OFFCURVE",
"771 521.469 CURVE",
"841 521.469 OFFCURVE",
"841 577.296 OFFCURVE",
"771 577.296 CURVE",
"844 577.296 OFFCURVE",
"844 637.111 OFFCURVE",
"771 637.111 CURVE",
"794.359 682.672 OFFCURVE",
"730.209 715.561 OFFCURVE",
"706.85 670 CURVE",
"705.497 734.986 OFFCURVE",
"606.283 732.921 OFFCURVE",
"607.635 667.935 CURVE",
"545.272 707.77 OFFCURVE",
"505.733 645.871 OFFCURVE",
"568.096 606.036 CURVE",
"507.386 642.85 OFFCURVE",
"470.302 581.693 OFFCURVE",
"531.012 544.88 CURVE",
"471.157 581.175 OFFCURVE",
"429.952 513.223 OFFCURVE",
"489.807 476.928 CURVE",
"441.239 506.379 OFFCURVE",
"391.793 424.837 OFFCURVE",
"440.361 395.386 CURVE",
"479.272 437.856 OFFCURVE",
"423.645 488.82 OFFCURVE",
"384.735 446.349 CURVE",
"442.88 481.608 OFFCURVE",
"399.615 552.957 OFFCURVE",
"341.47 517.699 CURVE",
"400.47 553.476 OFFCURVE",
"377.807 590.849 OFFCURVE",
"318.807 555.072 CURVE",
"378.663 591.368 OFFCURVE",
"329.217 672.91 OFFCURVE",
"269.361 636.614 CURVE",
"288.32 682.448 OFFCURVE",
"207.609 715.834 OFFCURVE",
"188.65 670 CURVE",
"190.502 733.973 OFFCURVE",
"86.852 736.973 OFFCURVE",
"85 673 CURVE",
"23 673 OFFCURVE",
"23 625.148 OFFCURVE",
"85 625.148 CURVE",
"9 625.148 OFFCURVE",
"9 565.333 OFFCURVE",
"85 565.333 CURVE",
"8 565.333 OFFCURVE",
"8 433.741 OFFCURVE",
"85 433.741 CURVE",
"24 433.741 OFFCURVE",
"24 286.198 OFFCURVE",
"85 286.198 CURVE",
"6 286.198 OFFCURVE",
"6 158.593 OFFCURVE",
"85 158.593 CURVE"
);
}
);
width = 856;
},
{
anchors = (
{
name = bottom;
position = "{428, 0}";
},
{
name = top;
position = "{428, 700}";
}
);
associatedMasterId = "EC64484B-0978-4CB1-9EE9-C40A2D8C4059";
background = {
anchors = (
{
name = bottom;
position = "{428, 0}";
},
{
name = top;
position = "{428, 700}";
}
);
paths = (
{
closed = 1;
nodes = (
"263 0 LINE SMOOTH",
"278 0 OFFCURVE",
"290 12 OFFCURVE",
"290 27 CURVE SMOOTH",
"290 301 LINE",
"356 193 LINE SMOOTH",
"363 182 OFFCURVE",
"373 168 OFFCURVE",
"393 168 CURVE SMOOTH",
"463 168 LINE SMOOTH",
"483 168 OFFCURVE",
"493 182 OFFCURVE",
"500 193 CURVE SMOOTH",
"566 301 LINE",
"566 27 LINE SMOOTH",
"566 12 OFFCURVE",
"578 0 OFFCURVE",
"593 0 CURVE SMOOTH",
"774 0 LINE SMOOTH",
"789 0 OFFCURVE",
"801 12 OFFCURVE",
"801 27 CURVE SMOOTH",
"801 673 LINE SMOOTH",
"801 688 OFFCURVE",
"789 700 OFFCURVE",
"774 700 CURVE SMOOTH",
"616 700 LINE SMOOTH",
"589 700 OFFCURVE",
"577 680 OFFCURVE",
"573 673 CURVE SMOOTH",
"428 433 LINE",
"283 673 LINE SMOOTH",
"279 680 OFFCURVE",
"267 700 OFFCURVE",
"240 700 CURVE SMOOTH",
"82 700 LINE SMOOTH",
"67 700 OFFCURVE",
"55 688 OFFCURVE",
"55 673 CURVE SMOOTH",
"55 27 LINE SMOOTH",
"55 12 OFFCURVE",
"67 0 OFFCURVE",
"82 0 CURVE SMOOTH"
);
}
);
};
color = 6;
hints = (
{
horizontal = 1;
place = "{0, 0}";
type = Tag;
}
);
layerId = "73D4007A-0990-4B47-836F-8509FDBE36F8";
name = "Jul 23 21, 16:38";
paths = (
{
closed = 1;
nodes = (
"263 0 LINE SMOOTH",
"278 0 OFFCURVE",
"290 12 OFFCURVE",
"290 27 CURVE SMOOTH",
"290 301 LINE",
"356 193 LINE SMOOTH",
"363 182 OFFCURVE",
"373 168 OFFCURVE",
"393 168 CURVE SMOOTH",
"463 168 LINE SMOOTH",
"483 168 OFFCURVE",
"493 182 OFFCURVE",
"500 193 CURVE SMOOTH",
"566 301 LINE",
"566 27 LINE SMOOTH",
"566 12 OFFCURVE",
"578 0 OFFCURVE",
"593 0 CURVE SMOOTH",
"774 0 LINE SMOOTH",
"789 0 OFFCURVE",
"801 12 OFFCURVE",
"801 27 CURVE SMOOTH",
"801 673 LINE SMOOTH",
"801 688 OFFCURVE",
"789 700 OFFCURVE",
"774 700 CURVE SMOOTH",
"616 700 LINE SMOOTH",
"589 700 OFFCURVE",
"577 680 OFFCURVE",
"573 673 CURVE SMOOTH",
"428 433 LINE",
"283 673 LINE SMOOTH",
"279 680 OFFCURVE",
"267 700 OFFCURVE",
"240 700 CURVE SMOOTH",
"82 700 LINE SMOOTH",
"67 700 OFFCURVE",
"55 688 OFFCURVE",
"55 673 CURVE SMOOTH",
"55 27 LINE SMOOTH",
"55 12 OFFCURVE",
"67 0 OFFCURVE",
"82 0 CURVE SMOOTH"
);
}
);
width = 856;
}
);
leftKerningGroup = I;
rightKerningGroup = I;
unicode = 004D;
userData = {
com.typemytype.robofont.guides = (
{
angle = 0;
isGlobal = 0;
magnetic = 5;
x = 0;
y = 168;
},
{
angle = 0;
isGlobal = 0;
magnetic = 5;
x = 0;
y = 9;
},
{
angle = 0;
isGlobal = 0;
magnetic = 5;
x = 0;
y = 691;
},
{
angle = 90;
isGlobal = 0;
magnetic = 5;
x = 126;
y = 0;
},
{
angle = 90;
isGlobal = 0;
magnetic = 5;
x = 636;
y = 0;
}
);
};
},
{
color = 6;
glyphname = N;
layers = (
{
anchors = (
{
name = bottom;
position = "{374, 0}";
},
{
name = top;
position = "{370, 700}";
}
);
background = {
anchors = (
{
name = bottom;
position = "{374, 0}";
},
{
name = top;
position = "{370, 700}";
}
);
paths = (
{
closed = 1;
nodes = (
"263 0 LINE SMOOTH",
"278 0 OFFCURVE",
"290 12 OFFCURVE",
"290 27 CURVE SMOOTH",
"290 278 LINE",
"459 23 LINE SMOOTH",
"463 17 OFFCURVE",
"473 0 OFFCURVE",
"500 0 CURVE SMOOTH",
"658 0 LINE SMOOTH",
"673 0 OFFCURVE",
"685 12 OFFCURVE",
"685 27 CURVE SMOOTH",
"685 673 LINE SMOOTH",
"685 688 OFFCURVE",
"673 700 OFFCURVE",
"658 700 CURVE SMOOTH",
"477 700 LINE SMOOTH",
"462 700 OFFCURVE",
"450 688 OFFCURVE",
"450 673 CURVE SMOOTH",
"450 400 LINE",
"281 677 LINE SMOOTH",
"277 684 OFFCURVE",
"267 700 OFFCURVE",
"240 700 CURVE SMOOTH",
"82 700 LINE SMOOTH",
"67 700 OFFCURVE",
"55 688 OFFCURVE",
"55 673 CURVE SMOOTH",
"55 27 LINE SMOOTH",
"55 12 OFFCURVE",
"67 0 OFFCURVE",
"82 0 CURVE SMOOTH"
);
}
);
};
layerId = "EC64484B-0978-4CB1-9EE9-C40A2D8C4059";
paths = (
{
closed = 1;
nodes = (
"82 -38 OFFCURVE",
"152.826 -38 OFFCURVE",
"152.826 30 CURVE",
"152.826 -35 OFFCURVE",
"231.522 -35 OFFCURVE",
"231.522 30 CURVE",
"272.202 1.623 OFFCURVE",
"300.68 42.448 OFFCURVE",
"260 70.825 CURVE",
"317.6 70.825 OFFCURVE",
"317.6 222.222 OFFCURVE",
"260 222.222 CURVE",
"307.082 171.781 OFFCURVE",
"370.861 231.312 OFFCURVE",
"323.779 281.753 CURVE",
"275.1 249.491 OFFCURVE",
"347.528 140.205 OFFCURVE",
"396.208 172.468 CURVE",
"332.024 129.93 OFFCURVE",
"380.31 57.073 OFFCURVE",
"444.494 99.61 CURVE",
"389.479 63.15 OFFCURVE",
"415.816 23.409 OFFCURVE",
"470.831 59.87 CURVE",
"457.915 4.558 OFFCURVE",
"585.834 -25.312 OFFCURVE",
"598.75 30 CURVE",
"619.67 -26.235 OFFCURVE",
"675.92 -5.309 OFFCURVE",
"655 50.926 CURVE",
"731 50.926 OFFCURVE",
"731 138.654 OFFCURVE",
"655 138.654 CURVE",
"727 138.654 OFFCURVE",
"727 178.531 OFFCURVE",
"655 178.531 CURVE",
"730 178.531 OFFCURVE",
"730 318.099 OFFCURVE",
"655 318.099 CURVE",
"720 318.099 OFFCURVE",
"720 389.877 OFFCURVE",
"655 389.877 CURVE",
"725 389.877 OFFCURVE",
"725 509.506 OFFCURVE",
"655 509.506 CURVE",
"723 509.506 OFFCURVE",
"723 653.062 OFFCURVE",
"655 653.062 CURVE",
"667.568 720.907 OFFCURVE",
"576.134 737.846 OFFCURVE",
"563.565 670 CURVE",
"534.623 724.377 OFFCURVE",
"451.057 679.899 OFFCURVE",
"480 625.522 CURVE",
"424.8 625.522 OFFCURVE",
"424.8 574.087 OFFCURVE",
"480 574.087 CURVE",
"416.8 574.087 OFFCURVE",
"416.8 518.696 OFFCURVE",
"480 518.696 CURVE",
"431.2 518.696 OFFCURVE",
"431.2 443.522 OFFCURVE",
"480 443.522 CURVE",
"435.805 493.878 OFFCURVE",
"375.683 441.113 OFFCURVE",
"419.878 390.756 CURVE",
"462.903 417.006 OFFCURVE",
"417.561 491.323 OFFCURVE",
"374.537 465.073 CURVE",
"425.073 495.906 OFFCURVE",
"367.366 590.491 OFFCURVE",
"316.829 559.659 CURVE",
"374.878 595.075 OFFCURVE",
"337.781 655.88 OFFCURVE",
"279.732 620.463 CURVE",
"319.152 667.798 OFFCURVE",
"259.671 717.335 OFFCURVE",
"220.25 670 CURVE",
"220.25 744 OFFCURVE",
"176.8 744 OFFCURVE",
"176.8 670 CURVE",
"161.295 727.133 OFFCURVE",
"69.495 702.22 OFFCURVE",
"85 645.086 CURVE",
"20 645.086 OFFCURVE",
"20 533.432 OFFCURVE",
"85 533.432 CURVE",
"7 533.432 OFFCURVE",
"7 433.741 OFFCURVE",
"85 433.741 CURVE",
"16 433.741 OFFCURVE",
"16 342.025 OFFCURVE",
"85 342.025 CURVE",
"8 342.025 OFFCURVE",
"8 238.346 OFFCURVE",
"85 238.346 CURVE",
"12 238.346 OFFCURVE",
"12 118.716 OFFCURVE",
"85 118.716 CURVE",
"8 118.716 OFFCURVE",
"8 62.889 OFFCURVE",
"85 62.889 CURVE"
);
}
);
width = 740;
},
{
anchors = (
{
name = bottom;
position = "{374, 0}";
},
{
name = top;
position = "{370, 700}";
}
);
associatedMasterId = "EC64484B-0978-4CB1-9EE9-C40A2D8C4059";
background = {
anchors = (
{
name = bottom;
position = "{374, 0}";
},
{
name = top;
position = "{370, 700}";
}
);
paths = (
{
closed = 1;
nodes = (
"263 0 LINE SMOOTH",
"278 0 OFFCURVE",
"290 12 OFFCURVE",
"290 27 CURVE SMOOTH",
"290 278 LINE",
"459 23 LINE SMOOTH",
"463 17 OFFCURVE",
"473 0 OFFCURVE",
"500 0 CURVE SMOOTH",
"658 0 LINE SMOOTH",
"673 0 OFFCURVE",
"685 12 OFFCURVE",
"685 27 CURVE SMOOTH",
"685 673 LINE SMOOTH",
"685 688 OFFCURVE",
"673 700 OFFCURVE",
"658 700 CURVE SMOOTH",
"477 700 LINE SMOOTH",
"462 700 OFFCURVE",
"450 688 OFFCURVE",
"450 673 CURVE SMOOTH",
"450 400 LINE",
"281 677 LINE SMOOTH",
"277 684 OFFCURVE",
"267 700 OFFCURVE",
"240 700 CURVE SMOOTH",
"82 700 LINE SMOOTH",
"67 700 OFFCURVE",
"55 688 OFFCURVE",
"55 673 CURVE SMOOTH",
"55 27 LINE SMOOTH",
"55 12 OFFCURVE",
"67 0 OFFCURVE",
"82 0 CURVE SMOOTH"
);
}
);
};
color = 6;
layerId = "7849E05C-66F8-41D9-B361-94D4ECE9DB99";
name = "Jul 23 21, 16:38";
paths = (
{
closed = 1;
nodes = (
"263 0 LINE SMOOTH",
"278 0 OFFCURVE",
"290 12 OFFCURVE",
"290 27 CURVE SMOOTH",
"290 278 LINE",
"459 23 LINE SMOOTH",
"463 17 OFFCURVE",
"473 0 OFFCURVE",
"500 0 CURVE SMOOTH",
"658 0 LINE SMOOTH",
"673 0 OFFCURVE",
"685 12 OFFCURVE",
"685 27 CURVE SMOOTH",
"685 673 LINE SMOOTH",
"685 688 OFFCURVE",
"673 700 OFFCURVE",
"658 700 CURVE SMOOTH",
"477 700 LINE SMOOTH",
"462 700 OFFCURVE",
"450 688 OFFCURVE",
"450 673 CURVE SMOOTH",
"450 400 LINE",
"281 677 LINE SMOOTH",
"277 684 OFFCURVE",
"267 700 OFFCURVE",
"240 700 CURVE SMOOTH",
"82 700 LINE SMOOTH",
"67 700 OFFCURVE",
"55 688 OFFCURVE",
"55 673 CURVE SMOOTH",
"55 27 LINE SMOOTH",
"55 12 OFFCURVE",
"67 0 OFFCURVE",
"82 0 CURVE SMOOTH"
);
}
);
width = 740;
}
);
leftKerningGroup = I;
rightKerningGroup = I;
unicode = 004E;
userData = {
com.typemytype.robofont.guides = (
{
angle = 0;
isGlobal = 0;
magnetic = 5;
x = 0;
y = 9;
},
{
angle = 0;
isGlobal = 0;
magnetic = 5;
x = 0;
y = 691;
},
{
angle = 90;
isGlobal = 0;
magnetic = 5;
x = 540;
y = 0;
},
{
angle = 90;
isGlobal = 0;
magnetic = 5;
x = 125;
y = 0;
}
);
};
},
{
color = 6;
glyphname = Eng;
layers = (
{
background = {
paths = (
{
closed = 1;
nodes = (
"359 -225 LINE SMOOTH",
"541 -225 OFFCURVE",
"685 -145 OFFCURVE",
"685 26 CURVE SMOOTH",
"685 673 LINE SMOOTH",
"685 688 OFFCURVE",
"673 700 OFFCURVE",
"658 700 CURVE SMOOTH",
"477 700 LINE SMOOTH",
"462 700 OFFCURVE",
"450 688 OFFCURVE",
"450 673 CURVE SMOOTH",
"450 400 LINE",
"281 677 LINE SMOOTH",
"277 684 OFFCURVE",
"267 700 OFFCURVE",
"240 700 CURVE SMOOTH",
"82 700 LINE SMOOTH",
"67 700 OFFCURVE",
"55 688 OFFCURVE",
"55 673 CURVE SMOOTH",
"55 27 LINE SMOOTH",
"55 12 OFFCURVE",
"67 0 OFFCURVE",
"82 0 CURVE SMOOTH",
"263 0 LINE SMOOTH",
"278 0 OFFCURVE",
"290 12 OFFCURVE",
"290 27 CURVE SMOOTH",
"290 278 LINE",
"450 38 LINE",
"450 36 LINE",
"450 2 OFFCURVE",
"426 -22 OFFCURVE",
"383 -22 CURVE SMOOTH",
"343 -22 LINE SMOOTH",
"328 -22 OFFCURVE",
"316 -34 OFFCURVE",
"316 -49 CURVE",
"316 -198 LINE SMOOTH",
"316 -213 OFFCURVE",
"328 -225 OFFCURVE",
"343 -225 CURVE SMOOTH"
);
}
);
};
hints = (
{
horizontal = 1;
place = "{0, 0}";
type = Tag;
}
);
layerId = "EC64484B-0978-4CB1-9EE9-C40A2D8C4059";
paths = (
{
closed = 1;
nodes = (
"346.009 -267.938 OFFCURVE",
"422.105 -264.799 OFFCURVE",
"419.096 -191.861 CURVE",
"435.162 -249.67 OFFCURVE",
"558.238 -215.465 OFFCURVE",
"542.172 -157.656 CURVE",
"584.002 -209.994 OFFCURVE",
"655.553 -152.809 OFFCURVE",
"613.723 -100.471 CURVE",
"669.815 -116.725 OFFCURVE",
"711.092 25.721 OFFCURVE",
"655 41.975 CURVE",
"734 41.975 OFFCURVE",
"734 109.87 OFFCURVE",
"655 109.87 CURVE",
"732 109.87 OFFCURVE",
"732 257.642 OFFCURVE",
"655 257.642 CURVE",
"720 257.642 OFFCURVE",
"720 385.444 OFFCURVE",
"655 385.444 CURVE",
"728 385.444 OFFCURVE",
"728 433.37 OFFCURVE",
"655 433.37 CURVE",
"724 433.37 OFFCURVE",
"724 481.296 OFFCURVE",
"655 481.296 CURVE",
"721 481.296 OFFCURVE",
"721 625.074 OFFCURVE",
"655 625.074 CURVE",
"676.819 671.392 OFFCURVE",
"581.45 716.318 OFFCURVE",
"559.63 670 CURVE",
"531.33 725.613 OFFCURVE",
"451.7 685.092 OFFCURVE",
"480 629.478 CURVE",
"419 629.478 OFFCURVE",
"419 589.913 OFFCURVE",
"480 589.913 CURVE",
"416.8 589.913 OFFCURVE",
"416.8 467.261 OFFCURVE",
"480 467.261 CURVE",
"430.898 525.269 OFFCURVE",
"360.471 465.655 OFFCURVE",
"409.573 407.646 CURVE",
"456.012 435.979 OFFCURVE",
"379.756 560.967 OFFCURVE",
"333.317 532.634 CURVE",
"393.073 569.092 OFFCURVE",
"347.732 643.409 OFFCURVE",
"287.976 606.951 CURVE",
"352.854 646.534 OFFCURVE",
"330.183 683.693 OFFCURVE",
"265.305 644.11 CURVE",
"283.736 698.681 OFFCURVE",
"207.082 724.571 OFFCURVE",
"188.65 670 CURVE",
"172.561 715.223 OFFCURVE",
"68.911 678.347 OFFCURVE",
"85 633.123 CURVE",
"22 633.123 OFFCURVE",
"22 537.42 OFFCURVE",
"85 537.42 CURVE",
"15 537.42 OFFCURVE",
"15 465.642 OFFCURVE",
"85 465.642 CURVE",
"12 465.642 OFFCURVE",
"12 361.963 OFFCURVE",
"85 361.963 CURVE",
"16 361.963 OFFCURVE",
"16 262.272 OFFCURVE",
"85 262.272 CURVE",
"13 262.272 OFFCURVE",
"13 214.42 OFFCURVE",
"85 214.42 CURVE",
"20 214.42 OFFCURVE",
"20 106.753 OFFCURVE",
"85 106.753 CURVE",
"42.984 80.394 OFFCURVE",
"91.136 3.641 OFFCURVE",
"133.152 30 CURVE",
"133.152 -42 OFFCURVE",
"219.717 -42 OFFCURVE",
"219.717 30 CURVE",
"238.063 -27.126 OFFCURVE",
"278.346 -14.19 OFFCURVE",
"260 42.937 CURVE",
"315.2 42.937 OFFCURVE",
"315.2 158.476 OFFCURVE",
"260 158.476 CURVE",
"307.809 154.198 OFFCURVE",
"318.809 277.122 OFFCURVE",
"271 281.4 CURVE",
"238.384 231.995 OFFCURVE",
"332.984 169.542 OFFCURVE",
"365.6 218.947 CURVE",
"323.639 191.029 OFFCURVE",
"402.839 71.989 OFFCURVE",
"444.8 99.907 CURVE",
"367.037 85.979 OFFCURVE",
"387.364 -27.508 OFFCURVE",
"465.127 -13.58 CURVE",
"431.548 42.075 OFFCURVE",
"370.853 5.456 OFFCURVE",
"404.432 -50.199 CURVE",
"379.841 -8.048 OFFCURVE",
"321.408 -42.139 OFFCURVE",
"346 -84.289 CURVE",
"283 -84.289 OFFCURVE",
"283 -123.5 OFFCURVE",
"346 -123.5 CURVE"
);
}
);
width = 740;
},
{
associatedMasterId = "EC64484B-0978-4CB1-9EE9-C40A2D8C4059";
background = {
paths = (
{
closed = 1;
nodes = (
"359 -225 LINE SMOOTH",
"541 -225 OFFCURVE",
"685 -145 OFFCURVE",
"685 26 CURVE SMOOTH",
"685 673 LINE SMOOTH",
"685 688 OFFCURVE",
"673 700 OFFCURVE",
"658 700 CURVE SMOOTH",
"477 700 LINE SMOOTH",
"462 700 OFFCURVE",
"450 688 OFFCURVE",
"450 673 CURVE SMOOTH",
"450 400 LINE",
"281 677 LINE SMOOTH",
"277 684 OFFCURVE",
"267 700 OFFCURVE",
"240 700 CURVE SMOOTH",
"82 700 LINE SMOOTH",
"67 700 OFFCURVE",
"55 688 OFFCURVE",
"55 673 CURVE SMOOTH",
"55 27 LINE SMOOTH",
"55 12 OFFCURVE",
"67 0 OFFCURVE",
"82 0 CURVE SMOOTH",
"263 0 LINE SMOOTH",
"278 0 OFFCURVE",
"290 12 OFFCURVE",
"290 27 CURVE SMOOTH",
"290 278 LINE",
"450 38 LINE",
"450 36 LINE",
"450 2 OFFCURVE",
"426 -22 OFFCURVE",
"383 -22 CURVE SMOOTH",
"343 -22 LINE SMOOTH",
"328 -22 OFFCURVE",
"316 -34 OFFCURVE",
"316 -49 CURVE",
"316 -198 LINE SMOOTH",
"316 -213 OFFCURVE",
"328 -225 OFFCURVE",
"343 -225 CURVE SMOOTH"
);
}
);
};
color = 6;
hints = (
{
horizontal = 1;
place = "{0, 0}";
type = Tag;
}
);
layerId = "FC8CEA7B-3CDB-4B2E-AAC3-05B9ECFC1FE1";
name = "Jul 23 21, 16:38";
paths = (
{
closed = 1;
nodes = (
"359 -225 LINE SMOOTH",
"541 -225 OFFCURVE",
"685 -145 OFFCURVE",
"685 26 CURVE SMOOTH",
"685 673 LINE SMOOTH",
"685 688 OFFCURVE",
"673 700 OFFCURVE",
"658 700 CURVE SMOOTH",
"477 700 LINE SMOOTH",
"462 700 OFFCURVE",
"450 688 OFFCURVE",
"450 673 CURVE SMOOTH",
"450 400 LINE",
"281 677 LINE SMOOTH",
"277 684 OFFCURVE",
"267 700 OFFCURVE",
"240 700 CURVE SMOOTH",
"82 700 LINE SMOOTH",
"67 700 OFFCURVE",
"55 688 OFFCURVE",
"55 673 CURVE SMOOTH",
"55 27 LINE SMOOTH",
"55 12 OFFCURVE",
"67 0 OFFCURVE",
"82 0 CURVE SMOOTH",
"263 0 LINE SMOOTH",
"278 0 OFFCURVE",
"290 12 OFFCURVE",
"290 27 CURVE SMOOTH",
"290 278 LINE",
"450 38 LINE",
"450 36 LINE",
"450 2 OFFCURVE",
"426 -22 OFFCURVE",
"383 -22 CURVE SMOOTH",
"343 -22 LINE SMOOTH",
"328 -22 OFFCURVE",
"316 -34 OFFCURVE",
"316 -49 CURVE",
"316 -198 LINE SMOOTH",
"316 -213 OFFCURVE",
"328 -225 OFFCURVE",
"343 -225 CURVE SMOOTH"
);
}
);
width = 740;
}
);
leftKerningGroup = I;
rightKerningGroup = I;
unicode = 014A;
},
{
color = 6;
glyphname = O;
layers = (
{
anchors = (
{
name = bottom;
position = "{371, 0}";
},
{
name = center;
position = "{371, 350}";
},
{
name = ogonek;
position = "{668, 10}";
},
{
name = top;
position = "{371, 700}";
},
{
name = topleft;
position = "{20, 700}";
},
{
name = topright;
position = "{722, 700}";
}
);
background = {
anchors = (
{
name = bottom;
position = "{371, 0}";
},
{
name = center;
position = "{371, 350}";
},
{
name = ogonek;
position = "{668, 10}";
},
{
name = top;
position = "{371, 700}";
},
{
name = topleft;
position = "{20, 700}";
},
{
name = topright;
position = "{722, 700}";
}
);
paths = (
{
closed = 1;
nodes = (
"567 -10 OFFCURVE",
"697 81 OFFCURVE",
"705 260 CURVE SMOOTH",
"707 314 OFFCURVE",
"707 379 OFFCURVE",
"705 436 CURVE SMOOTH",
"698 611 OFFCURVE",
"567 710 OFFCURVE",
"371 710 CURVE SMOOTH",
"175 710 OFFCURVE",
"44 611 OFFCURVE",
"37 436 CURVE SMOOTH",
"35 379 OFFCURVE",
"35 314 OFFCURVE",
"37 260 CURVE SMOOTH",
"45 81 OFFCURVE",
"175 -10 OFFCURVE",
"371 -10 CURVE SMOOTH"
);
},
{
closed = 1;
nodes = (
"327 185 OFFCURVE",
"299 210 OFFCURVE",
"297 266 CURVE SMOOTH",
"295 323 OFFCURVE",
"295 379 OFFCURVE",
"297 434 CURVE SMOOTH",
"299 490 OFFCURVE",
"328 515 OFFCURVE",
"371 515 CURVE SMOOTH",
"414 515 OFFCURVE",
"443 490 OFFCURVE",
"445 434 CURVE SMOOTH",
"447 379 OFFCURVE",
"447 323 OFFCURVE",
"445 266 CURVE SMOOTH",
"443 210 OFFCURVE",
"415 185 OFFCURVE",
"371 185 CURVE SMOOTH"
);
}
);
};
layerId = "EC64484B-0978-4CB1-9EE9-C40A2D8C4059";
paths = (
{
closed = 1;
nodes = (
"374.342 -53.924 OFFCURVE",
"426.442 -51.569 OFFCURVE",
"423.1 22.356 CURVE",
"440.006 -39.371 OFFCURVE",
"570.775 -3.554 OFFCURVE",
"553.868 58.173 CURVE",
"593.166 21.722 OFFCURVE",
"694.711 131.198 OFFCURVE",
"655.413 167.649 CURVE",
"719.274 155.533 OFFCURVE",
"739.269 260.929 OFFCURVE",
"675.408 273.044 CURVE",
"748.395 271.646 OFFCURVE",
"749.395 323.86 OFFCURVE",
"676.408 325.258 CURVE",
"738.373 327.353 OFFCURVE",
"733.445 473.101 OFFCURVE",
"671.48 471.006 CURVE",
"728.805 488.722 OFFCURVE",
"707.507 557.639 OFFCURVE",
"650.182 539.923 CURVE",
"710.558 584.418 OFFCURVE",
"663.109 648.803 OFFCURVE",
"602.733 604.309 CURVE",
"646.879 663.698 OFFCURVE",
"605.002 694.826 OFFCURVE",
"560.856 635.437 CURVE",
"591.219 702.921 OFFCURVE",
"536.305 727.628 OFFCURVE",
"505.942 660.144 CURVE",
"514.792 735.627 OFFCURVE",
"351.661 754.753 OFFCURVE",
"342.811 679.27 CURVE",
"333.66 743.623 OFFCURVE",
"254.009 732.296 OFFCURVE",
"263.161 667.943 CURVE",
"233.523 741.173 OFFCURVE",
"147.977 706.551 OFFCURVE",
"177.614 633.321 CURVE",
"139.758 682.422 OFFCURVE",
"98.369 650.512 OFFCURVE",
"136.225 601.411 CURVE",
"90.675 624.792 OFFCURVE",
"25.563 497.943 OFFCURVE",
"71.113 474.562 CURVE",
"-3.841 477.182 OFFCURVE",
"-9.297 321.108 OFFCURVE",
"65.657 318.488 CURVE",
"2.269 309.663 OFFCURVE",
"23.302 158.574 OFFCURVE",
"86.691 167.398 CURVE",
"33.73 129.712 OFFCURVE",
"88.985 52.062 OFFCURVE",
"141.946 89.747 CURVE",
"112.734 26.134 OFFCURVE",
"245.844 -34.991 OFFCURVE",
"275.055 28.623 CURVE"
);
},
{
closed = 1;
nodes = (
"379.792 203.916 OFFCURVE",
"336.495 211.698 OFFCURVE",
"327.703 162.782 CURVE",
"362.299 188.986 OFFCURVE",
"304.244 265.636 OFFCURVE",
"269.647 239.432 CURVE",
"324.866 242.43 OFFCURVE",
"321.078 312.183 OFFCURVE",
"265.86 309.185 CURVE",
"307.857 309.663 OFFCURVE",
"307.537 337.789 OFFCURVE",
"265.539 337.311 CURVE",
"311.736 336.754 OFFCURVE",
"312.753 421.126 OFFCURVE",
"266.556 421.682 CURVE",
"316.416 407.639 OFFCURVE",
"341.333 496.106 OFFCURVE",
"291.473 510.149 CURVE",
"314.365 461.353 OFFCURVE",
"388.422 496.096 OFFCURVE",
"365.529 544.892 CURVE",
"354.105 497.243 OFFCURVE",
"417.086 482.142 OFFCURVE",
"428.511 529.792 CURVE",
"385.909 502.861 OFFCURVE",
"429.706 433.58 OFFCURVE",
"472.308 460.511 CURVE",
"424.055 458.38 OFFCURVE",
"428.196 364.605 OFFCURVE",
"476.449 366.736 CURVE",
"425.357 367.601 OFFCURVE",
"423.498 257.822 OFFCURVE",
"474.591 256.957 CURVE",
"424.691 279.12 OFFCURVE",
"389.661 200.253 OFFCURVE",
"439.56 178.089 CURVE"
);
}
);
width = 742;
},
{
anchors = (
{
name = bottom;
position = "{371, 0}";
},
{
name = center;
position = "{371, 350}";
},
{
name = ogonek;
position = "{668, 10}";
},
{
name = top;
position = "{371, 700}";
},
{
name = topleft;
position = "{20, 700}";
},
{
name = topright;
position = "{722, 700}";
}
);
associatedMasterId = "EC64484B-0978-4CB1-9EE9-C40A2D8C4059";
background = {
anchors = (
{
name = bottom;
position = "{371, 0}";
},
{
name = center;
position = "{371, 350}";
},
{
name = ogonek;
position = "{668, 10}";
},
{
name = top;
position = "{371, 700}";
},
{
name = topleft;
position = "{20, 700}";
},
{
name = topright;
position = "{722, 700}";
}
);
paths = (
{
closed = 1;
nodes = (
"567 -10 OFFCURVE",
"697 81 OFFCURVE",
"705 260 CURVE SMOOTH",
"707 314 OFFCURVE",
"707 379 OFFCURVE",
"705 436 CURVE SMOOTH",
"698 611 OFFCURVE",
"567 710 OFFCURVE",
"371 710 CURVE SMOOTH",
"175 710 OFFCURVE",
"44 611 OFFCURVE",
"37 436 CURVE SMOOTH",
"35 379 OFFCURVE",
"35 314 OFFCURVE",
"37 260 CURVE SMOOTH",
"45 81 OFFCURVE",
"175 -10 OFFCURVE",
"371 -10 CURVE SMOOTH"
);
},
{
closed = 1;
nodes = (
"327 185 OFFCURVE",
"299 210 OFFCURVE",
"297 266 CURVE SMOOTH",
"295 323 OFFCURVE",
"295 379 OFFCURVE",
"297 434 CURVE SMOOTH",
"299 490 OFFCURVE",
"328 515 OFFCURVE",
"371 515 CURVE SMOOTH",
"414 515 OFFCURVE",
"443 490 OFFCURVE",
"445 434 CURVE SMOOTH",
"447 379 OFFCURVE",
"447 323 OFFCURVE",
"445 266 CURVE SMOOTH",
"443 210 OFFCURVE",
"415 185 OFFCURVE",
"371 185 CURVE SMOOTH"
);
}
);
};
color = 6;
layerId = "3E8F338C-4A35-4E37-8923-F2BE757BFF48";
name = "Jul 23 21, 16:38";
paths = (
{
closed = 1;
nodes = (
"567 -10 OFFCURVE",
"697 81 OFFCURVE",
"705 260 CURVE SMOOTH",
"707 314 OFFCURVE",
"707 379 OFFCURVE",
"705 436 CURVE SMOOTH",
"698 611 OFFCURVE",
"567 710 OFFCURVE",
"371 710 CURVE SMOOTH",
"175 710 OFFCURVE",
"44 611 OFFCURVE",
"37 436 CURVE SMOOTH",
"35 379 OFFCURVE",
"35 314 OFFCURVE",
"37 260 CURVE SMOOTH",
"45 81 OFFCURVE",
"175 -10 OFFCURVE",
"371 -10 CURVE SMOOTH"
);
},
{
closed = 1;
nodes = (
"327 185 OFFCURVE",
"299 210 OFFCURVE",
"297 266 CURVE SMOOTH",
"295 323 OFFCURVE",
"295 379 OFFCURVE",
"297 434 CURVE SMOOTH",
"299 490 OFFCURVE",
"328 515 OFFCURVE",
"371 515 CURVE SMOOTH",
"414 515 OFFCURVE",
"443 490 OFFCURVE",
"445 434 CURVE SMOOTH",
"447 379 OFFCURVE",
"447 323 OFFCURVE",
"445 266 CURVE SMOOTH",
"443 210 OFFCURVE",
"415 185 OFFCURVE",
"371 185 CURVE SMOOTH"
);
}
);
width = 742;
}
);
leftKerningGroup = O;
rightKerningGroup = O;
unicode = 004F;
userData = {
com.typemytype.robofont.guides = (
{
angle = 0;
isGlobal = 0;
magnetic = 5;
x = 0;
y = "-10";
},
{
angle = 0;
isGlobal = 0;
magnetic = 5;
x = 0;
y = 710;
},
{
angle = 0;
isGlobal = 0;
magnetic = 5;
x = 0;
y = 335;
},
{
angle = 0;
isGlobal = 0;
magnetic = 5;
x = 0;
y = 434;
},
{
angle = 0;
isGlobal = 0;
magnetic = 5;
x = 0;
y = 266;
},
{
angle = 90;
isGlobal = 0;
magnetic = 5;
x = 496;
y = 0;
}
);
};
},
{
color = 6;
glyphname = OE;
layers = (
{
anchors = (
{
name = bottom;
position = "{501, 0}";
},
{
name = top;
position = "{501, 700}";
}
);
background = {
anchors = (
{
name = bottom;
position = "{501, 0}";
},
{
name = top;
position = "{501, 700}";
}
);
paths = (
{
closed = 1;
nodes = (
"937 0 LINE",
"952 0 OFFCURVE",
"964 12 OFFCURVE",
"964 27 CURVE",
"964 168 LINE",
"964 183 OFFCURVE",
"952 195 OFFCURVE",
"937 195 CURVE",
"649 195 LINE",
"649 258 LINE",
"907 258 LINE",
"922 258 OFFCURVE",
"934 270 OFFCURVE",
"934 285 CURVE",
"934 415 LINE",
"934 430 OFFCURVE",
"922 442 OFFCURVE",
"907 442 CURVE",
"649 442 LINE",
"649 505 LINE",
"929 505 LINE",
"944 505 OFFCURVE",
"956 517 OFFCURVE",
"956 532 CURVE",
"956 673 LINE",
"956 688 OFFCURVE",
"944 700 OFFCURVE",
"929 700 CURVE",
"369 700 LINE",
"182 700 OFFCURVE",
"42 604 OFFCURVE",
"35 425 CURVE SMOOTH",
"33 368 OFFCURVE",
"33 330 OFFCURVE",
"35 276 CURVE SMOOTH",
"43 87 OFFCURVE",
"173 0 OFFCURVE",
"364 0 CURVE"
);
},
{
closed = 1;
nodes = (
"325 195 OFFCURVE",
"292 220 OFFCURVE",
"289 276 CURVE SMOOTH",
"286 333 OFFCURVE",
"286 370 OFFCURVE",
"289 425 CURVE SMOOTH",
"292 481 OFFCURVE",
"329 505 OFFCURVE",
"374 505 CURVE",
"410 505 LINE",
"410 195 LINE",
"369 195 LINE"
);
}
);
};
hints = (
{
horizontal = 1;
place = "{0, 0}";
type = Tag;
}
);
layerId = "EC64484B-0978-4CB1-9EE9-C40A2D8C4059";
paths = (
{
closed = 1;
nodes = (
"364 -48 OFFCURVE",
"419.708 -48 OFFCURVE",
"419.708 30 CURVE",
"419.708 -35 OFFCURVE",
"566.938 -35 OFFCURVE",
"566.938 30 CURVE",
"566.938 -36 OFFCURVE",
"634.583 -36 OFFCURVE",
"634.583 30 CURVE",
"634.583 -37 OFFCURVE",
"702.229 -37 OFFCURVE",
"702.229 30 CURVE",
"702.229 -43 OFFCURVE",
"809.667 -43 OFFCURVE",
"809.667 30 CURVE",
"810.234 -46.998 OFFCURVE",
"934.568 -46.081 OFFCURVE",
"934 30.917 CURVE",
"1003 30.917 OFFCURVE",
"1003 156.25 OFFCURVE",
"934 156.25 CURVE",
"954.119 231.611 OFFCURVE",
"921.344 240.361 OFFCURVE",
"901.225 165 CURVE",
"901.225 214.6 OFFCURVE",
"845.575 214.6 OFFCURVE",
"845.575 165 CURVE",
"845.575 221 OFFCURVE",
"770.05 221 OFFCURVE",
"770.05 165 CURVE",
"770.05 227.4 OFFCURVE",
"674.65 227.4 OFFCURVE",
"674.65 165 CURVE",
"674.65 223.4 OFFCURVE",
"626.95 223.4 OFFCURVE",
"626.95 165 CURVE",
"691.742 170.193 OFFCURVE",
"683.792 269.386 OFFCURVE",
"619 264.194 CURVE",
"632.828 210.754 OFFCURVE",
"724.828 234.56 OFFCURVE",
"711 288 CURVE",
"711 232 OFFCURVE",
"799 232 OFFCURVE",
"799 288 CURVE",
"799 229.6 OFFCURVE",
"851 229.6 OFFCURVE",
"851 288 CURVE",
"880.244 240.243 OFFCURVE",
"933.244 272.697 OFFCURVE",
"904 320.455 CURVE",
"978 320.455 OFFCURVE",
"978 395.303 OFFCURVE",
"904 395.303 CURVE",
"916.34 443.343 OFFCURVE",
"851.34 460.04 OFFCURVE",
"839 412 CURVE",
"839 461.6 OFFCURVE",
"787 461.6 OFFCURVE",
"787 412 CURVE",
"787 472 OFFCURVE",
"639 472 OFFCURVE",
"639 412 CURVE",
"691.456 445.051 OFFCURVE",
"671.456 476.793 OFFCURVE",
"619 443.742 CURVE",
"683 443.742 OFFCURVE",
"683 535 OFFCURVE",
"619 535 CURVE",
"619 475 OFFCURVE",
"746.179 475 OFFCURVE",
"746.179 535 CURVE",
"746.179 482.2 OFFCURVE",
"877.333 482.2 OFFCURVE",
"877.333 535 CURVE",
"918.109 489.9 OFFCURVE",
"966.775 533.9 OFFCURVE",
"926 579 CURVE",
"986 579 OFFCURVE",
"986 637.75 OFFCURVE",
"926 637.75 CURVE",
"954.758 688.578 OFFCURVE",
"897.758 720.828 OFFCURVE",
"869 670 CURVE",
"869 747 OFFCURVE",
"725 747 OFFCURVE",
"725 670 CURVE",
"725 746 OFFCURVE",
"621 746 OFFCURVE",
"621 670 CURVE",
"621 739 OFFCURVE",
"497 739 OFFCURVE",
"497 670 CURVE",
"496.533 744.999 OFFCURVE",
"336.328 744 OFFCURVE",
"336.795 669.002 CURVE",
"323.835 743.889 OFFCURVE",
"232.75 728.125 OFFCURVE",
"245.71 653.238 CURVE",
"213.977 704.16 OFFCURVE",
"89.216 626.412 OFFCURVE",
"120.949 575.49 CURVE",
"64.454 601.031 OFFCURVE",
"12.029 485.071 OFFCURVE",
"68.524 459.53 CURVE",
"-7.401 462.92 OFFCURVE",
"-12.422 350.462 OFFCURVE",
"63.502 347.072 CURVE",
"-10.471 345.08 OFFCURVE",
"-8.26 262.966 OFFCURVE",
"65.713 264.958 CURVE",
"3.761 248.896 OFFCURVE",
"30.83 144.486 OFFCURVE",
"92.782 160.548 CURVE",
"35.447 113.765 OFFCURVE",
"93.426 42.707 OFFCURVE",
"150.761 89.49 CURVE",
"124.13 30.196 OFFCURVE",
"233.243 -18.812 OFFCURVE",
"259.875 40.482 CURVE",
"249.225 -29.715 OFFCURVE",
"304.834 -38.152 OFFCURVE",
"315.484 32.045 CURVE"
);
},
{
closed = 1;
nodes = (
"377.829 210.349 OFFCURVE",
"330.066 219.648 OFFCURVE",
"321.237 174.299 CURVE",
"347.414 216.547 OFFCURVE",
"323.204 231.548 OFFCURVE",
"297.027 189.3 CURVE",
"332.732 204.071 OFFCURVE",
"294.302 296.967 OFFCURVE",
"258.596 282.195 CURVE",
"298.326 283.753 OFFCURVE",
"297.04 316.548 OFFCURVE",
"257.31 314.99 CURVE",
"292.026 315.576 OFFCURVE",
"291.471 348.39 OFFCURVE",
"256.756 347.804 CURVE",
"296.511 347.168 OFFCURVE",
"297.234 392.287 OFFCURVE",
"257.479 392.923 CURVE",
"297.517 382.236 OFFCURVE",
"325.572 487.345 OFFCURVE",
"285.534 498.032 CURVE",
"306.086 446.693 OFFCURVE",
"398.434 483.661 OFFCURVE",
"377.882 535 CURVE",
"365.201 485.499 OFFCURVE",
"427.318 469.585 OFFCURVE",
"440 519.086 CURVE",
"400.24 519.086 OFFCURVE",
"400.24 423.602 OFFCURVE",
"440 423.602 CURVE",
"406.4 423.602 OFFCURVE",
"406.4 371.882 OFFCURVE",
"440 371.882 CURVE",
"398.56 371.882 OFFCURVE",
"398.56 328.118 OFFCURVE",
"440 328.118 CURVE",
"398 328.118 OFFCURVE",
"398 232.634 OFFCURVE",
"440 232.634 CURVE",
"401.92 232.634 OFFCURVE",
"401.92 168.978 OFFCURVE",
"440 168.978 CURVE",
"436.881 212.266 OFFCURVE",
"381.659 208.288 OFFCURVE",
"384.778 165 CURVE"
);
}
);
width = 1002;
},
{
anchors = (
{
name = bottom;
position = "{501, 0}";
},
{
name = top;
position = "{501, 700}";
}
);
associatedMasterId = "EC64484B-0978-4CB1-9EE9-C40A2D8C4059";
background = {
anchors = (
{
name = bottom;
position = "{501, 0}";
},
{
name = top;
position = "{501, 700}";
}
);
paths = (
{
closed = 1;
nodes = (
"937 0 LINE",
"952 0 OFFCURVE",
"964 12 OFFCURVE",
"964 27 CURVE",
"964 168 LINE",
"964 183 OFFCURVE",
"952 195 OFFCURVE",
"937 195 CURVE",
"649 195 LINE",
"649 258 LINE",
"907 258 LINE",
"922 258 OFFCURVE",
"934 270 OFFCURVE",
"934 285 CURVE",
"934 415 LINE",
"934 430 OFFCURVE",
"922 442 OFFCURVE",
"907 442 CURVE",
"649 442 LINE",
"649 505 LINE",
"929 505 LINE",
"944 505 OFFCURVE",
"956 517 OFFCURVE",
"956 532 CURVE",
"956 673 LINE",
"956 688 OFFCURVE",
"944 700 OFFCURVE",
"929 700 CURVE",
"369 700 LINE",
"182 700 OFFCURVE",
"42 604 OFFCURVE",
"35 425 CURVE SMOOTH",
"33 368 OFFCURVE",
"33 330 OFFCURVE",
"35 276 CURVE SMOOTH",
"43 87 OFFCURVE",
"173 0 OFFCURVE",
"364 0 CURVE"
);
},
{
closed = 1;
nodes = (
"325 195 OFFCURVE",
"292 220 OFFCURVE",
"289 276 CURVE SMOOTH",
"286 333 OFFCURVE",
"286 370 OFFCURVE",
"289 425 CURVE SMOOTH",
"292 481 OFFCURVE",
"329 505 OFFCURVE",
"374 505 CURVE",
"410 505 LINE",
"410 195 LINE",
"369 195 LINE"
);
}
);
};
color = 6;
hints = (
{
horizontal = 1;
place = "{0, 0}";
type = Tag;
}
);
layerId = "C3680DC7-7FA9-4B7C-86A2-063217B305F9";
name = "Jul 23 21, 16:38";
paths = (
{
closed = 1;
nodes = (
"937 0 LINE",
"952 0 OFFCURVE",
"964 12 OFFCURVE",
"964 27 CURVE",
"964 168 LINE",
"964 183 OFFCURVE",
"952 195 OFFCURVE",
"937 195 CURVE",
"649 195 LINE",
"649 258 LINE",
"907 258 LINE",
"922 258 OFFCURVE",
"934 270 OFFCURVE",
"934 285 CURVE",
"934 415 LINE",
"934 430 OFFCURVE",
"922 442 OFFCURVE",
"907 442 CURVE",
"649 442 LINE",
"649 505 LINE",
"929 505 LINE",
"944 505 OFFCURVE",
"956 517 OFFCURVE",
"956 532 CURVE",
"956 673 LINE",
"956 688 OFFCURVE",
"944 700 OFFCURVE",
"929 700 CURVE",
"369 700 LINE",
"182 700 OFFCURVE",
"42 604 OFFCURVE",
"35 425 CURVE SMOOTH",
"33 368 OFFCURVE",
"33 330 OFFCURVE",
"35 276 CURVE SMOOTH",
"43 87 OFFCURVE",
"173 0 OFFCURVE",
"364 0 CURVE"
);
},
{
closed = 1;
nodes = (
"325 195 OFFCURVE",
"292 220 OFFCURVE",
"289 276 CURVE SMOOTH",
"286 333 OFFCURVE",
"286 370 OFFCURVE",
"289 425 CURVE SMOOTH",
"292 481 OFFCURVE",
"329 505 OFFCURVE",
"374 505 CURVE",
"410 505 LINE",
"410 195 LINE",
"369 195 LINE"
);
}
);
width = 1002;
}
);
leftKerningGroup = O;
rightKerningGroup = E;
unicode = 0152;
userData = {
com.typemytype.robofont.guides = (
{
angle = 90;
isGlobal = 0;
magnetic = 5;
x = 842;
y = 0;
},
{
angle = 90;
isGlobal = 0;
magnetic = 5;
x = 66;
y = 0;
},
{
angle = 90;
isGlobal = 0;
magnetic = 5;
x = 439;
y = 0;
},
{
angle = 90;
isGlobal = 0;
magnetic = 5;
x = 502;
y = 0;
}
);
};
},
{
color = 6;
glyphname = P;
layers = (
{
anchors = (
{
name = bottom;
position = "{353, 0}";
},
{
name = top;
position = "{353, 700}";
}
);
background = {
anchors = (
{
name = bottom;
position = "{353, 0}";
},
{
name = top;
position = "{353, 700}";
}
);
paths = (
{
closed = 1;
nodes = (
"288 0 LINE SMOOTH",
"303 0 OFFCURVE",
"315 12 OFFCURVE",
"315 27 CURVE SMOOTH",
"315 218 LINE",
"385 218 LINE SMOOTH",
"566 218 OFFCURVE",
"686 289 OFFCURVE",
"686 455 CURVE SMOOTH",
"686 621 OFFCURVE",
"566 700 OFFCURVE",
"385 700 CURVE SMOOTH",
"82 700 LINE SMOOTH",
"67 700 OFFCURVE",
"55 688 OFFCURVE",
"55 673 CURVE SMOOTH",
"55 27 LINE SMOOTH",
"55 12 OFFCURVE",
"67 0 OFFCURVE",
"82 0 CURVE SMOOTH"
);
},
{
closed = 1;
nodes = (
"310 514 LINE",
"380 514 LINE SMOOTH",
"416 514 OFFCURVE",
"426 482 OFFCURVE",
"426 457 CURVE SMOOTH",
"426 418 OFFCURVE",
"401 403 OFFCURVE",
"380 403 CURVE SMOOTH",
"310 403 LINE"
);
}
);
};
hints = (
{
horizontal = 1;
place = "{0, 0}";
type = Tag;
}
);
layerId = "EC64484B-0978-4CB1-9EE9-C40A2D8C4059";
paths = (
{
closed = 1;
nodes = (
"82 -35 OFFCURVE",
"137.462 -35 OFFCURVE",
"137.462 30 CURVE",
"137.462 -30 OFFCURVE",
"188.962 -30 OFFCURVE",
"188.962 30 CURVE",
"189.572 -31.997 OFFCURVE",
"285.611 -31.051 OFFCURVE",
"285 30.946 CURVE",
"359 30.946 OFFCURVE",
"359 90.143 OFFCURVE",
"285 90.143 CURVE",
"352 90.143 OFFCURVE",
"352 204.589 OFFCURVE",
"285 204.589 CURVE",
"313.363 134.08 OFFCURVE",
"421.399 177.538 OFFCURVE",
"393.037 248.047 CURVE",
"402.086 183.68 OFFCURVE",
"528.952 201.517 OFFCURVE",
"519.902 265.884 CURVE",
"548.996 206.642 OFFCURVE",
"613.633 238.385 OFFCURVE",
"584.539 297.627 CURVE",
"635.586 263.148 OFFCURVE",
"699.486 357.753 OFFCURVE",
"648.439 392.232 CURVE",
"708.385 394.777 OFFCURVE",
"702.208 540.248 OFFCURVE",
"642.262 537.703 CURVE",
"692.442 572.387 OFFCURVE",
"642.769 644.253 OFFCURVE",
"592.589 609.569 CURVE",
"628.071 675.644 OFFCURVE",
"547.317 719.009 OFFCURVE",
"511.835 652.933 CURVE",
"530.277 727.692 OFFCURVE",
"491.335 737.298 OFFCURVE",
"472.893 662.539 CURVE",
"476.845 734.431 OFFCURVE",
"341.11 741.891 OFFCURVE",
"337.158 670 CURVE",
"337.158 734 OFFCURVE",
"285.329 734 OFFCURVE",
"285.329 670 CURVE",
"285.329 748 OFFCURVE",
"133.829 748 OFFCURVE",
"133.829 670 CURVE",
"119.566 747.702 OFFCURVE",
"70.737 738.739 OFFCURVE",
"85 661.037 CURVE",
"21 661.037 OFFCURVE",
"21 617.173 OFFCURVE",
"85 617.173 CURVE",
"19 617.173 OFFCURVE",
"19 481.593 OFFCURVE",
"85 481.593 CURVE",
"16 481.593 OFFCURVE",
"16 377.914 OFFCURVE",
"85 377.914 CURVE",
"7 377.914 OFFCURVE",
"7 282.21 OFFCURVE",
"85 282.21 CURVE",
"17 282.21 OFFCURVE",
"17 226.383 OFFCURVE",
"85 226.383 CURVE",
"21 226.383 OFFCURVE",
"21 94.79 OFFCURVE",
"85 94.79 CURVE"
);
},
{
closed = 1;
nodes = (
"324.24 373 OFFCURVE",
"324.24 468.442 OFFCURVE",
"280 468.442 CURVE",
"315.84 468.442 OFFCURVE",
"315.84 536.047 OFFCURVE",
"280 536.047 CURVE",
"289.544 492.848 OFFCURVE",
"325.544 500.802 OFFCURVE",
"316 544 CURVE",
"315.319 507.606 OFFCURVE",
"395.327 506.11 OFFCURVE",
"396.008 542.504 CURVE",
"379.043 509.667 OFFCURVE",
"414.296 491.454 OFFCURVE",
"431.261 524.29 CURVE",
"397.169 507.324 OFFCURVE",
"420.109 461.231 OFFCURVE",
"454.2 478.198 CURVE",
"420.961 483.106 OFFCURVE",
"410.954 415.329 OFFCURVE",
"444.193 410.421 CURVE",
"405.078 449.512 OFFCURVE",
"376.8 421.216 OFFCURVE",
"415.915 382.125 CURVE",
"411.991 423.379 OFFCURVE",
"316.075 414.254 OFFCURVE",
"320 373 CURVE"
);
}
);
width = 705;
},
{
anchors = (
{
name = bottom;
position = "{353, 0}";
},
{
name = top;
position = "{353, 700}";
}
);
associatedMasterId = "EC64484B-0978-4CB1-9EE9-C40A2D8C4059";
background = {
anchors = (
{
name = bottom;
position = "{353, 0}";
},
{
name = top;
position = "{353, 700}";
}
);
paths = (
{
closed = 1;
nodes = (
"288 0 LINE SMOOTH",
"303 0 OFFCURVE",
"315 12 OFFCURVE",
"315 27 CURVE SMOOTH",
"315 218 LINE",
"385 218 LINE SMOOTH",
"566 218 OFFCURVE",
"686 289 OFFCURVE",
"686 455 CURVE SMOOTH",
"686 621 OFFCURVE",
"566 700 OFFCURVE",
"385 700 CURVE SMOOTH",
"82 700 LINE SMOOTH",
"67 700 OFFCURVE",
"55 688 OFFCURVE",
"55 673 CURVE SMOOTH",
"55 27 LINE SMOOTH",
"55 12 OFFCURVE",
"67 0 OFFCURVE",
"82 0 CURVE SMOOTH"
);
},
{
closed = 1;
nodes = (
"310 514 LINE",
"380 514 LINE SMOOTH",
"416 514 OFFCURVE",
"426 482 OFFCURVE",
"426 457 CURVE SMOOTH",
"426 418 OFFCURVE",
"401 403 OFFCURVE",
"380 403 CURVE SMOOTH",
"310 403 LINE"
);
}
);
};
color = 6;
hints = (
{
horizontal = 1;
place = "{0, 0}";
type = Tag;
}
);
layerId = "DE10A7CA-65C1-44E7-872E-814744D842F5";
name = "Jul 23 21, 16:38";
paths = (
{
closed = 1;
nodes = (
"288 0 LINE SMOOTH",
"303 0 OFFCURVE",
"315 12 OFFCURVE",
"315 27 CURVE SMOOTH",
"315 218 LINE",
"385 218 LINE SMOOTH",
"566 218 OFFCURVE",
"686 289 OFFCURVE",
"686 455 CURVE SMOOTH",
"686 621 OFFCURVE",
"566 700 OFFCURVE",
"385 700 CURVE SMOOTH",
"82 700 LINE SMOOTH",
"67 700 OFFCURVE",
"55 688 OFFCURVE",
"55 673 CURVE SMOOTH",
"55 27 LINE SMOOTH",
"55 12 OFFCURVE",
"67 0 OFFCURVE",
"82 0 CURVE SMOOTH"
);
},
{
closed = 1;
nodes = (
"310 514 LINE",
"380 514 LINE SMOOTH",
"416 514 OFFCURVE",
"426 482 OFFCURVE",
"426 457 CURVE SMOOTH",
"426 418 OFFCURVE",
"401 403 OFFCURVE",
"380 403 CURVE SMOOTH",
"310 403 LINE"
);
}
);
width = 705;
}
);
leftKerningGroup = I;
unicode = 0050;
userData = {
com.typemytype.robofont.guides = (
{
angle = 0;
isGlobal = 0;
magnetic = 5;
x = 0;
y = 493;
},
{
angle = 0;
isGlobal = 0;
magnetic = 5;
x = 0;
y = 403;
},
{
angle = 0;
isGlobal = 0;
magnetic = 5;
x = 0;
y = 218;
},
{
angle = 0;
isGlobal = 0;
magnetic = 5;
x = 0;
y = 310;
},
{
angle = 0;
isGlobal = 0;
magnetic = 5;
x = 0;
y = 9;
},
{
angle = 0;
isGlobal = 0;
magnetic = 5;
x = 0;
y = 691;
},
{
angle = 90;
isGlobal = 0;
magnetic = 5;
x = 345;
y = 0;
},
{
angle = 90;
isGlobal = 0;
magnetic = 5;
x = 94;
y = 0;
},
{
angle = 90;
isGlobal = 0;
magnetic = 5;
x = 139;
y = 0;
}
);
};
},
{
color = 6;
glyphname = Thorn;
layers = (
{
anchors = (
{
name = bottom;
position = "{353, 0}";
},
{
name = top;
position = "{353, 700}";
}
);
background = {
anchors = (
{
name = bottom;
position = "{353, 0}";
},
{
name = top;
position = "{353, 700}";
}
);
paths = (
{
closed = 1;
nodes = (
"288 0 LINE SMOOTH",
"303 0 OFFCURVE",
"315 12 OFFCURVE",
"315 27 CURVE SMOOTH",
"315 119 LINE",
"380 119 LINE SMOOTH",
"566 119 OFFCURVE",
"686 190 OFFCURVE",
"686 356 CURVE SMOOTH",
"686 522 OFFCURVE",
"566 601 OFFCURVE",
"380 601 CURVE",
"315 601 LINE",
"315 673 LINE SMOOTH",
"315 688 OFFCURVE",
"303 700 OFFCURVE",
"288 700 CURVE SMOOTH",
"82 700 LINE",
"67 700 OFFCURVE",
"55 688 OFFCURVE",
"55 673 CURVE SMOOTH",
"55 27 LINE SMOOTH",
"55 12 OFFCURVE",
"67 0 OFFCURVE",
"82 0 CURVE SMOOTH"
);
},
{
closed = 1;
nodes = (
"310 415 LINE",
"380 415 LINE SMOOTH",
"416 415 OFFCURVE",
"426 383 OFFCURVE",
"426 358 CURVE SMOOTH",
"426 319 OFFCURVE",
"401 304 OFFCURVE",
"380 304 CURVE SMOOTH",
"310 304 LINE"
);
}
);
};
hints = (
{
horizontal = 1;
place = "{0, 0}";
type = Tag;
}
);
layerId = "EC64484B-0978-4CB1-9EE9-C40A2D8C4059";
paths = (
{
closed = 1;
nodes = (
"82 -39 OFFCURVE",
"216.692 -39 OFFCURVE",
"216.692 30 CURVE",
"261.834 -10.729 OFFCURVE",
"330.142 64.981 OFFCURVE",
"285 105.71 CURVE",
"317.758 33.822 OFFCURVE",
"412.758 77.112 OFFCURVE",
"380 149 CURVE",
"383.924 88.126 OFFCURVE",
"464.183 93.3 OFFCURVE",
"460.259 154.174 CURVE",
"475.774 81.818 OFFCURVE",
"530.807 93.618 OFFCURVE",
"515.292 165.974 CURVE",
"551.493 104.896 OFFCURVE",
"647.221 161.634 OFFCURVE",
"611.02 222.712 CURVE",
"674.61 188.943 OFFCURVE",
"711.998 259.349 OFFCURVE",
"648.408 293.117 CURVE",
"698.764 295.228 OFFCURVE",
"692.654 440.976 OFFCURVE",
"642.298 438.865 CURVE",
"699.026 474.515 OFFCURVE",
"660.796 535.349 OFFCURVE",
"604.068 499.699 CURVE",
"631.093 556.829 OFFCURVE",
"495.235 621.096 OFFCURVE",
"468.21 563.966 CURVE",
"474.902 640.675 OFFCURVE",
"394.875 647.657 OFFCURVE",
"388.183 570.948 CURVE",
"395.126 631.552 OFFCURVE",
"291.943 643.373 OFFCURVE",
"285 582.769 CURVE",
"340.236 613.48 OFFCURVE",
"291.736 700.711 OFFCURVE",
"236.5 670 CURVE",
"236.5 737 OFFCURVE",
"97.846 737 OFFCURVE",
"97.846 670 CURVE",
"29.849 696.559 OFFCURVE",
"17.003 663.67 OFFCURVE",
"85 637.111 CURVE",
"8 637.111 OFFCURVE",
"8 569.321 OFFCURVE",
"85 569.321 CURVE",
"16 569.321 OFFCURVE",
"16 457.667 OFFCURVE",
"85 457.667 CURVE",
"25 457.667 OFFCURVE",
"25 389.877 OFFCURVE",
"85 389.877 CURVE",
"14 389.877 OFFCURVE",
"14 274.235 OFFCURVE",
"85 274.235 CURVE",
"19 274.235 OFFCURVE",
"19 198.469 OFFCURVE",
"85 198.469 CURVE",
"17 198.469 OFFCURVE",
"17 154.605 OFFCURVE",
"85 154.605 CURVE",
"24 154.605 OFFCURVE",
"24 38.963 OFFCURVE",
"85 38.963 CURVE"
);
},
{
closed = 1;
nodes = (
"323.68 274 OFFCURVE",
"323.68 325.698 OFFCURVE",
"280 325.698 CURVE",
"318.08 325.698 OFFCURVE",
"318.08 381.372 OFFCURVE",
"280 381.372 CURVE",
"311.681 363.447 OFFCURVE",
"347.681 427.075 OFFCURVE",
"316 445 CURVE",
"316 406.92 OFFCURVE",
"376 406.92 OFFCURVE",
"376 445 CURVE",
"357.62 404.759 OFFCURVE",
"420.762 375.919 OFFCURVE",
"439.142 416.16 CURVE",
"405.305 408.381 OFFCURVE",
"421.463 338.098 OFFCURVE",
"455.3 345.877 CURVE",
"423.694 376.832 OFFCURVE",
"353.454 305.116 OFFCURVE",
"385.06 274.161 CURVE",
"384.973 311.681 OFFCURVE",
"315.913 311.52 OFFCURVE",
"316 274 CURVE"
);
}
);
width = 705;
},
{
anchors = (
{
name = bottom;
position = "{353, 0}";
},
{
name = top;
position = "{353, 700}";
}
);
associatedMasterId = "EC64484B-0978-4CB1-9EE9-C40A2D8C4059";
background = {
anchors = (
{
name = bottom;
position = "{353, 0}";
},
{
name = top;
position = "{353, 700}";
}
);
paths = (
{
closed = 1;
nodes = (
"288 0 LINE SMOOTH",
"303 0 OFFCURVE",
"315 12 OFFCURVE",
"315 27 CURVE SMOOTH",
"315 119 LINE",
"380 119 LINE SMOOTH",
"566 119 OFFCURVE",
"686 190 OFFCURVE",
"686 356 CURVE SMOOTH",
"686 522 OFFCURVE",
"566 601 OFFCURVE",
"380 601 CURVE",
"315 601 LINE",
"315 673 LINE SMOOTH",
"315 688 OFFCURVE",
"303 700 OFFCURVE",
"288 700 CURVE SMOOTH",
"82 700 LINE",
"67 700 OFFCURVE",
"55 688 OFFCURVE",
"55 673 CURVE SMOOTH",
"55 27 LINE SMOOTH",
"55 12 OFFCURVE",
"67 0 OFFCURVE",
"82 0 CURVE SMOOTH"
);
},
{
closed = 1;
nodes = (
"310 415 LINE",
"380 415 LINE SMOOTH",
"416 415 OFFCURVE",
"426 383 OFFCURVE",
"426 358 CURVE SMOOTH",
"426 319 OFFCURVE",
"401 304 OFFCURVE",
"380 304 CURVE SMOOTH",
"310 304 LINE"
);
}
);
};
color = 6;
hints = (
{
horizontal = 1;
place = "{0, 0}";
type = Tag;
}
);
layerId = "F7BD8A3D-D92C-4377-AFAF-FFBEC412035A";
name = "Jul 23 21, 16:38";
paths = (
{
closed = 1;
nodes = (
"288 0 LINE SMOOTH",
"303 0 OFFCURVE",
"315 12 OFFCURVE",
"315 27 CURVE SMOOTH",
"315 119 LINE",
"380 119 LINE SMOOTH",
"566 119 OFFCURVE",
"686 190 OFFCURVE",
"686 356 CURVE SMOOTH",
"686 522 OFFCURVE",
"566 601 OFFCURVE",
"380 601 CURVE",
"315 601 LINE",
"315 673 LINE SMOOTH",
"315 688 OFFCURVE",
"303 700 OFFCURVE",
"288 700 CURVE SMOOTH",
"82 700 LINE",
"67 700 OFFCURVE",
"55 688 OFFCURVE",
"55 673 CURVE SMOOTH",
"55 27 LINE SMOOTH",
"55 12 OFFCURVE",
"67 0 OFFCURVE",
"82 0 CURVE SMOOTH"
);
},
{
closed = 1;
nodes = (
"310 415 LINE",
"380 415 LINE SMOOTH",
"416 415 OFFCURVE",
"426 383 OFFCURVE",
"426 358 CURVE SMOOTH",
"426 319 OFFCURVE",
"401 304 OFFCURVE",
"380 304 CURVE SMOOTH",
"310 304 LINE"
);
}
);
width = 705;
}
);
leftKerningGroup = I;
unicode = 00DE;
userData = {
com.typemytype.robofont.guides = (
{
angle = 0;
isGlobal = 0;
magnetic = 5;
x = 0;
y = 119;
},
{
angle = 0;
isGlobal = 0;
magnetic = 5;
x = 0;
y = 601;
},
{
angle = 0;
isGlobal = 0;
magnetic = 5;
x = 0;
y = 570;
},
{
angle = 0;
isGlobal = 0;
magnetic = 5;
x = 0;
y = 350;
}
);
};
},
{
color = 6;
glyphname = Q;
layers = (
{
anchors = (
{
name = bottom;
position = "{371, 0}";
},
{
name = top;
position = "{371, 700}";
}
);
background = {
anchors = (
{
name = bottom;
position = "{371, 0}";
},
{
name = top;
position = "{371, 700}";
}
);
paths = (
{
closed = 1;
nodes = (
"694 -65 LINE",
"706 -65 OFFCURVE",
"716 -55 OFFCURVE",
"714 -43 CURVE SMOOTH",
"714 -40 OFFCURVE",
"712 -36 OFFCURVE",
"711 -34 CURVE",
"632 79 LINE",
"675 123 OFFCURVE",
"700 184 OFFCURVE",
"704 260 CURVE SMOOTH",
"706 314 OFFCURVE",
"706 379 OFFCURVE",
"704 436 CURVE SMOOTH",
"697 611 OFFCURVE",
"566 710 OFFCURVE",
"370 710 CURVE SMOOTH",
"174 710 OFFCURVE",
"43 611 OFFCURVE",
"36 436 CURVE SMOOTH",
"34 379 OFFCURVE",
"34 314 OFFCURVE",
"36 260 CURVE SMOOTH",
"44 81 OFFCURVE",
"174 -10 OFFCURVE",
"370 -10 CURVE SMOOTH",
"390 -10 OFFCURVE",
"410 -9 OFFCURVE",
"428 -7 CURVE",
"456 -42 LINE",
"462 -50 OFFCURVE",
"473 -65 OFFCURVE",
"498 -65 CURVE"
);
},
{
closed = 1;
nodes = (
"326 185 OFFCURVE",
"298 210 OFFCURVE",
"296 266 CURVE SMOOTH",
"294 323 OFFCURVE",
"294 379 OFFCURVE",
"296 434 CURVE SMOOTH",
"298 490 OFFCURVE",
"327 515 OFFCURVE",
"370 515 CURVE SMOOTH",
"413 515 OFFCURVE",
"442 490 OFFCURVE",
"444 434 CURVE SMOOTH",
"446 379 OFFCURVE",
"446 323 OFFCURVE",
"444 266 CURVE SMOOTH",
"442 210 OFFCURVE",
"414 185 OFFCURVE",
"370 185 CURVE SMOOTH"
);
}
);
};
hints = (
{
horizontal = 1;
place = "{0, 0}";
type = Tag;
}
);
layerId = "EC64484B-0978-4CB1-9EE9-C40A2D8C4059";
paths = (
{
closed = 1;
nodes = (
"498 -113 OFFCURVE",
"650 -113 OFFCURVE",
"650 -35 CURVE",
"636.358 -103.658 OFFCURVE",
"671.175 -110.575 OFFCURVE",
"684.816 -41.918 CURVE",
"739.323 2.003 OFFCURVE",
"699.239 51.749 OFFCURVE",
"644.732 7.829 CURVE",
"709.799 38.655 OFFCURVE",
"669.135 124.489 OFFCURVE",
"604.068 93.663 CURVE",
"657.61 66.584 OFFCURVE",
"723.61 197.082 OFFCURVE",
"670.068 224.161 CURVE",
"739.953 220.142 OFFCURVE",
"745.184 311.122 OFFCURVE",
"675.299 315.14 CURVE",
"738.299 315.198 OFFCURVE",
"738.236 384.71 OFFCURVE",
"675.236 384.653 CURVE",
"743.219 386.182 OFFCURVE",
"742.3 427.062 OFFCURVE",
"674.317 425.533 CURVE",
"740.956 439.071 OFFCURVE",
"719.199 546.163 OFFCURVE",
"652.561 532.625 CURVE",
"705.362 578.581 OFFCURVE",
"619.525 677.205 OFFCURVE",
"566.723 631.249 CURVE",
"597.338 704.075 OFFCURVE",
"512.411 739.778 OFFCURVE",
"481.795 666.951 CURVE",
"488.588 737.626 OFFCURVE",
"356.653 750.306 OFFCURVE",
"349.86 679.631 CURVE",
"340.084 752.983 OFFCURVE",
"252.385 741.295 OFFCURVE",
"262.161 667.943 CURVE",
"230.319 733.633 OFFCURVE",
"115.339 677.899 OFFCURVE",
"147.18 612.209 CURVE",
"90.76 655.311 OFFCURVE",
"32.546 579.109 OFFCURVE",
"88.966 536.007 CURVE",
"20.774 546.536 OFFCURVE",
"-3.505 389.289 OFFCURVE",
"64.687 378.761 CURVE",
"-0.313 378.591 OFFCURVE",
"-0.113 302.246 OFFCURVE",
"64.887 302.416 CURVE",
"5.587 293.279 OFFCURVE",
"26.39 158.261 OFFCURVE",
"85.691 167.398 CURVE",
"34.171 126.145 OFFCURVE",
"108.274 33.6 OFFCURVE",
"159.794 74.853 CURVE",
"133.138 1.549 OFFCURVE",
"271.104 -48.62 OFFCURVE",
"297.76 24.684 CURVE",
"297.328 -41.315 OFFCURVE",
"431.857 -42.194 OFFCURVE",
"432.289 23.804 CURVE"
);
},
{
closed = 1;
nodes = (
"382.256 195.172 OFFCURVE",
"317.994 214.778 OFFCURVE",
"305.737 174.606 CURVE",
"345.073 191.219 OFFCURVE",
"305.2 285.629 OFFCURVE",
"265.865 269.016 CURVE",
"308.553 270.016 OFFCURVE",
"307.424 318.22 OFFCURVE",
"264.736 317.221 CURVE",
"317.935 317.076 OFFCURVE",
"318.154 397.436 OFFCURVE",
"264.954 397.581 CURVE",
"312.355 388.306 OFFCURVE",
"333.112 494.396 OFFCURVE",
"285.711 503.67 CURVE",
"315.955 474.528 OFFCURVE",
"338.16 497.573 OFFCURVE",
"307.916 526.715 CURVE",
"330.034 482.991 OFFCURVE",
"355.058 495.65 OFFCURVE",
"332.94 539.374 CURVE",
"336.023 484.16 OFFCURVE",
"397.058 487.567 OFFCURVE",
"393.975 542.781 CURVE",
"361.286 498.177 OFFCURVE",
"427 450.018 OFFCURVE",
"459.688 494.622 CURVE",
"415.998 481.918 OFFCURVE",
"429.384 435.883 OFFCURVE",
"473.074 448.588 CURVE",
"427.628 446.363 OFFCURVE",
"429.08 416.717 OFFCURVE",
"474.525 418.942 CURVE",
"432.527 418.556 OFFCURVE",
"433.378 326.184 OFFCURVE",
"475.376 326.571 CURVE",
"424.285 327.537 OFFCURVE",
"423.45 283.363 OFFCURVE",
"474.541 282.397 CURVE",
"420.71 291.529 OFFCURVE",
"408.467 219.365 OFFCURVE",
"462.298 210.233 CURVE",
"423.417 235.187 OFFCURVE",
"408.246 211.548 OFFCURVE",
"447.127 186.594 CURVE"
);
}
);
width = 742;
},
{
anchors = (
{
name = bottom;
position = "{371, 0}";
},
{
name = top;
position = "{371, 700}";
}
);
associatedMasterId = "EC64484B-0978-4CB1-9EE9-C40A2D8C4059";
background = {
anchors = (
{
name = bottom;
position = "{371, 0}";
},
{
name = top;
position = "{371, 700}";
}
);
paths = (
{
closed = 1;
nodes = (
"694 -65 LINE",
"706 -65 OFFCURVE",
"716 -55 OFFCURVE",
"714 -43 CURVE SMOOTH",
"714 -40 OFFCURVE",
"712 -36 OFFCURVE",
"711 -34 CURVE",
"632 79 LINE",
"675 123 OFFCURVE",
"700 184 OFFCURVE",
"704 260 CURVE SMOOTH",
"706 314 OFFCURVE",
"706 379 OFFCURVE",
"704 436 CURVE SMOOTH",
"697 611 OFFCURVE",
"566 710 OFFCURVE",
"370 710 CURVE SMOOTH",
"174 710 OFFCURVE",
"43 611 OFFCURVE",
"36 436 CURVE SMOOTH",
"34 379 OFFCURVE",
"34 314 OFFCURVE",
"36 260 CURVE SMOOTH",
"44 81 OFFCURVE",
"174 -10 OFFCURVE",
"370 -10 CURVE SMOOTH",
"390 -10 OFFCURVE",
"410 -9 OFFCURVE",
"428 -7 CURVE",
"456 -42 LINE",
"462 -50 OFFCURVE",
"473 -65 OFFCURVE",
"498 -65 CURVE"
);
},
{
closed = 1;
nodes = (
"326 185 OFFCURVE",
"298 210 OFFCURVE",
"296 266 CURVE SMOOTH",
"294 323 OFFCURVE",
"294 379 OFFCURVE",
"296 434 CURVE SMOOTH",
"298 490 OFFCURVE",
"327 515 OFFCURVE",
"370 515 CURVE SMOOTH",
"413 515 OFFCURVE",
"442 490 OFFCURVE",
"444 434 CURVE SMOOTH",
"446 379 OFFCURVE",
"446 323 OFFCURVE",
"444 266 CURVE SMOOTH",
"442 210 OFFCURVE",
"414 185 OFFCURVE",
"370 185 CURVE SMOOTH"
);
}
);
};
color = 6;
hints = (
{
horizontal = 1;
place = "{0, 0}";
type = Tag;
}
);
layerId = "42AD1F1D-8282-4E2B-9A45-0267B0C31358";
name = "Jul 23 21, 16:38";
paths = (
{
closed = 1;
nodes = (
"694 -65 LINE",
"706 -65 OFFCURVE",
"716 -55 OFFCURVE",
"714 -43 CURVE SMOOTH",
"714 -40 OFFCURVE",
"712 -36 OFFCURVE",
"711 -34 CURVE",
"632 79 LINE",
"675 123 OFFCURVE",
"700 184 OFFCURVE",
"704 260 CURVE SMOOTH",
"706 314 OFFCURVE",
"706 379 OFFCURVE",
"704 436 CURVE SMOOTH",
"697 611 OFFCURVE",
"566 710 OFFCURVE",
"370 710 CURVE SMOOTH",
"174 710 OFFCURVE",
"43 611 OFFCURVE",
"36 436 CURVE SMOOTH",
"34 379 OFFCURVE",
"34 314 OFFCURVE",
"36 260 CURVE SMOOTH",
"44 81 OFFCURVE",
"174 -10 OFFCURVE",
"370 -10 CURVE SMOOTH",
"390 -10 OFFCURVE",
"410 -9 OFFCURVE",
"428 -7 CURVE",
"456 -42 LINE",
"462 -50 OFFCURVE",
"473 -65 OFFCURVE",
"498 -65 CURVE"
);
},
{
closed = 1;
nodes = (
"326 185 OFFCURVE",
"298 210 OFFCURVE",
"296 266 CURVE SMOOTH",
"294 323 OFFCURVE",
"294 379 OFFCURVE",
"296 434 CURVE SMOOTH",
"298 490 OFFCURVE",
"327 515 OFFCURVE",
"370 515 CURVE SMOOTH",
"413 515 OFFCURVE",
"442 490 OFFCURVE",
"444 434 CURVE SMOOTH",
"446 379 OFFCURVE",
"446 323 OFFCURVE",
"444 266 CURVE SMOOTH",
"442 210 OFFCURVE",
"414 185 OFFCURVE",
"370 185 CURVE SMOOTH"
);
}
);
width = 742;
}
);
leftKerningGroup = O;
rightKerningGroup = O;
unicode = 0051;
userData = {
com.typemytype.robofont.guides = (
{
angle = 0;
isGlobal = 0;
magnetic = 5;
x = 0;
y = 710;
},
{
angle = 0;
isGlobal = 0;
magnetic = 5;
x = 0;
y = "-10";
},
{
angle = 0;
isGlobal = 0;
magnetic = 5;
x = 0;
y = "-56";
},
{
angle = 90;
isGlobal = 0;
magnetic = 5;
x = 82;
y = 0;
},
{
angle = 90;
isGlobal = 0;
magnetic = 5;
x = 750;
y = 0;
},
{
angle = 90;
isGlobal = 0;
magnetic = 5;
x = 580;
y = 0;
}
);
};
},
{
color = 6;
glyphname = R;
layers = (
{
anchors = (
{
name = bottom;
position = "{369, 0}";
},
{
name = top;
position = "{341, 700}";
}
);
background = {
anchors = (
{
name = bottom;
position = "{369, 0}";
},
{
name = top;
position = "{341, 700}";
}
);
paths = (
{
closed = 1;
nodes = (
"278 0 LINE SMOOTH",
"293 0 OFFCURVE",
"305 12 OFFCURVE",
"305 27 CURVE SMOOTH",
"305 218 LINE",
"346 218 LINE",
"432 27 LINE SMOOTH",
"436 18 OFFCURVE",
"448 0 OFFCURVE",
"475 0 CURVE SMOOTH",
"680 0 LINE SMOOTH",
"692 0 OFFCURVE",
"702 10 OFFCURVE",
"702 22 CURVE SMOOTH",
"702 27 OFFCURVE",
"701 29 OFFCURVE",
"699 33 CURVE SMOOTH",
"576 261 LINE",
"639 301 OFFCURVE",
"684 367 OFFCURVE",
"684 457 CURVE SMOOTH",
"684 608 OFFCURVE",
"570 700 OFFCURVE",
"378 700 CURVE SMOOTH",
"82 700 LINE SMOOTH",
"67 700 OFFCURVE",
"55 688 OFFCURVE",
"55 673 CURVE SMOOTH",
"55 27 LINE SMOOTH",
"55 12 OFFCURVE",
"67 0 OFFCURVE",
"82 0 CURVE SMOOTH"
);
},
{
closed = 1;
nodes = (
"305 514 LINE",
"378 514 LINE SMOOTH",
"411 514 OFFCURVE",
"424 485 OFFCURVE",
"424 459 CURVE SMOOTH",
"424 432 OFFCURVE",
"409 408 OFFCURVE",
"378 408 CURVE SMOOTH",
"305 408 LINE"
);
}
);
};
layerId = "EC64484B-0978-4CB1-9EE9-C40A2D8C4059";
paths = (
{
closed = 1;
nodes = (
"82 -49 OFFCURVE",
"234 -49 OFFCURVE",
"234 30 CURVE",
"264.324 -8.234 OFFCURVE",
"305.324 24.283 OFFCURVE",
"275 62.518 CURVE",
"327.8 62.518 OFFCURVE",
"327.8 133.554 OFFCURVE",
"275 133.554 CURVE",
"327.8 133.554 OFFCURVE",
"327.8 216.429 OFFCURVE",
"275 216.429 CURVE",
"301.583 160.417 OFFCURVE",
"368.105 191.988 OFFCURVE",
"341.522 248 CURVE",
"292.376 213.58 OFFCURVE",
"357.992 119.891 OFFCURVE",
"407.138 154.31 CURVE",
"351.688 129.371 OFFCURVE",
"388.964 46.492 OFFCURVE",
"444.414 71.431 CURVE",
"419.93 18.411 OFFCURVE",
"509.651 -23.02 OFFCURVE",
"534.135 30 CURVE",
"534.135 -37 OFFCURVE",
"676.058 -37 OFFCURVE",
"676.058 30 CURVE",
"727.608 66.215 OFFCURVE",
"688.893 121.325 OFFCURVE",
"637.342 85.11 CURVE",
"702.473 120.239 OFFCURVE",
"681.829 158.513 OFFCURVE",
"616.699 123.384 CURVE",
"680.949 158.038 OFFCURVE",
"620.894 269.381 OFFCURVE",
"556.644 234.726 CURVE",
"629.927 244.998 OFFCURVE",
"623.504 290.828 OFFCURVE",
"550.22 280.556 CURVE",
"593.361 231.937 OFFCURVE",
"662.075 292.908 OFFCURVE",
"618.934 341.528 CURVE",
"667.558 328.265 OFFCURVE",
"702.345 455.801 OFFCURVE",
"653.721 469.064 CURVE",
"723.003 484.587 OFFCURVE",
"706.388 558.747 OFFCURVE",
"637.105 543.225 CURVE",
"672.283 577.047 OFFCURVE",
"584.799 668.037 OFFCURVE",
"549.621 634.214 CURVE",
"579.32 706.339 OFFCURVE",
"534.744 724.694 OFFCURVE",
"505.045 652.57 CURVE",
"513.22 714.028 OFFCURVE",
"382.175 731.459 OFFCURVE",
"374 670 CURVE",
"374 733 OFFCURVE",
"286 733 OFFCURVE",
"286 670 CURVE",
"286 746 OFFCURVE",
"194 746 OFFCURVE",
"194 670 CURVE",
"194 747 OFFCURVE",
"134 747 OFFCURVE",
"134 670 CURVE",
"102.791 716.497 OFFCURVE",
"53.791 683.608 OFFCURVE",
"85 637.111 CURVE",
"21 637.111 OFFCURVE",
"21 577.296 OFFCURVE",
"85 577.296 CURVE",
"15 577.296 OFFCURVE",
"15 529.444 OFFCURVE",
"85 529.444 CURVE",
"15 529.444 OFFCURVE",
"15 489.568 OFFCURVE",
"85 489.568 CURVE",
"17 489.568 OFFCURVE",
"17 437.728 OFFCURVE",
"85 437.728 CURVE",
"17 437.728 OFFCURVE",
"17 330.062 OFFCURVE",
"85 330.062 CURVE",
"25 330.062 OFFCURVE",
"25 174.543 OFFCURVE",
"85 174.543 CURVE",
"13 174.543 OFFCURVE",
"13 122.704 OFFCURVE",
"85 122.704 CURVE"
);
},
{
closed = 1;
nodes = (
"317.56 378 OFFCURVE",
"317.56 441.238 OFFCURVE",
"275 441.238 CURVE",
"313.64 441.238 OFFCURVE",
"313.64 484.714 OFFCURVE",
"275 484.714 CURVE",
"308.6 484.714 OFFCURVE",
"308.6 536.095 OFFCURVE",
"275 536.095 CURVE",
"283 500.011 OFFCURVE",
"318.654 507.916 OFFCURVE",
"310.654 544 CURVE",
"308.746 508.772 OFFCURVE",
"404.031 503.612 OFFCURVE",
"405.938 538.841 CURVE",
"366.22 502.404 OFFCURVE",
"408.989 455.783 OFFCURVE",
"448.707 492.22 CURVE",
"414.565 485.913 OFFCURVE",
"419.739 457.903 OFFCURVE",
"453.882 464.21 CURVE",
"421.391 482.975 OFFCURVE",
"374.696 402.126 OFFCURVE",
"407.186 383.361 CURVE",
"405.167 424.191 OFFCURVE",
"296.75 418.83 OFFCURVE",
"298.769 378 CURVE"
);
}
);
width = 722;
},
{
anchors = (
{
name = bottom;
position = "{369, 0}";
},
{
name = top;
position = "{341, 700}";
}
);
associatedMasterId = "EC64484B-0978-4CB1-9EE9-C40A2D8C4059";
background = {
anchors = (
{
name = bottom;
position = "{369, 0}";
},
{
name = top;
position = "{341, 700}";
}
);
paths = (
{
closed = 1;
nodes = (
"278 0 LINE SMOOTH",
"293 0 OFFCURVE",
"305 12 OFFCURVE",
"305 27 CURVE SMOOTH",
"305 218 LINE",
"346 218 LINE",
"432 27 LINE SMOOTH",
"436 18 OFFCURVE",
"448 0 OFFCURVE",
"475 0 CURVE SMOOTH",
"680 0 LINE SMOOTH",
"692 0 OFFCURVE",
"702 10 OFFCURVE",
"702 22 CURVE SMOOTH",
"702 27 OFFCURVE",
"701 29 OFFCURVE",
"699 33 CURVE SMOOTH",
"576 261 LINE",
"639 301 OFFCURVE",
"684 367 OFFCURVE",
"684 457 CURVE SMOOTH",
"684 608 OFFCURVE",
"570 700 OFFCURVE",
"378 700 CURVE SMOOTH",
"82 700 LINE SMOOTH",
"67 700 OFFCURVE",
"55 688 OFFCURVE",
"55 673 CURVE SMOOTH",
"55 27 LINE SMOOTH",
"55 12 OFFCURVE",
"67 0 OFFCURVE",
"82 0 CURVE SMOOTH"
);
},
{
closed = 1;
nodes = (
"305 514 LINE",
"378 514 LINE SMOOTH",
"411 514 OFFCURVE",
"424 485 OFFCURVE",
"424 459 CURVE SMOOTH",
"424 432 OFFCURVE",
"409 408 OFFCURVE",
"378 408 CURVE SMOOTH",
"305 408 LINE"
);
}
);
};
color = 6;
layerId = "B0A3C302-227B-4226-9819-B045C8D2D14D";
name = "Jul 23 21, 16:38";
paths = (
{
closed = 1;
nodes = (
"278 0 LINE SMOOTH",
"293 0 OFFCURVE",
"305 12 OFFCURVE",
"305 27 CURVE SMOOTH",
"305 218 LINE",
"346 218 LINE",
"432 27 LINE SMOOTH",
"436 18 OFFCURVE",
"448 0 OFFCURVE",
"475 0 CURVE SMOOTH",
"680 0 LINE SMOOTH",
"692 0 OFFCURVE",
"702 10 OFFCURVE",
"702 22 CURVE SMOOTH",
"702 27 OFFCURVE",
"701 29 OFFCURVE",
"699 33 CURVE SMOOTH",
"576 261 LINE",
"639 301 OFFCURVE",
"684 367 OFFCURVE",
"684 457 CURVE SMOOTH",
"684 608 OFFCURVE",
"570 700 OFFCURVE",
"378 700 CURVE SMOOTH",
"82 700 LINE SMOOTH",
"67 700 OFFCURVE",
"55 688 OFFCURVE",
"55 673 CURVE SMOOTH",
"55 27 LINE SMOOTH",
"55 12 OFFCURVE",
"67 0 OFFCURVE",
"82 0 CURVE SMOOTH"
);
},
{
closed = 1;
nodes = (
"305 514 LINE",
"378 514 LINE SMOOTH",
"411 514 OFFCURVE",
"424 485 OFFCURVE",
"424 459 CURVE SMOOTH",
"424 432 OFFCURVE",
"409 408 OFFCURVE",
"378 408 CURVE SMOOTH",
"305 408 LINE"
);
}
);
width = 722;
}
);
leftKerningGroup = I;
rightKerningGroup = R;
unicode = 0052;
userData = {
com.typemytype.robofont.guides = (
{
angle = 0;
isGlobal = 0;
magnetic = 5;
x = 0;
y = 691;
},
{
angle = 0;
isGlobal = 0;
magnetic = 5;
x = 0;
y = 9;
},
{
angle = 90;
isGlobal = 0;
magnetic = 5;
x = 616;
y = 0;
},
{
angle = 90;
isGlobal = 0;
magnetic = 5;
x = 574;
y = 0;
},
{
angle = 90;
isGlobal = 0;
magnetic = 5;
x = 94;
y = 0;
},
{
angle = 90;
isGlobal = 0;
magnetic = 5;
x = 139;
y = 0;
}
);
};
},
